SplineFontDB: 3.2
FontName: MouseMarker-Regular
FullName: Mouse Marker Regular
FamilyName: Mouse Marker
Weight: Regular
Copyright: Copyright (C) 2026 Julius Burton. Dedicated to the public domain under CC0 1.0 Universal.
UComments: "2026-1-6: Created with FontForge (http://fontforge.org)"
Version: 1.0.0
ItalicAngle: 0
UnderlinePosition: -120
UnderlineWidth: 60
Ascent: 1000
Descent: 200
InvalidEm: 0
LayerCount: 2
Layer: 0 0 "Back" 1
Layer: 1 0 "Fore" 0
XUID: [1021 992 1905317403 1694931]
StyleMap: 0x0000
FSType: 0
OS2Version: 0
OS2_WeightWidthSlopeOnly: 0
OS2_UseTypoMetrics: 1
CreationTime: 1767711427
ModificationTime: 1768576750
PfmFamily: 17
TTFWeight: 400
TTFWidth: 5
LineGap: 108
VLineGap: 108
OS2TypoAscent: 0
OS2TypoAOffset: 1
OS2TypoDescent: 0
OS2TypoDOffset: 1
OS2TypoLinegap: 108
OS2WinAscent: 0
OS2WinAOffset: 1
OS2WinDescent: 0
OS2WinDOffset: 1
HheadAscent: 0
HheadAOffset: 1
HheadDescent: 0
HheadDOffset: 1
OS2Vendor: 'PfEd'
MarkAttachClasses: 1
DEI: 91125
LangName: 1033 "" "" "" "Julius Burton: Mouse Marker Regular: 2026" "" "" "" "" "" "" "" "" "" "CC0 1.0 Universal" "https://creativecommons.org/publicdomain/zero/1.0/" "" "Mouse Marker" "Regular"
Encoding: Mac
UnicodeInterp: none
NameList: AGL For New Fonts
DisplaySize: -72
AntiAlias: 1
FitToEm: 0
WinInfo: 27 27 12
BeginPrivate: 0
EndPrivate
Grid
-1200 -360 m 0
 2400 -360 l 1024
  Named: "decender"
EndSplineSet
TeXData: 1 0 0 786432 393216 262144 848483 1048576 262144 783286 444596 497025 792723 393216 433062 380633 303038 157286 324010 404750 52429 2506097 1059062 262144
BeginChars: 418 387

StartChar: A
Encoding: -1 65 0
Width: 929
Flags: W
HStem: 65.6611 934.368<465.927 630.532>
VStem: 2.10059 170.863<26.1918 171.276> 554.209 157.872<85.9717 296.735>
LayerCount: 2
Fore
SplineSet
698.712890625 98.3408203125 m 0
 731.17578125 138.651367188 743.145507812 203.530273438 712.081054688 371.064453125 c 1
 718.8515625 396.424804688 714.14453125 425.09375 696.30078125 447.744140625 c 1
 680.243164062 519.458007812 635.811523438 701.684570312 549.181640625 941.572265625 c 0
 538.720703125 970.59375 508.844726562 1000.02929688 465.926757812 1000.02929688 c 0
 435.1640625 1000.02929688 401.323242188 982.461914062 385.646484375 948.833984375 c 0
 293.447265625 750.875 192.526367188 607.639648438 111.092773438 431.010742188 c 1
 54.4482421875 416.721679688 27.1875 351.223632812 57.6220703125 300.943359375 c 1
 36.4443359375 242.1640625 17.626953125 178.72265625 2.1005859375 108.643554688 c 0
 -9.9814453125 54.109375 31.5869140625 2.1611328125 87.5322265625 2.1611328125 c 0
 129.306640625 2.1611328125 164.283203125 31.5 172.963867188 70.6787109375 c 0
 189.180664062 143.873046875 208.990234375 208.227539062 231.760742188 267.775390625 c 1
 546.99609375 298.025390625 l 1
 551.177734375 270.822265625 557.405273438 222.955078125 554.208984375 195.956054688 c 1
 521.640625 138.041015625 563.688476562 65.6611328125 630.532226562 65.6611328125 c 0
 658.079101562 65.6611328125 682.668945312 78.41796875 698.712890625 98.3408203125 c 0
511.092773438 470.39453125 m 1
 316.563476562 451.727539062 l 1
 340.787109375 497.490234375 366.649414062 542.977539062 393.762695312 590.665039062 c 0
 411.859375 622.493164062 430.467773438 655.20703125 449.329101562 689.400390625 c 1
 473.165039062 612.955078125 494.204101562 538.391601562 511.092773438 470.39453125 c 1
EndSplineSet
Validated: 41
EndChar

StartChar: B
Encoding: 66 66 1
Width: 914
Flags: W
HStem: 839 175<218.502 489.623>
LayerCount: 2
Fore
SplineSet
514.344726562 530.6796875 m 1
 632.946289062 608.94140625 691.263671875 693.42578125 691.263671875 788.28125 c 0
 691.263671875 858.017578125 663.165039062 902.908203125 619.7109375 937.651367188 c 0
 561.416992188 984.259765625 472.618164062 1014 352.204101562 1014 c 0
 270.741210938 1014 174.737304688 1000.09863281 62.1435546875 966.303710938 c 0
 -9.5771484375 944.77734375 -22.845703125 847.631835938 41.4501953125 807.959960938 c 1
 65.74609375 561.999023438 53.7744140625 403.130859375 15.3095703125 151.278320312 c 0
 7.1083984375 97.58203125 49.302734375 49.404296875 103.599609375 50.5 c 1
 113.916992188 6.4033203125 156.9140625 -11.369140625 202.938476562 -3.880859375 c 0
 292.317382812 10.6611328125 488.040039062 51.8701171875 600.547851562 146.419921875 c 0
 644.154296875 183.06640625 692.4375 230.458984375 692.4375 313.811523438 c 0
 692.4375 348.951171875 683.634765625 383.68359375 667.9375 416.842773438 c 0
 634.646484375 487.163085938 557.452148438 516.72265625 514.344726562 530.6796875 c 1
352.204101562 839 m 0
 433.005859375 839 481.774414062 820.096679688 503.704101562 805.819335938 c 0
 509.8515625 801.81640625 513.58984375 798.389648438 515.522460938 796.389648438 c 0
 518.555664062 779.474609375 511.49609375 753.202148438 470.190429688 716.334960938 c 0
 393.849609375 648.196289062 266.942382812 602.451171875 229.064453125 566.862304688 c 1
 229.321289062 651.022460938 224.505859375 734.861328125 215.680664062 824.4765625 c 1
 268.591796875 834.854492188 314.022460938 839 352.204101562 839 c 0
510.506835938 340.317382812 m 1
 520.595703125 318.090820312 524.234375 298.83984375 488.0625 268.442382812 c 0
 432.69921875 221.915039062 317.5234375 182.479492188 193.618164062 160.100585938 c 1
 208.165039062 258.717773438 218.59375 345.46875 224.23046875 430.056640625 c 1
 249.388671875 405.36328125 280.880859375 400.087890625 338.19921875 390.486328125 c 0
 378.97265625 383.65625 483.069335938 366.21875 510.506835938 340.317382812 c 1
EndSplineSet
Validated: 41
EndChar

StartChar: C
Encoding: -1 67 2
Width: 1027
Flags: W
HStem: -10 175<337.102 642.205>
LayerCount: 2
Fore
SplineSet
657.227539062 924.342773438 m 4
 657.227539062 977.015625 610.858398438 1017.92480469 558.372070312 1011.11132812 c 4
 107.638671875 952.596679688 -113.696289062 481.205078125 58.19140625 171.9296875 c 4
 124.055664062 53.419921875 335.55859375 -10 506.758789062 -10 c 4
 597.313476562 -10 729.194335938 7.837890625 807.055664062 99.884765625 c 4
 854.958007812 156.514648438 814.349609375 243.84375 740.227539062 243.84375 c 4
 713.444335938 243.84375 689.455078125 231.784179688 673.399414062 212.802734375 c 4
 647.71484375 182.439453125 582.848632812 165 506.758789062 165 c 4
 401.158203125 165 281.743164062 198.456054688 227.780273438 240.202148438 c 4
 216.833007812 248.671875 211.986328125 255.458007812 211.263671875 256.7578125 c 4
 99.34765625 458.127929688 253.532226562 795.051757812 581.083007812 837.57421875 c 4
 624.018554688 843.1484375 657.227539062 879.8984375 657.227539062 924.342773438 c 4
EndSplineSet
Validated: 41
EndChar

StartChar: D
Encoding: 68 68 3
Width: 855
Flags: W
VStem: 61.4561 178.673<247.1 539.449> 78.4932 174.714<487.993 774.676>
LayerCount: 2
Fore
SplineSet
172.936523438 1008 m 0x80
 116.301757812 1055.875 29 1015.26171875 29 941.153320312 c 0
 29 914.359375 41.0693359375 890.362304688 60.0634765625 874.306640625 c 0
 66.12890625 869.178710938 72.279296875 864.32421875 78.4931640625 859.715820312 c 1x40
 78.24609375 582.379882812 71.74609375 405.583984375 61.4560546875 162.205078125 c 1
 25.865234375 151.108398438 0 117.877929688 0 78.6533203125 c 0
 0 31.0732421875 38.0595703125 -7.6884765625 85.3701171875 -8.8212890625 c 1
 136.520507812 -55.7626953125 219.282226562 -26.7587890625 230.765625 40.9384765625 c 1
 343.333984375 94.65234375 441.25 170.712890625 514.244140625 256.33984375 c 0
 571.48046875 323.482421875 671.609375 467.55078125 639.1796875 623.979492188 c 0
 595.268554688 835.78515625 438.286132812 893.287109375 318.032226562 937.3359375 c 0
 259.185546875 958.890625 208.696289062 977.771484375 172.936523438 1008 c 0x80
467.8203125 588.327148438 m 0
 469.78125 578.869140625 476.842773438 543.022460938 453.375976562 484.795898438 c 0
 422.4609375 408.088867188 349.215820312 318.8359375 240.12890625 247.099609375 c 1x80
 247.247070312 423.201171875 252.013671875 574.8671875 253.20703125 774.67578125 c 1
 372.231445312 731.098632812 443.932617188 703.552734375 467.8203125 588.327148438 c 0
EndSplineSet
Validated: 41
EndChar

StartChar: E
Encoding: 69 69 4
Width: 1138
Flags: W
HStem: 792.021 174.8<343.895 622.894>
LayerCount: 2
Fore
SplineSet
323.7578125 966.8203125 m 4
 266.151367188 966.8203125 255.3984375 973.513671875 237.766601562 973.513671875 c 4
 189.473632812 973.513671875 150.266601562 934.306640625 150.266601562 886.013671875 c 4
 150.266601562 859.244140625 162.314453125 835.265625 181.278320312 819.209960938 c 5
 86.173828125 664.922851562 0 305.223632812 0 149.149414062 c 4
 0 81.0361328125 15.47265625 16.0185546875 98.8505859375 0 c 4
 193.495117188 -18.18359375 472.2578125 13.017578125 618.411132812 104.520507812 c 4
 651.71875 125.374023438 683.849609375 151.885742188 706.06640625 190.299804688 c 4
 739.569335938 248.228515625 697.5625 321.513671875 630.266601562 321.513671875 c 4
 597.891601562 321.513671875 569.599609375 303.892578125 554.466796875 277.727539062 c 4
 547.6875 266.004882812 513.065429688 237.581054688 428.219726562 211.478515625 c 4
 343.9453125 185.55078125 238.904296875 171.663085938 175.692382812 170.13671875 c 5
 176.74609375 188.08984375 181.1796875 251.828125 206.431640625 365.7421875 c 5
 213.922851562 364.771484375 225.837890625 364.217773438 239.6328125 367.772460938 c 4
 414.935546875 412.942382812 471.180664062 443.55078125 583.659179688 549.247070312 c 4
 600.649414062 565.212890625 611.266601562 587.8828125 611.266601562 613.013671875 c 4
 611.266601562 661.306640625 572.059570312 700.513671875 523.766601562 700.513671875 c 4
 500.604492188 700.513671875 479.532226562 691.495117188 463.874023438 676.780273438 c 4
 386.653320312 604.215820312 353.826171875 582.590820312 257.3984375 554.092773438 c 5
 271.482421875 597.470703125 300.430664062 680.083984375 331.85546875 729.966796875 c 4
 338.479492188 740.482421875 349.124023438 762.825195312 343.89453125 792.020507812 c 5
 494.178710938 794.921875 690.766601562 828.859375 857.079101562 840.73828125 c 4
 902.4296875 843.977539062 938.266601562 881.84375 938.266601562 928.013671875 c 4
 938.266601562 978.627929688 895.291015625 1018.91992188 844.454101562 1015.2890625 c 4
 675.80078125 1003.2421875 456.03515625 966.8203125 323.7578125 966.8203125 c 4
EndSplineSet
Validated: 41
EndChar

StartChar: F
Encoding: 70 70 5
Width: 962
Flags: W
HStem: 410.793 174.559<241.546 545.251> 824.51 175.49<223.6 443.569>
VStem: 1.28711 173.924<27.4935 400.87> 48.4043 175.195<589.609 824.51>
LayerCount: 2
Fore
SplineSet
48.404296875 846.557617188 m 1xd0
 52.90234375 688.895507812 -9.65625 217.380859375 1.287109375 96.5986328125 c 0
 2.8466796875 79.3916015625 6.634765625 46.5908203125 33.1435546875 21.1357421875 c 0
 41.1474609375 13.44921875 63.09375 -4.2314453125 95.5234375 -4.2314453125 c 0
 159.198242188 -4.2314453125 201.379882812 61.9267578125 175.2109375 119.436523438 c 1xe0
 173.401367188 159.907226562 180.102539062 252.377929688 194.143554688 410.79296875 c 1
 209.955078125 410.227539062 225.7421875 409.5546875 241.545898438 408.876953125 c 0
 371.006835938 403.329101562 499.705078125 397.814453125 631.159179688 457.56640625 c 0
 661.444335938 471.33203125 682.524414062 501.858398438 682.524414062 537.268554688 c 0
 682.524414062 600.927734375 616.396484375 643.110351562 558.889648438 616.970703125 c 0
 466.62109375 575.030273438 372.7109375 578.419921875 249.15234375 583.71484375 c 0
 236.224609375 584.268554688 223.0234375 584.836914062 209.543945312 585.3515625 c 1
 217.193359375 676.274414062 223.205078125 761.404296875 223.599609375 824.509765625 c 1
 309.268554688 821.706054688 452.301757812 805.75 650.2734375 748.678710938 c 0
 705.963867188 732.624023438 762.024414062 774.502929688 762.024414062 832.768554688 c 0
 762.024414062 872.6484375 735.287109375 906.333007812 698.775390625 916.858398438 c 0
 461.776367188 985.180664062 292.844726562 1000 194.684570312 1000 c 0
 157.120117188 1000 114.302734375 998.134765625 89.3291015625 990.983398438 c 0
 81.34765625 988.698242188 64.724609375 983.907226562 47.884765625 965.688476562 c 0
 15.421875 930.56640625 17.662109375 879.326171875 48.404296875 846.557617188 c 1xd0
EndSplineSet
Validated: 41
EndChar

StartChar: G
Encoding: 71 71 6
Width: 1050
Flags: W
HStem: 16 175<248.162 400.422> 378.805 170.841<617.384 824.475> 801.307 168.76<481.858 594.448>
VStem: 0 175<284.612 553.366>
LayerCount: 2
Fore
SplineSet
480.84765625 810.635742188 m 4
 502.697265625 810.635742188 506.0234375 801.306640625 532.614257812 801.306640625 c 4
 580.907226562 801.306640625 620.114257812 840.513671875 620.114257812 888.806640625 c 4
 620.114257812 925.62109375 597.329101562 957.15625 565.104492188 970.06640625 c 4
 453.90234375 1014.61914062 308.8671875 960.506835938 192.227539062 849.372070312 c 4
 86.359375 748.5 0 596.9921875 0 420.333984375 c 4
 0 371.39453125 7.892578125 229.412109375 93.2431640625 125.184570312 c 4
 154.440429688 50.4541015625 239.2421875 16 320.715820312 16 c 4
 478.969726562 16 622.461914062 139.3046875 622.461914062 303.409179688 c 4
 622.461914062 329.479492188 619.404296875 356.107421875 610.598632812 378.8046875 c 5
 725.631835938 377.758789062 761.094726562 374.806640625 762.615234375 374.806640625 c 4
 810.908203125 374.806640625 850.115234375 414.013671875 850.115234375 462.306640625 c 4
 850.115234375 508.802734375 813.76953125 546.877929688 767.963867188 549.645507812 c 4
 628.626953125 558.064453125 425.192382812 548.567382812 363.813476562 567.23828125 c 5
 349.596679688 576.805664062 332.37890625 582.327148438 314.427734375 582.327148438 c 4
 239.1796875 582.327148438 194.2265625 491.383789062 253.23828125 427.0859375 c 4
 290.733398438 386.232421875 361.732421875 370.485351562 420.743164062 335.026367188 c 4
 434.35546875 326.846679688 443.389648438 318.998046875 446.782226562 315.502929688 c 4
 455.176757812 239.66796875 382.8125 191 320.715820312 191 c 4
 203.141601562 191 175 343.8671875 175 420.333984375 c 4
 175 592.091796875 302.276367188 743.694335938 416.669921875 794.39453125 c 4
 442.881835938 806.01171875 465.891601562 810.635742188 480.84765625 810.635742188 c 4
EndSplineSet
Validated: 41
EndChar

StartChar: H
Encoding: 72 72 7
Width: 872
Flags: W
VStem: 2.29785 173.901<28.1375 413.471> 26.1387 151.796<611.817 979.289> 418.747 174.556<87.0435 373.603>
LayerCount: 2
Fore
SplineSet
453.387695312 457.595703125 m 1xa0
 448.834960938 419.999023438 418.747070312 170.0703125 418.747070312 148.903320312 c 0
 418.747070312 100.610351562 457.954101562 61.4033203125 506.247070312 61.4033203125 c 0
 551.548828125 61.4033203125 588.856445312 95.9052734375 593.302734375 140.04296875 c 0
 603.751953125 243.755859375 616.916015625 352.5390625 633.418945312 488.36328125 c 1
 678.58984375 518.231445312 686.157226562 581.491210938 649.223632812 621.071289062 c 1
 674.458984375 842.5625 669.631835938 886.69140625 643.025390625 922.612304688 c 0
 635.89453125 932.239257812 611.389648438 960.403320312 568.747070312 960.403320312 c 0
 503.369140625 960.403320312 461.225585938 890.92578125 490.80078125 833.130859375 c 1
 491.348632812 798.578125 484.342773438 724.658203125 474.575195312 637.262695312 c 1
 456.157226562 634.736328125 436.14453125 631.9140625 414.840820312 628.913085938 c 0
 350.541015625 619.854492188 274.563476562 609.168945312 198.783203125 600.321289062 c 1
 211.479492188 848.455078125 201.12109375 911.095703125 177.934570312 950.092773438 c 0
 172.78515625 958.754882812 165.325195312 969.235351562 152.540039062 979.294921875 c 0
 144.1015625 985.934570312 107.862304688 1011.04589844 60.740234375 994.471679688 c 0
 1.4130859375 973.604492188 -17.474609375 898.01171875 26.138671875 851.841796875 c 1x60
 42.4140625 690.745117188 -11.5537109375 217.993164062 2.2978515625 95.259765625 c 0
 5.5693359375 66.275390625 12.2666015625 52.1328125 18.6591796875 41.478515625 c 0
 33.9580078125 15.98046875 61.873046875 -1.09765625 93.74609375 -1.09765625 c 0
 154.286132812 -1.09765625 196.366210938 59.1240234375 176.19921875 115.736328125 c 1
 172.926757812 155.700195312 175.348632812 217.642578125 188.293945312 422.9921875 c 1
 275.478515625 432.568359375 353.624023438 443.561523438 453.387695312 457.595703125 c 1xa0
EndSplineSet
Validated: 41
EndChar

StartChar: I
Encoding: 73 73 8
Width: 961
Flags: W
HStem: 793.197 172.557<437.447 725.266> 829.666 165.621<21.761 140.762>
LayerCount: 2
Fore
SplineSet
261.307617188 777.240234375 m 1x40
 252.078125 732.557617188 203.282226562 388.08984375 266.80859375 238.018554688 c 0
 270.0625 230.331054688 280.708007812 205.3046875 301.706054688 186.0625 c 1
 299.51171875 185.9375 115.24609375 175.765625 82.279296875 173.822265625 c 0
 36.4130859375 171.118164062 0 133.015625 0 86.4755859375 c 0
 0 36.287109375 42.2802734375 -3.8447265625 92.720703125 -0.87109375 c 0
 129.188476562 1.279296875 170.020507812 3.515625 212.698242188 5.8525390625 c 0
 645.029296875 29.52734375 696.7734375 36.712890625 733.927734375 72.2158203125 c 0
 750.60546875 88.15234375 761 110.609375 761 135.475585938 c 0
 761 200.525390625 692.166015625 242.680664062 634.415039062 213.76953125 c 1
 599.951171875 206.693359375 524.755859375 200.278320312 443.28125 194.744140625 c 1
 470.545898438 232.965820312 462.764648438 286.249023438 425.030273438 315.060546875 c 1
 411.563476562 361.15234375 409.568359375 432.64453125 409.568359375 471.168945312 c 0
 409.568359375 544.5390625 416.28125 637.478515625 433.420898438 745.705078125 c 0
 434.129882812 750.18359375 434.989257812 757.82421875 434.159179688 767.243164062 c 1
 504.15625 769.134765625 583.276367188 777.358398438 677.140625 793.197265625 c 0
 718.473632812 800.171875 750 836.170898438 750 879.475585938 c 0
 750 933.543945312 701.283203125 974.76953125 647.859375 965.75390625 c 0x80
 363.3359375 917.741210938 250.139648438 949.31640625 115.811523438 995.287109375 c 0
 59.3681640625 1014.60351562 0 972.555664062 0 912.4765625 c 0
 0 874.08984375 24.771484375 841.444335938 59.1884765625 829.666015625 c 0
 122.817382812 807.889648438 187.094726562 788.537109375 261.307617188 777.240234375 c 1x40
EndSplineSet
Validated: 41
EndChar

StartChar: J
Encoding: 74 74 9
Width: 1193
Flags: W
HStem: 803.767 174.989<134.152 409.818 588.288 870.202>
VStem: 78.9297 170.141<249.742 341.698> 562.937 176.479<200.186 403.301>
LayerCount: 2
Fore
SplineSet
739.415039062 246.081054688 m 0
 739.415039062 373.052734375 673.010742188 585.418945312 588.288085938 802.969726562 c 1
 759.354492188 802.741210938 870.188476562 807.458984375 934.610351562 829.768554688 c 0
 968.87109375 841.6328125 993.5 874.201171875 993.5 912.4765625 c 0
 993.5 972.692382812 933.881835938 1014.74804688 877.389648438 995.184570312 c 0
 830.255859375 978.862304688 698.047851562 977.188476562 496.1484375 978.3828125 c 1
 487.346679688 983.309570312 451.319335938 1000.57421875 411.526367188 978.755859375 c 1
 193.986328125 979.0859375 97.4892578125 971.000976562 43.0927734375 938.870117188 c 0
 17.3095703125 923.640625 0 895.563476562 0 863.475585938 c 0
 0 795.834960938 73.9765625 753.862304688 131.907226562 788.081054688 c 1
 131.907226562 787.7578125 l 1
 178.151367188 803.24609375 331.310546875 803.766601562 399.60546875 803.766601562 c 1
 440.940429688 702.03125 512.690429688 514.6796875 546.486328125 368.3046875 c 0
 551.579101562 346.249023438 569.801757812 262.762695312 562.936523438 225.337890625 c 0
 562.012695312 220.298828125 560.595703125 216.969726562 554.200195312 211.157226562 c 0
 495.561523438 157.870117188 278.264648438 177.377929688 249.0703125 298.51953125 c 0
 239.817382812 336.9140625 205.217773438 365.475585938 164 365.475585938 c 0
 107.370117188 365.475585938 65.7001953125 312.329101562 78.9296875 257.431640625 c 0
 91.4833984375 205.33984375 135.13671875 96.35546875 284.6484375 38.4912109375 c 0
 338.275390625 17.736328125 395.005859375 7.9052734375 450.504882812 7.9052734375 c 0
 473.920898438 7.9052734375 590.896484375 8.0849609375 671.82421875 81.6279296875 c 0
 702.622070312 109.614257812 726.767578125 148.388671875 735.063476562 193.61328125 c 0
 738.283203125 211.166992188 739.415039062 228.48828125 739.415039062 246.081054688 c 0
EndSplineSet
Validated: 41
EndChar

StartChar: K
Encoding: 75 75 10
Width: 1003
Flags: W
VStem: 5.54395 174.956<636.962 1016.32>
LayerCount: 2
Fore
SplineSet
15.4580078125 447.282226562 m 5
 2.00390625 419.627929688 0 406.420898438 0 393.5 c 4
 0 367.970703125 10.9560546875 344.981445312 28.419921875 328.979492188 c 5
 40.1650390625 237.98828125 56.2294921875 144.858398438 77.3408203125 43.5810546875 c 4
 85.6181640625 3.87109375 120.848632812 -26 163.000976562 -26 c 4
 218.484375 -26 259.974609375 25.14453125 248.661132812 79.4189453125 c 4
 228.807617188 174.661132812 213.736328125 260.954101562 202.67578125 344.736328125 c 5
 240.931640625 320.651367188 286.64453125 293.659179688 335.54296875 264.706054688 c 4
 401.739257812 225.510742188 473.3046875 183.106445312 535.872070312 142.798828125 c 4
 585.817382812 110.622070312 630.166992188 79.482421875 659.588867188 54.630859375 c 4
 716.23046875 6.7890625 803.5 47.40625 803.5 121.5 c 4
 803.5 148.305664062 791.419921875 172.313476562 772.411132812 188.369140625 c 4
 695.977539062 252.928710938 580.50390625 323.041015625 424.515625 415.401367188 c 4
 328.709960938 472.127929688 306.568359375 485.973632812 286.790039062 498.625 c 5
 292.314453125 503.356445312 389.478515625 585.989257812 518.006835938 661.641601562 c 4
 553.2109375 682.36328125 585.083984375 698.454101562 603.192382812 705.384765625 c 5
 605.400390625 706.90234375 l 5
 658.254882812 699.266601562 705.5 740.3046875 705.5 793.5 c 4
 705.5 844.526367188 658.7265625 898.735351562 574.774414062 879.525390625 c 4
 545.3984375 872.803710938 509.768554688 857.203125 465.23046875 832.905273438 c 4
 365.279296875 778.376953125 246.9765625 694.139648438 179.146484375 636.828125 c 5
 174.206054688 790.721679688 180.5 951.818359375 180.5 955 c 4
 180.5 1003.29296875 141.29296875 1042.5 93 1042.5 c 4
 45.646484375 1042.5 7.02734375 1004.80175781 5.5439453125 957.805664062 c 4
 -0.888671875 753.981445312 1.7919921875 599.236328125 15.4580078125 447.282226562 c 5
EndSplineSet
Validated: 41
EndChar

StartChar: L
Encoding: -1 76 11
Width: 879
Flags: W
HStem: 57.1064 174.894<292.389 653.855>
LayerCount: 2
Fore
SplineSet
592 232 m 0
 587.897460938 232 383.788085938 223.709960938 183.534179688 193.453125 c 1
 194.147460938 340.377929688 218.358398438 724.276367188 195.528320312 875.736328125 c 0
 188.677734375 921.18359375 178.5859375 941.37890625 168.547851562 956.012695312 c 0
 158.061523438 971.299804688 131.173828125 1000 87.5 1000 c 0
 39.20703125 1000 0 960.79296875 0 912.5 c 0
 0 890.510742188 8.12890625 870.405273438 21.5419921875 855.02734375 c 1
 40.1494140625 745.142578125 25.30859375 392.625 0.4208984375 96.234375 c 0
 -4.5712890625 36.6708984375 49.7109375 -10.5732421875 107.7109375 2.3447265625 c 0
 119.549804688 4.9697265625 291.3828125 42.138671875 596.3515625 57.1064453125 c 0
 642.625976562 59.3779296875 679.5 97.6669921875 679.5 144.5 c 0
 679.5 192.79296875 640.29296875 232 592 232 c 0
EndSplineSet
Validated: 41
EndChar

StartChar: M
Encoding: 77 77 12
Width: 1229
Flags: W
VStem: 846.023 158.982<403.182 493.294> 856.715 172.68<20.236 438.557>
LayerCount: 2
Fore
SplineSet
371.819335938 74.73828125 m 0x80
 365.6328125 7.3125 435.109375 -42.28125 496.901367188 -13.8466796875 c 0
 512.28125 -6.7685546875 526.41796875 5.671875 535.43359375 20.34765625 c 0
 683.849609375 261.705078125 767.486328125 389.56640625 842.590820312 493.293945312 c 1
 844.935546875 417.884765625 845.516601562 352.295898438 846.0234375 295.129882812 c 0x80
 846.860351562 200.594726562 846.694335938 129.576171875 856.71484375 68.5947265625 c 0
 863.536132812 27.080078125 899.62109375 -4.634765625 943.0546875 -4.634765625 c 0
 996.962890625 -4.634765625 1038.15625 43.8115234375 1029.39453125 97.1357421875 c 0x40
 1014.33691406 188.771484375 1029.72558594 403.181640625 1005.00585938 738.305664062 c 0
 1001.89648438 780.786132812 966.498046875 820.221679688 916.721679688 820.221679688 c 0
 892.147460938 820.221679688 865.16015625 808.994140625 847.485351562 786.81640625 c 0
 748.81640625 662.923828125 679.561523438 572.544921875 563.896484375 394.446289062 c 1
 564.8671875 585.284179688 546.875976562 754.362304688 512.864257812 928.002929688 c 0
 504.250976562 972.077148438 464.984375 999.44140625 426 999.44140625 c 0
 399.904296875 999.44140625 371.70703125 986.676757812 354.444335938 962.96875 c 0
 230.302734375 792.387695312 126.095703125 533.236328125 4.5224609375 168.520507812 c 0
 -14.2548828125 112.19140625 27.76953125 53.365234375 87.5546875 53.365234375 c 0
 126.184570312 53.365234375 159.000976562 78.4521484375 170.586914062 113.209960938 c 0
 251.154296875 354.909179688 314.048828125 520.349609375 377.172851562 652.787109375 c 1
 394.8671875 474.80859375 392.22265625 296.99609375 371.819335938 74.73828125 c 0x80
EndSplineSet
Validated: 41
EndChar

StartChar: N
Encoding: 78 78 13
Width: 1161
Flags: W
VStem: 224.782 173.246<839.041 974.302> 788.678 170.645<748.305 899.873>
LayerCount: 2
Fore
SplineSet
524.836914062 53.1845703125 m 0
 542.653320312 3.947265625 600.87890625 -20.0888671875 648.643554688 4.5703125 c 0
 665.338867188 13.189453125 680.557617188 28.599609375 688.819335938 46.8935546875 c 0
 830.138671875 359.760742188 888.383789062 505.373046875 959.322265625 817.086914062 c 0
 971.758789062 871.733398438 930.16015625 924.055664062 874 924.055664062 c 0
 832.3984375 924.055664062 797.538085938 894.959960938 788.677734375 856.024414062 c 0
 737.848632812 632.676757812 695.614257812 502.1796875 613.692382812 309.935546875 c 1
 601.655273438 339.590820312 590.129882812 367.40625 578.998046875 394.26953125 c 0
 516.609375 544.840820312 466.850585938 663.979492188 398.028320312 933.375976562 c 0
 383.28125 990.982421875 315.350585938 1019.28808594 263.875976562 985.657226562 c 0
 245.685546875 973.772460938 229.0546875 952.859375 224.782226562 925.139648438 c 0
 199.486328125 760.737304688 160.62890625 573.131835938 120.98046875 428.450195312 c 0
 108.928710938 384.470703125 75.3251953125 267.264648438 47.2578125 220.259765625 c 1
 19.19140625 205.681640625 0 176.341796875 0 142.555664062 c 0
 0 64.8974609375 96.7021484375 19.388671875 167.368164062 90.4453125 c 0
 196.9375 120.177734375 229.028320312 175.790039062 273.893554688 326.4765625 c 0
 293.512695312 392.368164062 312.8671875 467.91796875 330.919921875 547.397460938 c 1
 392.177734375 375.248046875 445.80859375 272.130859375 524.836914062 53.1845703125 c 0
EndSplineSet
Validated: 41
EndChar

StartChar: O
Encoding: 79 79 14
Width: 1217
VWidth: 1000
Flags: W
HStem: -20.3486 175<377.649 621.316>
VStem: 0 175<352.112 617.401> 842 175<370.073 602.568>
LayerCount: 2
Fore
SplineSet
538.774414062 829.940429688 m 1
 645.569335938 794.557617188 842 683.948242188 842 484 c 0
 842 310.953125 672.543945312 154.651367188 499.39453125 154.651367188 c 0
 340.97265625 154.651367188 175 278.083007812 175 484 c 0
 175 568.126953125 200.357421875 630.0546875 236.224609375 678.571289062 c 0
 276.203125 732.649414062 331.932617188 770.87890625 381.333984375 793.3203125 c 0
 391.330078125 797.862304688 421.588867188 810.928710938 448.631835938 815.59765625 c 1
 456.625 812.293945312 499.930664062 796.767578125 538.774414062 829.940429688 c 1
499.39453125 -20.3486328125 m 0
 771.720703125 -20.3486328125 1017 215.612304688 1017 484 c 0
 1017 866.509765625 565.275390625 1057.87304688 399.768554688 1016.95117188 c 0
 371.580078125 1009.98144531 338.255859375 994.267578125 323.354492188 958.983398438 c 1
 262.330078125 933.262695312 168.08203125 880.744140625 95.4169921875 782.451171875 c 0
 39.1533203125 706.345703125 0 606.073242188 0 484 c 0
 0 184.282226562 241.279296875 -20.3486328125 499.39453125 -20.3486328125 c 0
EndSplineSet
Validated: 41
EndChar

StartChar: P
Encoding: 80 80 15
Width: 871
Flags: W
HStem: 831.896 180.104<239.654 442.817>
VStem: 110.658 164.684<9.89146 141.873>
LayerCount: 2
Fore
SplineSet
0 888.94140625 m 0
 0 850.272460938 25.1376953125 817.428710938 59.94921875 805.874023438 c 1
 47.19140625 714.044921875 26.37109375 492.219726562 69.7783203125 222.536132812 c 0
 81.79296875 147.888671875 95.5732421875 89.13671875 110.658203125 47.294921875 c 0
 122.815429688 13.5751953125 155.111328125 -10.55859375 193 -10.55859375 c 0
 253.682617188 -10.55859375 295.770507812 49.92578125 275.341796875 106.587890625 c 0
 265.35546875 134.286132812 241.034179688 225.079101562 227.326171875 371.374023438 c 1
 235.298828125 364.6875 267.549804688 341.07421875 310.814453125 355.296875 c 0
 415.859375 389.829101562 551.682617188 449.453125 623.807617188 551.92578125 c 0
 653.409179688 593.982421875 677.6875 652.205078125 670.52734375 721.079101562 c 0
 664.682617188 777.307617188 646.198242188 841.892578125 599.513671875 897.755859375 c 0
 551.435546875 955.287109375 465.521484375 1012 313.580078125 1012 c 0
 241.98046875 1012 160.134765625 999.78125 64.1953125 973.298828125 c 0
 27.2001953125 963.086914062 0 929.165039062 0 888.94140625 c 0
241.256835938 831.896484375 m 1
 322.001953125 842.459960938 419.059570312 840.831054688 465.180664062 785.642578125 c 0
 495.204101562 749.716796875 496.795898438 698.24609375 496.795898438 696.654296875 c 0
 496.795898438 644.125976562 419.15625 575.162109375 256.185546875 521.587890625 c 0
 242.001953125 516.924804688 229.4140625 508.73046875 219.463867188 498.046875 c 1
 217.326171875 568.453125 217.135742188 696.3984375 241.256835938 831.896484375 c 1
EndSplineSet
Validated: 41
EndChar

StartChar: Q
Encoding: 81 81 16
Width: 1197
Flags: W
HStem: -1.0127 175<375.846 616.86>
VStem: 0.280273 174.916<378.533 641.751> 822.801 175<387.791 585.862>
LayerCount: 2
Fore
SplineSet
175.196289062 505.20703125 m 0
 171.071289062 640.052734375 226.077148438 725.8203125 377.747070312 779.077148438 c 0
 377.880859375 779.077148438 378.014648438 779.065429688 378.1484375 779.059570312 c 0
 530.634765625 772.89453125 635.991210938 735.623046875 704.109375 688.975585938 c 0
 742.158203125 662.918945312 822.80078125 594.872070312 822.80078125 486.1640625 c 0
 822.80078125 467.336914062 818.079101562 406.151367188 763.59765625 327.708007812 c 1
 709.740234375 375.947265625 648.95703125 414.19921875 582.271484375 437.221679688 c 0
 525.791992188 456.721679688 466.23828125 414.666992188 466.23828125 354.487304688 c 0
 466.23828125 316.18359375 490.904296875 283.594726562 525.205078125 271.752929688 c 0
 561.954101562 259.065429688 598.904296875 237.635742188 634.370117188 208.143554688 c 1
 594.904296875 186.248046875 553.225585938 173.987304688 512.739257812 173.987304688 c 0
 423.092773438 173.987304688 184.19921875 210.95703125 175.196289062 505.20703125 c 0
997.80078125 486.1640625 m 0
 997.80078125 644.114257812 897.224609375 824.346679688 651.619140625 907.860351562 c 1
 654.53515625 963.745117188 604.993164062 1007.89160156 549.932617188 998.8203125 c 0
 407.981445312 975.43359375 200.20703125 936.428710938 83.9345703125 785.547851562 c 0
 37.6689453125 725.51171875 -3.8212890625 633.823242188 0.2802734375 499.767578125 c 0
 10.90625 152.454101562 268.954101562 -1.0126953125 512.739257812 -1.0126953125 c 0
 600.971679688 -1.0126953125 681.392578125 28.5947265625 749.78125 73.318359375 c 1
 770.624023438 40.3154296875 789.4765625 4.3662109375 805.6875 -33.7197265625 c 0
 819.016601562 -65.0341796875 850.081054688 -87.0126953125 886.23828125 -87.0126953125 c 0
 949.00390625 -87.0126953125 991.176757812 -22.6015625 966.7890625 34.6943359375 c 0
 942.89453125 90.83203125 914.124023438 143.948242188 880.920898438 192.551757812 c 1
 916.26171875 236.109375 997.80078125 351.23046875 997.80078125 486.1640625 c 0
EndSplineSet
Validated: 41
EndChar

StartChar: R
Encoding: 82 82 17
Width: 1013
Flags: W
HStem: -12.2002 173.355<655.381 788.302> 837.478 175<294.345 512.744>
VStem: 3.85938 174.983<12.6177 74.4775 110.498 362.254> 534.841 175<666.426 816.158>
LayerCount: 2
Fore
SplineSet
429.340820312 837.477539062 m 0
 456.875976562 837.477539062 492.127929688 833.525390625 510.435546875 815.602539062 c 0
 517.741210938 808.451171875 534.840820312 787.876953125 534.840820312 720.977539062 c 0
 534.840820312 704.162109375 534.840820312 663.1953125 443.775390625 631.341796875 c 0
 385.916015625 611.103515625 298.287109375 598.602539062 187.743164062 598 c 1
 207.555664062 742.232421875 250.08203125 788.189453125 292.638671875 810.875976562 c 0
 321.938476562 826.495117188 365.250976562 837.477539062 429.340820312 837.477539062 c 0
178.842773438 74.4775390625 m 0
 178.842773438 120.047851562 174.419921875 228.625976562 175.059570312 363.278320312 c 1
 219.205078125 311.024414062 343.342773438 172.426757812 492.259765625 77.626953125 c 0
 560.659179688 34.083984375 634.567382812 -1.28125 713.809570312 -12.2001953125 c 0
 766.497070312 -19.4599609375 813.342773438 21.51953125 813.342773438 74.4775390625 c 0
 813.342773438 118.6875 780.483398438 155.284179688 737.875976562 161.155273438 c 0
 628.997070312 176.158203125 477.01953125 291.399414062 347.669921875 432.090820312 c 1
 514.89453125 452.448242188 619.62890625 507.119140625 672.31640625 589.372070312 c 0
 697.247070312 628.291015625 709.840820312 673.875 709.840820312 720.977539062 c 0
 709.840820312 776.796875 702.65234375 872.278320312 632.82421875 940.638671875 c 0
 590.506835938 982.067382812 526.3828125 1012.47753906 429.340820312 1012.47753906 c 0
 290.236328125 1012.47753906 124.282226562 974.067382812 49.548828125 771.459960938 c 0
 -6.7626953125 618.793945312 -2.544921875 402.083007812 3.1298828125 110.498046875 c 0
 3.3720703125 98.046875 3.6162109375 85.4736328125 3.859375 72.77734375 c 0
 4.765625 25.2685546875 43.6181640625 -13.0224609375 91.3427734375 -13.0224609375 c 0
 139.635742188 -13.0224609375 178.842773438 26.1845703125 178.842773438 74.4775390625 c 0
EndSplineSet
Validated: 41
EndChar

StartChar: S
Encoding: -1 83 18
Width: 733
Flags: W
LayerCount: 2
Fore
SplineSet
406.450195312 833.8515625 m 1
 464.232421875 804.4921875 533.5 846.639648438 533.5 911.911132812 c 0
 533.5 939.284179688 520.903320312 963.739257812 501.1953125 979.7890625 c 0
 412.42578125 1052.08007812 260.578125 978.69140625 172.916992188 901.231445312 c 0
 144.998046875 876.5625 63.0576171875 799.640625 63.0576171875 695.680664062 c 0
 63.0576171875 629.798828125 96.0068359375 529.708007812 273.563476562 468.643554688 c 0
 280.532226562 466.24609375 341.254882812 444.834960938 354.02734375 422.157226562 c 0
 359.462890625 412.506835938 343.920898438 377.635742188 298.671875 332.189453125 c 0
 243.754882812 277.03515625 151.985351562 212.775390625 44.859375 152.8203125 c 0
 18.103515625 137.845703125 0 109.225585938 0 76.41015625 c 0
 0 9.64453125 72.2275390625 -32.412109375 130.140625 0 c 0
 486.288085938 199.32421875 530.221679688 340.370117188 530.221679688 417.9140625 c 0
 530.221679688 455.7109375 518.448242188 514.091796875 458.29296875 565.67578125 c 0
 423.76171875 595.287109375 381.245117188 616.705078125 330.436523438 634.178710938 c 0
 317.50390625 638.626953125 254.569335938 661.40625 240.090820312 688.224609375 c 0
 226.338867188 713.698242188 291.055664062 787.913085938 370.038085938 822.30859375 c 0
 377.154296875 825.408203125 393.137695312 831.895507812 406.450195312 833.8515625 c 1
EndSplineSet
Validated: 41
EndChar

StartChar: T
Encoding: 84 84 19
Width: 956
Flags: W
HStem: 779.555 167.221<559.569 783.457> 824.999 173.813<29.8607 371.056>
LayerCount: 2
Fore
SplineSet
415.5 -0.1923828125 m 0x40
 473.8828125 -0.1923828125 515.772460938 56.078125 499.514648438 111.819335938 c 0
 417.98046875 391.365234375 448.276367188 582.124023438 555.640625 757.1484375 c 0
 559.87109375 764.044921875 563.172851562 771.572265625 565.37109375 779.5546875 c 1
 709.21875 765.438476562 743.11328125 770.637695312 773.842773438 795.220703125 c 0
 791.06640625 809 808 833.405273438 808 865.307617188 c 0
 808 927.04296875 745.541992188 969.186523438 688.534179688 946.775390625 c 1x80
 571.724609375 946.775390625 188.146484375 1008.65527344 92.1005859375 998.8125 c 0
 68.123046875 996.35546875 49.8759765625 989.934570312 32.8818359375 975.869140625 c 0
 17.8349609375 963.415039062 0 939.573242188 0 906.807617188 c 0
 0 845.47265625 61.7041015625 803.34765625 118.5859375 824.999023438 c 1
 156.3671875 824.999023438 250.0625 815.33203125 378.782226562 800.447265625 c 1
 247.97265625 556.237304688 258.651367188 312.51171875 331.485351562 62.7958984375 c 0
 342.095703125 26.41796875 375.71484375 -0.1923828125 415.5 -0.1923828125 c 0x40
EndSplineSet
Validated: 41
EndChar

StartChar: U
Encoding: 85 85 20
Width: 1054
Flags: W
HStem: 5.5 175<262.633 423.582>
VStem: 28.5801 216.752<850.475 925.818> 642.331 196.224<786.487 888.642>
LayerCount: 2
Fore
SplineSet
673.258789062 781.767578125 m 1
 699.619140625 701.671875 651.51171875 419.041992188 506.645507812 268.573242188 c 0
 452.127929688 211.947265625 391.290039062 180.5 318.331054688 180.5 c 0
 303.010742188 180.5 278.428710938 182.927734375 251.276367188 220.068359375 c 0
 234.459960938 243.072265625 175.16015625 341.016601562 175.16015625 578.58984375 c 0
 175.16015625 581.45703125 175.295898438 755.836914062 207.571289062 840.520507812 c 1
 230.380859375 856.3203125 245.33203125 882.677734375 245.33203125 912.5 c 0
 245.33203125 960.79296875 206.125 1000 157.83203125 1000 c 0
 66.8017578125 1000 38.8681640625 894.040039062 28.580078125 852.51171875 c 0
 -16.3642578125 671.094726562 -35.7470703125 186.966796875 185.502929688 44.2060546875 c 0
 223.641601562 19.5966796875 269.397460938 5.5 318.331054688 5.5 c 0
 447.725585938 5.5 554.147460938 65.6435546875 632.70703125 147.241210938 c 0
 818.005859375 339.705078125 890.53515625 688.78515625 838.5546875 839.532226562 c 0
 833.7421875 853.489257812 817.651367188 898.359375 774.098632812 923.9765625 c 0
 716.16796875 958.05078125 642.331054688 916.071289062 642.331054688 848.5 c 0
 642.331054688 821.76953125 654.342773438 797.823242188 673.258789062 781.767578125 c 1
EndSplineSet
Validated: 41
EndChar

StartChar: V
Encoding: 86 86 21
Width: 1103
Flags: W
LayerCount: 2
Fore
SplineSet
164.541992188 946.194335938 m 4
 88.5029296875 997.717773438 0 953.870117188 0 879.467773438 c 4
 0 829.640625 41.6953125 789.65234375 91.783203125 792.071289062 c 5
 77.6318359375 787.135742188 l 5
 96.5498046875 760.3671875 124.760742188 707.661132812 164.455078125 610.676757812 c 4
 204.62890625 512.520507812 245.727539062 395.774414062 281.259765625 294.70703125 c 4
 347.86328125 105.260742188 366.1484375 56.17578125 393.807617188 27.7861328125 c 4
 431.35546875 -10.7548828125 489.82421875 -10.8330078125 527.490234375 28 c 4
 556.99609375 58.4189453125 576.981445312 117.428710938 638.9296875 304.47265625 c 4
 681.305664062 432.421875 732.213867188 585.583007812 780.640625 699.342773438 c 4
 793.587890625 729.755859375 832.4140625 817.669921875 859.059570312 843.29296875 c 5
 885.5859375 858.331054688 903.5 886.823242188 903.5 919.466796875 c 4
 903.5 985.0234375 833.671875 1027.15722656 775.85546875 997.221679688 c 4
 723.081054688 969.896484375 677.590820312 904.124023438 619.541992188 767.762695312 c 4
 569.255859375 649.63671875 532.7265625 539.75 458.818359375 317.427734375 c 5
 385.905273438 524.27734375 342.716796875 646.798828125 289.666015625 762.107421875 c 4
 247.754882812 853.201171875 210.270507812 915.209960938 164.541992188 946.194335938 c 4
EndSplineSet
Validated: 41
EndChar

StartChar: W
Encoding: 87 87 22
Width: 1190
Flags: W
VStem: 0 186.777<857.305 971.007>
LayerCount: 2
Fore
SplineSet
136.875976562 122.65234375 m 0
 143.478515625 54.96484375 223.657226562 15.2099609375 288.263671875 66.2451171875 c 0
 328.177734375 97.7744140625 373.82421875 173.416992188 488.760742188 396.107421875 c 1
 513.947265625 261.369140625 531.53125 98.0927734375 533.599609375 78.7099609375 c 0
 538.061523438 37.146484375 572.762695312 -0.3720703125 621.60546875 -0.3720703125 c 0
 657.603515625 -0.3720703125 689.989257812 21.732421875 703.458007812 54.787109375 c 0
 712.064453125 75.9580078125 926.692382812 602.225585938 1071.88964844 787.3984375 c 0
 1116.70117188 844.547851562 1075.66210938 928.82421875 1002.99804688 928.82421875 c 0
 975.041015625 928.82421875 950.129882812 915.684570312 934.106445312 895.25 c 0
 842.125 777.944335938 736.473632812 561.872070312 664.999023438 405.91015625 c 1
 637.803710938 560.598632812 615.608398438 611.1953125 599.370117188 637.614257812 c 0
 594.225585938 645.939453125 570.432617188 679.82421875 523.951171875 679.82421875 c 2
 496.5 679.82421875 l 2
 474.336914062 679.82421875 445.470703125 672.200195312 422.008789062 640.166015625 c 0
 410.3046875 624.185546875 400.685546875 607.122070312 343.608398438 496.47265625 c 0
 325.228515625 460.840820312 305.05078125 421.737304688 284.909179688 383.662109375 c 1
 233.431640625 824.661132812 201.102539062 903.500976562 186.77734375 933.469726562 c 0
 181.6015625 944.296875 175.763671875 956.346679688 161.068359375 971.01171875 c 0
 99.3515625 1032.60351562 0 988.33984375 0 910.32421875 c 0
 0 881.715820312 13.759765625 856.295898438 35.015625 840.326171875 c 1
 84.1708984375 673.853515625 136.186523438 129.868164062 136.875976562 122.65234375 c 0
EndSplineSet
Validated: 41
EndChar

StartChar: X
Encoding: 88 88 23
Width: 1031
Flags: W
LayerCount: 2
Fore
SplineSet
155.817382812 886.15234375 m 0
 74.91015625 931.296875 0 878.958984375 0 813 c 0
 0 767.137695312 35.3603515625 729.469726562 80.2822265625 725.793945312 c 1
 99.5390625 709.294921875 157.78515625 653.200195312 262.607421875 494.65234375 c 1
 172.443359375 364.249023438 76.8671875 213.098632812 58.353515625 134.45703125 c 0
 36.978515625 43.6572265625 101.282226562 -1.5 150.5 -1.5 c 0
 209.142578125 -1.5 251.061523438 55.240234375 234.340820312 111.098632812 c 1
 236.977539062 116.557617188 l 2
 245.67578125 136.521484375 276.688476562 201.079101562 363.642578125 331.888671875 c 1
 405.287109375 260.799804688 448.696289062 181.791015625 492.487304688 95.8583984375 c 0
 506.956054688 67.46484375 536.47265625 48 570.5 48 c 0
 635.814453125 48 677.9609375 117.353515625 648.512695312 175.141601562 c 0
 588.552734375 292.803710938 529.298828125 398.102539062 473.3828125 489.3671875 c 1
 493.853515625 517.530273438 597.865234375 660.479492188 700.139648438 775.6796875 c 0
 740.40234375 821.030273438 776.352539062 856.807617188 798.66796875 874.696289062 c 0
 818.678710938 890.73828125 831.5 915.383789062 831.5 943 c 0
 831.5 1016.08496094 746.34375 1057.00683594 689.33203125 1011.30371094 c 0
 599.045898438 938.924804688 465.73828125 772.319335938 371.4375 646.017578125 c 1
 291.341796875 761.139648438 214.327148438 853.505859375 155.817382812 886.15234375 c 0
EndSplineSet
Validated: 41
EndChar

StartChar: Y
Encoding: 89 89 24
Width: 1081
Flags: W
VStem: 139.133 175.604<-3.83138 95.5273>
LayerCount: 2
Fore
SplineSet
139.1328125 68.2529296875 m 0
 139.1328125 -5.064453125 191.344726562 -31.4990234375 228.5 -31.4990234375 c 0
 282.672851562 -31.4990234375 323.918945312 17.3955078125 314.736328125 70.8857421875 c 1
 320.387695312 95.52734375 l 1
 330.7265625 131.55078125 353.5078125 190.041015625 385.432617188 258.07421875 c 0
 425.438476562 343.330078125 479.850585938 444.658203125 543.045898438 545.57421875 c 0
 634.068359375 690.926757812 743.97265625 835.368164062 851.612304688 931.10546875 c 0
 869.637695312 947.137695312 881 970.501953125 881 996.5 c 0
 881 1044.79296875 841.79296875 1084 793.5 1084 c 0
 771.205078125 1084 750.846679688 1075.64355469 735.387695312 1061.89453125 c 0
 683.419921875 1015.67285156 571.314453125 907.905273438 430.602539062 694.328125 c 1
 361.870117188 781.703125 269.610351562 879.236328125 141.138671875 979.116210938 c 0
 83.9404296875 1023.58496094 0 982.502929688 0 910 c 0
 0 881.913085938 13.2626953125 856.8984375 33.861328125 840.883789062 c 0
 178.059570312 728.77734375 268.299804688 623.943359375 332.15625 533.943359375 c 1
 296.0234375 470.754882812 139.1328125 187.235351562 139.1328125 68.2529296875 c 0
EndSplineSet
Validated: 41
EndChar

StartChar: Z
Encoding: 90 90 25
Width: 1108
Flags: W
HStem: 826.534 165.253<35.594 447.88>
LayerCount: 2
Fore
SplineSet
0 892.831054688 m 0
 0 818.341796875 88.103515625 777.852539062 144.581054688 826.534179688 c 1
 226.686523438 841.6875 444.58984375 838.529296875 588.646484375 819.595703125 c 1
 511.763671875 694.384765625 311.057617188 478.454101562 170.29296875 327.342773438 c 0
 37.740234375 185.046875 15.0576171875 159.9140625 4.8583984375 129.716796875 c 0
 -9.1259765625 88.3115234375 6.2939453125 27.123046875 76.357421875 9.2880859375 c 0
 156.79296875 -11.185546875 453.282226562 3.8115234375 640.357421875 33.2802734375 c 0
 769.213867188 53.5791015625 829.208007812 76.087890625 864.4453125 104.834960938 c 0
 879.834960938 117.390625 908 146.251953125 908 189.331054688 c 0
 908 237.624023438 868.79296875 276.831054688 820.5 276.831054688 c 0
 790.153320312 276.831054688 763.39453125 261.348632812 747.697265625 237.859375 c 1
 679.869140625 208.739257812 466.21484375 182.041992188 268.455078125 176.004882812 c 1
 435.34765625 355.49609375 537.052734375 464.87890625 634.065429688 585.32421875 c 0
 757.112304688 738.090820312 788.127929688 809.616210938 788.127929688 864.419921875 c 0
 788.127929688 882.930664062 784.354492188 905.756835938 770.544921875 927.71875 c 0
 761.344726562 942.3515625 739.797851562 968.291015625 698.6328125 978 c 0
 554.852539062 1011.91015625 196.026367188 1025.61230469 83.810546875 991.787109375 c 0
 72.6669921875 988.428710938 61.0009765625 984.528320312 46.3779296875 975.081054688 c 0
 32.4755859375 966.098632812 0 940.411132812 0 892.831054688 c 0
EndSplineSet
Validated: 41
EndChar

StartChar: t
Encoding: 116 116 26
Width: 784
Flags: W
HStem: 541.416 179.917<42.8879 170.84 360.075 486.662>
LayerCount: 2
Fore
SplineSet
341.665039062 859.334960938 m 0
 341.665039062 894.48046875 343 922.36328125 343 923 c 0
 343 971.29296875 303.79296875 1010.5 255.5 1010.5 c 0
 208.599609375 1010.5 170.268554688 973.521484375 168.096679688 927.154296875 c 0
 165.662109375 875.168945312 166.182617188 802.849609375 170.83984375 716.837890625 c 1
 158.169921875 717.310546875 137.107421875 718.528320312 124.436523438 721.333007812 c 0
 66.85546875 748.213867188 0 706.03515625 0 642 c 0
 0 608.995117188 18.3125 580.234375 45.3232421875 565.33203125 c 0
 64.4873046875 554.758789062 96.6083984375 542.627929688 184.834960938 541.416015625 c 1
 199.333007812 403.34765625 229.2109375 197.459960938 283.947265625 83.953125 c 0
 292.640625 65.92578125 302.353515625 48.9326171875 314.958007812 32.765625 c 0
 330.975585938 12.2216796875 355.956054688 -1 384 -1 c 0
 456.556640625 -1 497.624023438 83.0517578125 453.041992188 140.234375 c 0
 450.551757812 143.427734375 438.186523438 160.45703125 422.188476562 210.462890625 c 0
 399.26953125 282.100585938 376.354492188 398.180664062 360.075195312 549.71484375 c 1
 437.072265625 557.381835938 549.640625 573.34765625 609.452148438 604.291992188 c 0
 623.1796875 611.39453125 671 636.135742188 671 691.5 c 0
 671 764.8984375 585.188476562 805.73046875 528.28515625 759.361328125 c 1
 503.483398438 748.092773438 438.926757812 733.645507812 345.814453125 724.2734375 c 1
 343.069335938 773.576171875 341.665039062 819.603515625 341.665039062 859.334960938 c 0
EndSplineSet
Validated: 41
EndChar

StartChar: .notdef
Encoding: 256 -1 27
Width: 1240
Flags: W
HStem: 121.697 181.5<450.057 573.777> 697.197 175<450.042 592.501> 881.028 161.546<493.759 848.378>
VStem: 241.279 175.576<589.537 662.958> 424.417 175<147.337 209.197 215.697 277.557 333.337 395.197 423.479 429.692> 855.45 153.779<148.961 473.778 517.686 849.34>
LayerCount: 2
Fore
SplineSet
241.279296875 657.330078125 m 0
 241.279296875 590.643554688 290.770507812 562.697265625 329.416992188 562.697265625 c 0
 376.599609375 562.697265625 415.110351562 600.124023438 416.85546875 646.8828125 c 1
 438.9609375 671.45703125 493.734375 697.197265625 527.416992188 697.197265625 c 0
 543.163085938 697.197265625 586.825195312 685.241210938 610.353515625 655.678710938 c 0
 617.09765625 647.205078125 624.984375 633.451171875 623.876953125 616.333007812 c 1
 609.325195312 605.248046875 580.234375 598.4296875 549.276367188 591.724609375 c 0
 508.80078125 582.95703125 473.385742188 575.28515625 447.209960938 544.040039062 c 0
 434.947265625 529.40234375 424.416992188 506.405273438 424.416992188 481.697265625 c 2
 424.416992188 395.197265625 l 2
 424.416992188 346.904296875 463.624023438 307.697265625 511.916992188 307.697265625 c 0
 560.209960938 307.697265625 599.416992188 346.904296875 599.416992188 395.197265625 c 2
 599.416992188 423.478515625 l 1
 651.326171875 434.755859375 734.080078125 456.62109375 775.909179688 528.979492188 c 0
 790.953125 555.002929688 798.916992188 585.868164062 798.916992188 617.697265625 c 0
 798.916992188 775.756835938 647.1953125 872.197265625 527.416992188 872.197265625 c 0
 409.161132812 872.197265625 241.279296875 777.813476562 241.279296875 657.330078125 c 0
599.416992188 215.697265625 m 2
 599.416992188 263.990234375 560.209960938 303.197265625 511.916992188 303.197265625 c 0
 463.624023438 303.197265625 424.416992188 263.990234375 424.416992188 215.697265625 c 2
 424.416992188 209.197265625 l 2
 424.416992188 160.904296875 463.624023438 121.697265625 511.916992188 121.697265625 c 0
 560.209960938 121.697265625 599.416992188 160.904296875 599.416992188 209.197265625 c 2
 599.416992188 215.697265625 l 2
241.916992188 869.197265625 m 0
 244.833007812 869.197265625 405.619140625 881.028320312 533.275390625 881.028320312 c 0
 628.080078125 881.028320312 706.116210938 876.194335938 855.3203125 866.950195312 c 1
 825.358398438 576.751953125 829.07421875 385.712890625 855.450195312 123.416015625 c 1
 636.897460938 115.149414062 460.357421875 111.463867188 181.938476562 123.088867188 c 1
 185.852539062 182.514648438 190.73046875 245.75390625 195.66015625 309.567382812 c 0
 213.698242188 543.08203125 230.560546875 762.844726562 209.3359375 875.473632812 c 1
 219.408203125 871.42578125 230.404296875 869.197265625 241.916992188 869.197265625 c 0
157.830078125 980.958007812 m 1
 89.279296875 1040.16503906 1.9169921875 994.231445312 1.9169921875 920.697265625 c 0
 1.9169921875 892.84375 14.9599609375 868.01171875 35.2666015625 851.982421875 c 1
 53.3466796875 775.631835938 42.025390625 592.998046875 21.1845703125 323.208984375 c 0
 19.7548828125 304.69140625 1.96484375 73.9599609375 1.96484375 40.62890625 c 0
 1.96484375 -9.8818359375 42.611328125 -45.6318359375 86.1171875 -47.748046875 c 0
 251.306640625 -55.783203125 381.208984375 -59.2919921875 506.836914062 -59.2919921875 c 0
 647.4609375 -59.2919921875 782.198242188 -54.908203125 954.91015625 -47.7705078125 c 0
 1003.13964844 -45.8349609375 1039.80175781 -6.4208984375 1039.80175781 40.6669921875 c 0
 1039.80175781 63.69921875 1009.22949219 271.083984375 1009.22949219 497.977539062 c 0
 1009.22949219 726.174804688 1039.79785156 925.247070312 1039.79785156 947.745117188 c 0
 1039.79785156 995.82421875 1002.10644531 1033.39648438 956.604492188 1036.10546875 c 0
 918.071289062 1038.39941406 883.098632812 1040.56835938 850.765625 1042.57421875 c 0
 616.137695312 1057.12695312 520.689453125 1063.046875 236 1044 c 0
 198.739257812 1041.50683594 167.833007812 1015.64355469 157.830078125 980.958007812 c 1
EndSplineSet
Validated: 41
EndChar

StartChar: e
Encoding: 101 101 28
Width: 770
Flags: W
HStem: 561.619 175<221.978 386.408>
VStem: 0 177.798<338.308 513.096>
LayerCount: 2
Fore
SplineSet
304.655273438 561.619140625 m 0
 370.490234375 561.619140625 409.625 525.655273438 409.625 494.6953125 c 0
 409.625 458.189453125 353.106445312 392.575195312 177.797851562 337.310546875 c 1
 168.557617188 415.313476562 182.411132812 514.173828125 232.58984375 544.637695312 c 0
 247.862304688 553.91015625 274.865234375 561.619140625 304.655273438 561.619140625 c 0
530.368164062 347.125 m 0
 664.036132812 517.251953125 535.588867188 736.619140625 304.655273438 736.619140625 c 0
 270.720703125 736.619140625 202.87109375 731.3203125 141.958984375 694.338867188 c 0
 90.6923828125 663.213867188 56.642578125 616.564453125 35.5087890625 568.861328125 c 0
 8.998046875 509.020507812 0 444.696289062 0 384 c 0
 0 338.961914062 5.0615234375 295.802734375 14.4375 256.672851562 c 1
 -3.384765625 211.541015625 19.1552734375 160.372070312 64.4052734375 142.915039062 c 1
 73.4384765625 131.5390625 131.327148438 62.3134765625 229.291015625 26.5859375 c 0
 304.624023438 -0.8876953125 428.591796875 -18.4501953125 594.440429688 51.40625 c 0
 625.915039062 64.6640625 648.03515625 95.8115234375 648.03515625 132.084960938 c 0
 648.03515625 194.709960938 583.890625 236.881835938 526.629882812 212.763671875 c 0
 466.578125 187.46875 373.198242188 160.788085938 289.965820312 190.768554688 c 1
 394.817382812 230.224609375 478.6953125 281.357421875 530.368164062 347.125 c 0
EndSplineSet
Validated: 41
EndChar

StartChar: s
Encoding: 115 115 29
Width: 640
Flags: W
HStem: 552.503 184.86<204.185 402.02>
LayerCount: 2
Fore
SplineSet
340.661132812 203.403320312 m 1
 297.560546875 177.732421875 209.149414062 167.5859375 156.25390625 180.951171875 c 0
 144.90625 183.818359375 137.905273438 187.528320312 136.6875 188.358398438 c 0
 78.9443359375 227.70703125 0 186.0859375 0 116 c 0
 0 85.9384765625 15.1923828125 59.3974609375 38.3125 43.6416015625 c 0
 140.598632812 -26.0615234375 348.381835938 -7.9423828125 447.939453125 64.73828125 c 0
 473.485351562 83.3876953125 525.892578125 131.557617188 516.828125 207.956054688 c 0
 506.672851562 293.548828125 479.3671875 352.512695312 381.017578125 391.291992188 c 0
 302.981445312 422.0625 238.74609375 425.301757812 203.35546875 450.115234375 c 0
 188.21484375 460.731445312 184.291015625 469.39453125 187.951171875 488.59765625 c 0
 195.265625 526.961914062 213.736328125 541.591796875 225.395507812 548.640625 c 0
 255.038085938 566.559570312 298.66015625 565.750976562 328.720703125 552.502929688 c 0
 386.131835938 527.200195312 451.44140625 569.379882812 451.44140625 632.614257812 c 0
 451.44140625 668.379882812 429.936523438 699.162109375 399.162109375 712.725585938 c 0
 362.107421875 729.056640625 321.5703125 737.36328125 279.55859375 737.36328125 c 0
 231.404296875 737.36328125 180.975585938 726.276367188 135.049804688 698.513671875 c 0
 95.189453125 674.41796875 35.2919921875 622.455078125 16.048828125 521.515625 c 0
 -5.4375 408.81640625 53.5927734375 298.44921875 212.739257812 258.662109375 c 0
 269.419921875 244.4921875 321.041015625 230.014648438 337.072265625 218.51171875 c 0
 337.682617188 216.696289062 339.106445312 211.970703125 340.661132812 203.403320312 c 1
EndSplineSet
Validated: 41
EndChar

StartChar: i
Encoding: 105 105 30
Width: 386
Flags: W
HStem: 782 197<25.1401 148.86>
VStem: -0.5 175<807.64 869.5 891.5 953.36> 23.2461 174.508<298.915 723.126>
LayerCount: 2
Fore
SplineSet
110.5 748 m 0xa0
 59.76953125 748 19.43359375 704.833984375 23.24609375 653.889648438 c 0
 32.859375 525.450195312 24.830078125 320.204101562 43.6611328125 183.841796875 c 0
 50.068359375 137.44921875 65.07421875 30.9248046875 148.611328125 3.37890625 c 0
 204.89453125 -15.1796875 263.5 26.8349609375 263.5 86.5 c 0
 263.5 115.47265625 249.387695312 141.17578125 227.66796875 157.104492188 c 1
 198.462890625 241.715820312 209.055664062 516.10546875 197.75390625 667.110351562 c 0
 194.370117188 712.3203125 156.568359375 748 110.5 748 c 0xa0
-0.5 869.5 m 2xc0
 -0.5 821.20703125 38.70703125 782 87 782 c 0
 135.29296875 782 174.5 821.20703125 174.5 869.5 c 2
 174.5 891.5 l 2
 174.5 939.79296875 135.29296875 979 87 979 c 0
 38.70703125 979 -0.5 939.79296875 -0.5 891.5 c 2
 -0.5 869.5 l 2xc0
EndSplineSet
Validated: 41
EndChar

StartChar: n
Encoding: 110 110 31
Width: 750
Flags: W
VStem: 447.921 175<34.1855 86.5244 368.644 509.397>
LayerCount: 2
Fore
SplineSet
334.090820312 715.907226562 m 0
 262.53515625 715.907226562 213.206054688 697.99609375 177.743164062 676.750976562 c 1
 175.49609375 685.771484375 173.037109375 694.486328125 168.407226562 705.16015625 c 0
 154.950195312 736.18359375 124.037109375 757.907226562 88.0908203125 757.907226562 c 0
 25.07421875 757.907226562 -17.1044921875 693.013671875 7.7744140625 635.654296875 c 1
 24.015625 556.272460938 29.599609375 407.766601562 31.2724609375 352.163085938 c 1
 25.0849609375 266.71484375 25.8359375 176.639648438 16 98 c 0
 9.1064453125 42.35546875 53.40234375 -2.0009765625 105.048828125 -2.0009765625 c 0
 136.76171875 -2.0009765625 182.467773438 15.6162109375 197.208007812 78.267578125 c 0
 210.802734375 136.049804688 208.362304688 280.020507812 206.487304688 348.03125 c 1
 217.883789062 493.291992188 249.706054688 523.50390625 286.06640625 534.724609375 c 0
 317.502929688 544.426757812 393.313476562 545.71484375 419.1171875 517.96875 c 0
 443.883789062 491.337890625 447.920898438 423.521484375 447.920898438 368.643554688 c 0
 447.920898438 289.5859375 439.590820312 191.98828125 439.590820312 86.5244140625 c 0
 439.590820312 38.2314453125 478.797851562 -0.9755859375 527.090820312 -0.9755859375 c 0
 575.383789062 -0.9755859375 614.590820312 38.2314453125 614.590820312 86.5244140625 c 0
 614.590820312 187.264648438 622.920898438 283.102539062 622.920898438 368.643554688 c 0
 622.920898438 471.908203125 619.319335938 715.907226562 334.090820312 715.907226562 c 0
EndSplineSet
Validated: 41
EndChar

StartChar: g
Encoding: 103 103 32
Width: 757
Flags: W
VStem: 90.5713 173.857<-174.492 -84.9005>
LayerCount: 2
Fore
SplineSet
275.379882812 65.72265625 m 0
 334.713867188 65.72265625 398.016601562 92.1240234375 454.698242188 147.217773438 c 1
 453.1171875 60.2470703125 443.266601562 -86.818359375 397.01953125 -153.995117188 c 0
 388.637695312 -166.170898438 381.348632812 -172.264648438 375.408203125 -175.620117188 c 0
 351.478515625 -189.138671875 298.018554688 -190.85546875 276.095703125 -166.849609375 c 0
 271.125976562 -161.408203125 266.342773438 -154.009765625 264.428710938 -137.293945312 c 0
 259.439453125 -93.724609375 222.395507812 -59.8388671875 177.5 -59.8388671875 c 0
 125.374023438 -59.8388671875 84.607421875 -105.298828125 90.5712890625 -157.383789062 c 0
 104.743164062 -281.147460938 204.104492188 -360.607421875 330.829101562 -360.607421875 c 0
 662.599609375 -360.607421875 647.56640625 117.299804688 612.688476562 485.715820312 c 1
 614.584960938 509.994140625 618.212890625 569.024414062 571.475585938 600.81640625 c 0
 561.4921875 607.607421875 534.310546875 622.526367188 499.131835938 612.948242188 c 1
 518.329101562 658.91015625 495.073242188 711.767578125 448.331054688 728.834960938 c 0
 393.650390625 748.801757812 343.02734375 758.637695312 295.458984375 758.637695312 c 0
 235.939453125 758.637695312 108.0625 740.483398438 37.08203125 595.265625 c 0
 20.29296875 560.916992188 0 505.4609375 0 438 c 0
 0 274.251953125 104.516601562 65.72265625 275.379882812 65.72265625 c 0
441.21875 562.137695312 m 1
 431.774414062 540.165039062 433.643554688 517.5546875 436.541015625 488.612304688 c 1
 422.83984375 401.497070312 359.783203125 268.357421875 288.799804688 243.346679688 c 0
 277.232421875 239.270507812 262.93359375 236.771484375 239.447265625 261.209960938 c 0
 195.397460938 307.046875 168.233398438 403.297851562 176.444335938 459.983398438 c 0
 178.098632812 471.404296875 188.228515625 529.57421875 226.576171875 561.403320312 c 0
 238.229492188 571.076171875 278.509765625 604.509765625 388.374023438 564.393554688 c 0
 398.891601562 560.552734375 418.288085938 555.936523438 441.21875 562.137695312 c 1
EndSplineSet
Validated: 41
EndChar

StartChar: a
Encoding: 97 97 35
Width: 864
Flags: W
HStem: -0.298828 175<265.515 383.634>
VStem: 0 175<274.274 456.374> 494.424 181.49<412.926 573.329>
LayerCount: 2
Fore
SplineSet
347.942382812 -0.298828125 m 0
 443.458984375 -0.298828125 506.64453125 64.849609375 543.532226562 121.512695312 c 1
 556.150390625 78.8466796875 576.934570312 30.2451171875 624.369140625 7.958984375 c 0
 681.96875 -19.1025390625 749 23.0751953125 749 87.201171875 c 0
 749 114.2890625 736.665039062 138.518554688 717.309570312 154.573242188 c 1
 695.106445312 210.272460938 683.913085938 331.721679688 675.9140625 518.8046875 c 0
 672.970703125 587.645507812 672.544921875 597.586914062 664.377929688 615.984375 c 0
 662.243164062 620.79296875 659.311523438 627.52734375 650.9296875 637.400390625 c 0
 644.608398438 644.846679688 613.658203125 677.44140625 564.668945312 666.228515625 c 1
 561.424804688 713.818359375 520.155273438 750.703125 471.564453125 747.510742188 c 0
 322.166992188 737.698242188 212.022460938 698.790039062 134.237304688 638.834960938 c 0
 88.6474609375 603.694335938 0 516.98046875 0 374 c 0
 0 216.590820312 116.46875 -0.298828125 347.942382812 -0.298828125 c 0
347.942382812 174.701171875 m 0
 214.197265625 174.701171875 175 321.98828125 175 374 c 0
 175 406.591796875 185.555664062 457.46875 240.93359375 500.153320312 c 0
 283.404296875 532.888671875 357.814453125 564.65625 483.18359375 572.891601562 c 0
 487.001953125 573.142578125 490.75390625 573.638671875 494.423828125 574.364257812 c 1
 484.841796875 474.364257812 452.1953125 295.2265625 392.018554688 209.797851562 c 0
 380.438476562 193.357421875 363.801757812 174.701171875 347.942382812 174.701171875 c 0
EndSplineSet
Validated: 41
EndChar

StartChar: b
Encoding: 98 98 36
Width: 830
Flags: W
VStem: 64.541 174.536<571.78 900.39 921.194 986.56>
LayerCount: 2
Fore
SplineSet
269.674804688 395.788085938 m 0
 398.842773438 436.24609375 506.494140625 384.40625 523.793945312 323.044921875 c 0
 545.212890625 247.073242188 504.874023438 192.240234375 456.8125 173.177734375 c 0
 390.139648438 146.732421875 285.283203125 159.440429688 266.62109375 190.318359375 c 0
 263.66796875 200.184570312 253.694335938 243.344726562 246.736328125 391.864257812 c 1
 254.69921875 392.15234375 262.391601562 393.506835938 269.674804688 395.788085938 c 0
239.077148438 796.362304688 m 0
 239.077148438 888.528320312 240.0234375 919.946289062 240.0234375 921.194335938 c 0
 240.0234375 933.185546875 240.0234375 959.586914062 217.18359375 984.67578125 c 0
 165.405273438 1041.55273438 68.8486328125 1008.32128906 65.0400390625 929.725585938 c 0
 64.732421875 923.369140625 64.69140625 916.060546875 64.541015625 900.389648438 c 0
 62.5830078125 839.721679688 54.837890625 674.430664062 44.4130859375 510.423828125 c 0
 34.6923828125 357.501953125 22.2529296875 200.516601562 11.0986328125 125.108398438 c 1
 4.9853515625 91.7900390625 l 1
 -14.9814453125 35.216796875 27.08984375 -24.8056640625 87.5234375 -24.8056640625 c 0
 100.411132812 -24.8056640625 152.966796875 -20.9736328125 172.232421875 40.091796875 c 1
 268.69140625 -30.75 422.868164062 -28.5810546875 521.234375 10.435546875 c 0
 650.555664062 61.728515625 738.499023438 206.538085938 692.252929688 370.568359375 c 0
 648.231445312 526.708007812 454.115234375 625.069335938 241.161132812 569.64453125 c 1
 239.559570312 652.091796875 239.077148438 732.869140625 239.077148438 796.362304688 c 0
EndSplineSet
Validated: 41
EndChar

StartChar: c
Encoding: 99 99 37
Width: 728
Flags: W
HStem: 550.242 175.328<367.407 455.123>
LayerCount: 2
Fore
SplineSet
482.833984375 635.4765625 m 0
 482.833984375 672.161132812 457.888671875 725.5703125 377.032226562 725.5703125 c 0
 262.196289062 725.5703125 94.416015625 600.653320312 30 468 c 0
 16.8740234375 440.970703125 -3.74609375 390.629882812 1.1171875 329.909179688 c 0
 17.5751953125 124.430664062 236.392578125 -80.4794921875 549.078125 32.671875 c 0
 582.747070312 44.85546875 606.834960938 77.1259765625 606.834960938 114.978515625 c 0
 606.834960938 175.704101562 546.26953125 217.794921875 489.591796875 197.28515625 c 0
 288.767578125 124.61328125 183.159179688 249.086914062 175.552734375 344.045898438 c 0
 171.907226562 389.564453125 230.553710938 469.267578125 310.0390625 520.401367188 c 0
 332.72265625 534.993164062 354.322265625 544.771484375 367.407226562 548.534179688 c 2
 375.481445312 550.2421875 l 1
 430.219726562 537.524414062 482.833984375 579.150390625 482.833984375 635.4765625 c 0
EndSplineSet
Validated: 41
EndChar

StartChar: d
Encoding: 100 100 38
Width: 788
Flags: W
VStem: 451.592 171.98<261.772 372.098 443.19 500.117>
LayerCount: 2
Fore
SplineSet
489.107421875 57.6162109375 m 1
 498.111328125 42.9140625 527.5 2.236328125 577.057617188 2.236328125 c 0
 625.350585938 2.236328125 664.557617188 41.443359375 664.557617188 89.736328125 c 0
 664.557617188 115.028320312 653.803710938 137.829101562 636.622070312 153.809570312 c 1
 631.888671875 168.249023438 620.225585938 218.3203125 623.572265625 362.208984375 c 0
 625.571289062 387.755859375 626.561523438 414.703125 626.598632812 443.190429688 c 0
 633.247070312 577.095703125 647.530273438 721.344726562 656.584960938 811.852539062 c 0
 665.762695312 903.596679688 666.608398438 912.044921875 663.073242188 929.469726562 c 0
 654.353515625 972.450195312 616.875976562 1000.00097656 577.033203125 1000.00097656 c 0
 562.2734375 1000.00097656 508.00390625 995.348632812 489.884765625 928.518554688 c 0
 479.790039062 891.28515625 461.333007812 779.52734375 453.48046875 662.286132812 c 1
 444.571289062 666.45703125 434.845703125 669.169921875 424.611328125 670.1171875 c 0
 122.3515625 698.091796875 -0.01171875 474.326171875 -0.01171875 287.368164062 c 0
 -0.01171875 227.673828125 12.7392578125 165.18359375 49.0791015625 110.555664062 c 0
 79.6181640625 64.6484375 147.58984375 -4.0087890625 280.963867188 -4.0087890625 c 0
 335.098632812 -4.0087890625 417.920898438 3.533203125 489.107421875 57.6162109375 c 1
450.254882812 502.266601562 m 1
 451.52734375 465.62109375 451.52734375 465.62109375 451.591796875 449.124023438 c 0
 450.338867188 423.12890625 449.358398438 397.327148438 448.735351562 372.09765625 c 0
 436.03125 221.811523438 385.647460938 193.37890625 356.248046875 182.290039062 c 0
 325.912109375 170.848632812 264.110351562 164.452148438 227.170898438 180.447265625 c 0
 212.104492188 186.970703125 202.911132812 195.248046875 194.889648438 207.3046875 c 0
 160.083984375 259.626953125 172.676757812 371.213867188 221.081054688 433.139648438 c 0
 240.157226562 457.545898438 280.71875 497.495117188 374.383789062 497.495117188 c 0
 388.258789062 497.495117188 416.040039062 495.4921875 416.4609375 495.4921875 c 0
 428.4375 495.4921875 439.85546875 497.903320312 450.254882812 502.266601562 c 1
EndSplineSet
Validated: 41
EndChar

StartChar: f
Encoding: 102 102 39
Width: 806
Flags: W
HStem: 400.971 174.455<373.726 557.175> 426.701 172.701<25.6597 174.416 376.191 597.645> 823.902 174.863<558.242 658.377>
VStem: 169.52 175<585.916 777.717> 213.52 175<23.6425 397.03>
LayerCount: 2
Fore
SplineSet
177.235351562 584.525390625 m 1xb0
 116.275390625 592.774414062 107.313476562 599.40234375 87.51953125 599.40234375 c 0
 39.2265625 599.40234375 0.01953125 560.1953125 0.01953125 511.90234375 c 0
 0.01953125 470.487304688 28.8544921875 435.754882812 67.525390625 426.701171875 c 0
 109.044921875 416.98046875 152.984375 410.198242188 197.387695312 405.900390625 c 1
 206.151367188 321.64453125 213.51953125 222.088867188 213.51953125 85.501953125 c 0
 213.51953125 37.208984375 252.727539062 -1.998046875 301.01953125 -1.998046875 c 0
 349.3125 -1.998046875 388.51953125 37.2099609375 388.51953125 85.501953125 c 0x68
 388.51953125 216.14453125 381.840820312 317.170898438 373.725585938 400.970703125 c 1
 425.94140625 403.0234375 502.668945312 409.435546875 562.865234375 428.444335938 c 0
 598.299804688 439.634765625 624.01953125 472.7890625 624.01953125 511.90234375 c 0
 624.01953125 571.100585938 566.268554688 613.07421875 510.173828125 595.360351562 c 0
 496.043945312 590.897460938 447.721679688 578.047851562 354.189453125 575.42578125 c 1
 348.462890625 627.671875 344.520507812 675.043945312 344.51953125 726.403320312 c 0
 344.51953125 740.803710938 345.625 772.6484375 404.616210938 798.547851562 c 0
 441.428710938 814.7109375 496.150390625 825.001953125 557.474609375 825.001953125 c 0
 573.755859375 825.001953125 596.126953125 823.90234375 596.517578125 823.90234375 c 0
 644.810546875 823.90234375 684.017578125 863.109375 684.017578125 911.40234375 c 0
 684.017578125 958.0390625 647.453125 996.202148438 601.453125 998.765625 c 0
 415.326171875 1009.13476562 263.643554688 955.657226562 200.1171875 844.435546875 c 0
 180.18359375 809.53515625 169.51953125 769.006835938 169.51953125 726.403320312 c 0
 169.51953125 676.133789062 172.697265625 630.16015625 177.235351562 584.525390625 c 1xb0
EndSplineSet
Validated: 41
EndChar

StartChar: h
Encoding: 104 104 40
Width: 788
Flags: W
VStem: 22.7041 194.301<600.482 951.975> 477.913 175<28.3091 90.1689 167.882 372.836>
LayerCount: 2
Fore
SplineSet
652.5234375 90.1689453125 m 0
 652.5234375 114.03125 652.913085938 140.342773438 652.913085938 167.881835938 c 0
 652.913085938 285.985351562 649.806640625 479.758789062 512.62890625 573.865234375 c 0
 436.243164062 626.266601562 315.502929688 642.026367188 221.884765625 596.787109375 c 1
 222.47265625 630.297851562 224.219726562 741.853515625 217.004882812 830.416015625 c 0
 210.157226562 914.4609375 199.09375 961.305664062 159.209960938 986.392578125 c 0
 148.6875 993.01171875 132.47265625 999.98828125 112.047851562 999.98828125 c 0
 82.0107421875 999.98828125 32.583984375 981.321289062 22.7041015625 919.379882812 c 0
 14.8505859375 870.140625 24.25 709.311523438 41.01171875 438.640625 c 1
 38.5712890625 394.0234375 35.4931640625 350.250976562 31.8662109375 309.498046875 c 0
 24.0546875 221.7265625 12.5517578125 145.653320312 3.515625 114.702148438 c 0
 -12.759765625 58.9560546875 29.130859375 2.6689453125 87.5234375 2.6689453125 c 0
 102.231445312 2.6689453125 116.096679688 6.3056640625 128.268554688 12.728515625 c 1
 174.169921875 5.2060546875 220.703125 34.6025390625 230.310546875 86.7626953125 c 0
 235.624023438 115.604492188 230.765625 199.858398438 224.962890625 298.0625 c 1
 231.823242188 340.397460938 249.079101562 408.73046875 290.719726562 435.157226562 c 0
 299.45703125 440.701171875 317.200195312 450.4609375 353.56640625 447.803710938 c 0
 437.4609375 441.671875 477.913085938 389.874023438 477.913085938 167.881835938 c 0
 477.913085938 165.330078125 477.5234375 90.9462890625 477.5234375 90.1689453125 c 0
 477.5234375 41.8759765625 516.73046875 2.6689453125 565.0234375 2.6689453125 c 0
 613.31640625 2.6689453125 652.5234375 41.8759765625 652.5234375 90.1689453125 c 0
EndSplineSet
Validated: 41
EndChar

StartChar: j
Encoding: 106 106 41
Width: 632
Flags: W
HStem: 738.024 223<200.712 324.432>
VStem: 175.072 175<763.665 825.524 873.524 935.384> 331.231 175<-84.6478 348.335>
LayerCount: 2
Fore
SplineSet
175.072265625 825.524414062 m 2xc0
 175.072265625 777.231445312 214.279296875 738.024414062 262.572265625 738.024414062 c 0
 310.865234375 738.024414062 350.072265625 777.231445312 350.072265625 825.524414062 c 2
 350.072265625 873.524414062 l 2
 350.072265625 921.817382812 310.865234375 961.024414062 262.572265625 961.024414062 c 0
 214.279296875 961.024414062 175.072265625 921.817382812 175.072265625 873.524414062 c 2
 175.072265625 825.524414062 l 2xc0
318.650390625 696.524414062 m 0
 247.241210938 696.524414062 205.891601562 614.85546875 248.0390625 557.365234375 c 1
 269.346679688 510.700195312 331.231445312 301.842773438 331.231445312 104.25 c 0
 331.231445312 35.4384765625 323.59375 -91.0810546875 262.720703125 -164.83203125 c 0
 250.85546875 -179.208007812 244.37109375 -180.55859375 230.71875 -174.798828125 c 0
 206.399414062 -164.538085938 179.473632812 -134.723632812 172.392578125 -111.516601562 c 1
 179.328125 -58.9765625 138.401367188 -12.4755859375 85.6484375 -12.4755859375 c 0
 43.5166015625 -12.4755859375 8.2998046875 -42.3173828125 0 -82 c 0
 -20.3076171875 -179.094726562 65.7939453125 -295.181640625 162.813476562 -336.115234375 c 0
 196.56640625 -350.35546875 264.780273438 -368.913085938 335.892578125 -328.842773438 c 0
 359.162109375 -315.73046875 379.970703125 -297.647460938 397.740234375 -276.119140625 c 0
 464.375 -195.387695312 506.231445312 -73.4599609375 506.231445312 104.25 c 0xa0
 506.231445312 246.844726562 479.708984375 388.389648438 452.743164062 491.685546875 c 0
 440.614257812 538.14453125 417.022460938 620.259765625 393.724609375 654.827148438 c 0
 382.87109375 670.9296875 359.23828125 696.524414062 318.650390625 696.524414062 c 0
EndSplineSet
Validated: 41
EndChar

StartChar: k
Encoding: 107 107 42
Width: 970
Flags: W
HStem: 14.7266 175.859<710.08 828.283>
VStem: 0 297.523<24.1401 147.6> 96.6934 180.048<517.762 803.716>
LayerCount: 2
Fore
SplineSet
471.517578125 386.3125 m 1xc0
 602.454101562 479.807617188 765.125 698.045898438 671.116210938 833.971679688 c 0
 655.321289062 856.810546875 628.946289062 871.784179688 599.1015625 871.784179688 c 0
 531.186523438 871.784179688 489.243164062 797.25390625 524.03515625 739.326171875 c 0
 523.915039062 734.939453125 522.241210938 715.9921875 503.66015625 681.116210938 c 0
 462.971679688 604.749023438 379.116210938 523.111328125 323.9140625 503.096679688 c 1
 306.583007812 516.123046875 294.424804688 523.854492188 276.741210938 528.641601562 c 1
 276.959960938 537.055664062 282.555664062 759.393554688 265.512695312 819.587890625 c 0
 260.482421875 837.349609375 250.548828125 859.76953125 225.448242188 875.7421875 c 0
 176.774414062 906.715820312 101.49609375 884.764648438 89.4658203125 810.049804688 c 0
 79.658203125 749.1484375 94.21484375 470.518554688 96.693359375 424.314453125 c 1xa0
 92.7216796875 364.961914062 80.9853515625 229.880859375 53.705078125 169.930664062 c 1
 74.60546875 172.5546875 l 1
 32.41796875 166.3125 0 129.912109375 0 86 c 0
 0 37.70703125 39.20703125 -1.5 87.5 -1.5 c 0
 97.287109375 -1.5 125.81640625 0.61328125 156.145507812 22.7119140625 c 1
 171.85546875 7.71484375 193.131835938 -1.5 216.543945312 -1.5 c 0
 278.8359375 -1.5 320.999023438 62.0107421875 297.5234375 119.180664062 c 0
 293.521484375 138.762695312 286.41796875 201.365234375 278.556640625 316.146484375 c 1
 372.408203125 241.268554688 457.711914062 173.209960938 545.221679688 113.180664062 c 0
 657.046875 36.4716796875 713.647460938 14.7265625 758.471679688 14.7265625 c 0
 824.149414062 14.7265625 855 61.857421875 855 103.400390625 c 0
 855 154.475585938 811.2734375 194.922851562 760.036132812 190.5859375 c 1
 709.298828125 208.926757812 613.71875 274.580078125 471.517578125 386.3125 c 1xc0
EndSplineSet
Validated: 41
EndChar

StartChar: l
Encoding: 108 108 43
Width: 414
Flags: W
VStem: 0 175<421.912 796 922.659 984.519>
LayerCount: 2
Fore
SplineSet
175 796 m 0
 175 823.284179688 175.439453125 921.392578125 175.439453125 922.659179688 c 0
 175.439453125 970.952148438 136.232421875 1010.15917969 87.939453125 1010.15917969 c 0
 39.646484375 1010.15917969 0.439453125 970.952148438 0.439453125 922.659179688 c 0
 0.439453125 921.392578125 0 824.614257812 0 796 c 0
 0 356.184570312 30.8291015625 154.807617188 86.76953125 67.4814453125 c 0
 105.400390625 38.3984375 142.608398438 -0.982421875 200.752929688 -0.982421875 c 0
 259.73828125 -0.982421875 291.439453125 44.80859375 291.439453125 86.6591796875 c 0
 291.439453125 125.982421875 265.443359375 159.282226562 229.713867188 170.294921875 c 1
 204.440429688 225.254882812 175 385.908203125 175 796 c 0
EndSplineSet
Validated: 9
EndChar

StartChar: m
Encoding: 109 109 44
Width: 1060
Flags: W
HStem: 549.516 175.136<206.12 336.416 641.725 703.519>
VStem: 2.12012 188.984<112.231 516.778> 2.12012 174.709<33.6083 448.353> 354.996 205.314<100.135 368.993> 704.813 172.547<23.6847 247.373>
LayerCount: 2
Fore
SplineSet
480.926757812 624.225585938 m 1xd8
 444.259765625 677.545898438 382.3125 724.651367188 277.903320312 724.651367188 c 0
 237.895507812 724.651367188 200.384765625 718.298828125 166.620117188 704.879882812 c 1
 152.01171875 732.850585938 122.723632812 751.961914062 89.0078125 751.961914062 c 0
 30.9140625 751.961914062 -10.943359375 696.211914062 4.806640625 640.600585938 c 0
 6.130859375 633.483398438 11.18359375 605.594726562 14.998046875 520.950195312 c 1
 -8.8212890625 432.165039062 -4.576171875 328.712890625 0 228 c 0
 1.5849609375 193.120117188 3.0244140625 160.525390625 3.0244140625 132.713867188 c 0
 3.0244140625 115.016601562 2.1201171875 96.2548828125 2.1201171875 95.88671875 c 0
 2.1201171875 47.6728515625 41.083984375 7.490234375 90.4375 7.490234375 c 0
 134.149414062 7.490234375 168.4609375 38.8017578125 176.829101562 77.0458984375 c 0xb8
 197.356445312 170.706054688 194.604492188 397.984375 191.104492188 497.009765625 c 1
 202.970703125 526.6796875 220.044921875 551.790039062 285.606445312 549.515625 c 0
 316.891601562 548.4296875 334.470703125 537.934570312 348.12109375 502.764648438 c 0
 359.819335938 472.624023438 365.8125 424.87109375 365.8125 373.827148438 c 0
 365.8125 270.48828125 346.841796875 180.98828125 354.99609375 130.0625 c 0
 369.762695312 37.849609375 474.612304688 19.5595703125 523.575195312 82.595703125 c 0
 548.633789062 114.856445312 552.3984375 155.243164062 560.310546875 240.12109375 c 0
 567.25390625 314.595703125 576.903320312 418.11328125 604.797851562 487.016601562 c 0
 607.07421875 492.639648438 622.515625 530.6953125 641.607421875 540.43359375 c 0
 644.098632812 541.704101562 648.224609375 543.71875 657.627929688 543.34375 c 0
 687.825195312 542.140625 703.766601562 533.401367188 716.53125 504.439453125 c 0
 756.685546875 413.338867188 722.239257812 204.20703125 704.813476562 101.127929688 c 0
 695.780273438 47.6953125 737.008789062 -1.0390625 791.086914062 -1.0390625 c 0
 834.381835938 -1.0390625 870.375 30.4736328125 877.360351562 71.7939453125 c 0
 916.836914062 305.303710938 947.150390625 553.717773438 808.463867188 666.805664062 c 0
 786.428710938 684.7734375 734.640625 718.385742188 655.572265625 718.385742188 c 0
 611.490234375 718.385742188 537.915039062 704.5 480.926757812 624.225585938 c 1xd8
EndSplineSet
Validated: 41
EndChar

StartChar: o
Encoding: 111 111 45
Width: 878
Flags: W
HStem: 598.154 174.731<264.025 438.055>
VStem: 590 175<300.069 493.091>
LayerCount: 2
Fore
SplineSet
283.983398438 598.154296875 m 1
 409.057617188 598.154296875 541.0546875 547.930664062 574.463867188 476.350585938 c 0
 585.212890625 453.321289062 590 429.293945312 590 404.310546875 c 0
 590 356.4921875 570.861328125 303.208984375 542.27734375 261.241210938 c 0
 519.475585938 227.763671875 491.638671875 203.759765625 473.41015625 194.416015625 c 0
 402.712890625 158.1796875 241.040039062 174.383789062 198.296875 242.169921875 c 0
 134.939453125 342.645507812 213.303710938 517.504882812 283.983398438 598.154296875 c 1
86.1181640625 620.33203125 m 1
 53.1103515625 563.888671875 0 454.08984375 0 332 c 0
 0 270.75390625 13.744140625 206.762695312 50.158203125 149.013671875 c 0
 150.26953125 -9.7509765625 414.938476562 -32.21875 553.05859375 38.578125 c 0
 605.919921875 65.6728515625 650.877929688 109.840820312 687.016601562 162.900390625 c 0
 732.107421875 229.103515625 765 312.684570312 765 404.310546875 c 0
 765 452.522460938 755.451171875 502.401367188 733.135742188 550.211914062 c 0
 663.474609375 699.4609375 468.07421875 768.07421875 306.33984375 772.885742188 c 1
 295.60546875 779.0546875 255.5078125 798.107421875 211.979492188 768.189453125 c 1
 182.541015625 763.959960938 154.345703125 756.783203125 127.84375 745.720703125 c 0
 79.2861328125 725.450195312 58.9697265625 666.70703125 86.1181640625 620.33203125 c 1
EndSplineSet
Validated: 41
EndChar

StartChar: p
Encoding: 112 112 46
Width: 824
Flags: W
HStem: 59.3027 175<276.326 449.622> 560.677 175.111<341.324 491.879>
VStem: 3.76465 177.826<639.109 727.425> 11.4668 196.533<-315.551 -196.641 2.03249 84.4041> 547.041 175<320.778 504.624>
LayerCount: 2
Fore
SplineSet
24.7900390625 363.180664062 m 1xe8
 20.8984375 302.44921875 11.466796875 104.05078125 11.466796875 -78.0791015625 c 0
 11.466796875 -256.819335938 20.65625 -289.1328125 35.7529296875 -314.259765625 c 0
 75.833984375 -380.96875 184.825195312 -378.2421875 208 -274 c 0xd8
 212.7890625 -252.45703125 224.000976562 -196.93359375 213.56640625 87.361328125 c 1
 254.405273438 66.5322265625 298.838867188 59.302734375 342.4765625 59.302734375 c 0
 402.688476562 59.302734375 463.848632812 73.494140625 520.219726562 99.9775390625 c 0
 565.284179688 121.1484375 608.08203125 150.706054688 642.346679688 190.712890625 c 0
 697.95703125 255.641601562 722.041015625 334.602539062 722.041015625 410.293945312 c 0
 722.041015625 582.76953125 600.032226562 735.788085938 430.765625 735.788085938 c 0
 373.885742188 735.788085938 279.569335938 720.311523438 181.590820312 637.655273438 c 1
 179.798828125 658.515625 178.23828125 673.849609375 176.969726562 682.649414062 c 0
 170.869140625 724.998046875 134.393554688 757.583984375 90.3671875 757.583984375 c 0
 37.1845703125 757.583984375 -2.583984375 710.515625 3.7646484375 657.518554688 c 0
 11.1630859375 595.754882812 17.0859375 494.299804688 24.7900390625 363.180664062 c 1xe8
425.922851562 560.676757812 m 0
 503.153320312 564.206054688 547.041015625 480.98046875 547.041015625 410.293945312 c 0
 547.041015625 371.572265625 534.845703125 334.174804688 509.391601562 304.455078125 c 0
 471.959960938 260.751953125 399.162109375 234.302734375 342.4765625 234.302734375 c 0
 316.419921875 234.302734375 297.229492188 240.487304688 289.189453125 245.4453125 c 0
 285.1953125 247.908203125 283.880859375 249.557617188 283.044921875 250.802734375 c 0
 277.227539062 259.458007812 251.717773438 292.631835938 204.298828125 289.375976562 c 1
 202.965820312 314.249023438 201.586914062 338.798828125 200.190429688 362.754882812 c 0
 200.962890625 374.21875 201.698242188 383.587890625 202.373046875 390.455078125 c 0
 208.165039062 401.256835938 292.676757812 554.586914062 425.922851562 560.676757812 c 0
EndSplineSet
Validated: 41
EndChar

StartChar: q
Encoding: 113 113 47
Width: 892
Flags: W
VStem: 379.701 173.292<-91.8197 63.2143> 394.901 170.444<305.766 539.788>
LayerCount: 2
Fore
SplineSet
323.369140625 235.198242188 m 0x40
 306.858398438 228.243164062 258.442382812 230.372070312 238.984375 235.7421875 c 0
 225.620117188 239.430664062 219.186523438 243.364257812 211.268554688 252.853515625 c 0
 183.78515625 285.791992188 173.393554688 370.897460938 173.393554688 411.337890625 c 0
 173.393554688 494.416992188 209.705078125 520.323242188 233.833007812 533.325195312 c 0
 257.03125 545.825195312 309.09375 563.654296875 394.901367188 556.953125 c 1
 388.36328125 519.064453125 398.4765625 384.388671875 364.791992188 292.588867188 c 0
 356.813476562 270.84765625 343.22265625 243.561523438 323.369140625 235.198242188 c 0x40
284.766601562 55.9990234375 m 0
 318.51953125 55.9990234375 346.509765625 57.765625 379.701171875 69.5634765625 c 1
 372.999023438 -248.951171875 386.1015625 -284.51171875 403.161132812 -313.00390625 c 0
 411.459960938 -326.864257812 436.220703125 -359.372070312 485.916015625 -359.372070312 c 0
 535.182617188 -359.372070312 580.19140625 -326.375976562 646.046875 -256.318359375 c 0
 680.239257812 -219.944335938 715.689453125 -178.16015625 754.360351562 -129.313476562 c 0
 799.556640625 -72.22265625 758.568359375 12.4345703125 685.721679688 12.4345703125 c 0
 669.176757812 12.4345703125 639.591796875 7.689453125 616.19140625 -21.947265625 c 0
 610.47265625 -29.189453125 584.1875 -62.4287109375 552.993164062 -98.2861328125 c 1x80
 552.34375 23.7001953125 557.10546875 182.818359375 565.345703125 405.07421875 c 0
 568.702148438 495.60546875 569.71875 523.012695312 569.546875 540.62109375 c 1
 635.909179688 574.63671875 631.720703125 671.182617188 562.981445312 699.487304688 c 0
 504.568359375 723.540039062 300.676757812 768.143554688 151.000976562 687.490234375 c 0
 82.4521484375 650.552734375 -15.29296875 563.731445312 0 372 c 0
 7.958984375 272.23046875 30.3740234375 196.543945312 76.8466796875 140.845703125 c 0
 147.603515625 56.0439453125 250.124023438 55.9990234375 284.766601562 55.9990234375 c 0
EndSplineSet
Validated: 41
EndChar

StartChar: r
Encoding: 114 114 48
Width: 726
Flags: W
VStem: 0 171.127<613.536 746.034> 2.83789 192.188<47.505 357.98>
LayerCount: 2
Fore
SplineSet
606.063476562 595.205078125 m 0x40
 606.063476562 645.838867188 563.055664062 686.140625 512.197265625 682.4765625 c 0
 506.836914062 682.090820312 499.328125 681.684570312 490.465820312 681.216796875 c 0
 417.618164062 677.370117188 287.485351562 670.141601562 181.155273438 606.399414062 c 1
 179.119140625 644.797851562 176.615234375 675.12109375 171.126953125 700.7578125 c 0
 162.673828125 740.23828125 127.552734375 769.87890625 85.5634765625 769.87890625 c 0
 29.87890625 769.87890625 -11.6435546875 718.385742188 0 664 c 0x80
 13.0048828125 603.259765625 16.55859375 209.231445312 2.837890625 115.938476562 c 1
 -16.68359375 59.453125 25.3720703125 -0.12109375 85.5634765625 -0.12109375 c 0
 115.673828125 -0.12109375 142.252929688 15.12109375 157.998046875 38.3037109375 c 1
 190.610351562 59.2783203125 205.32421875 98.8115234375 195.026367188 135.572265625 c 1
 188.384765625 191.278320312 204.223632812 358.581054688 248.151367188 432.36328125 c 0
 255.833984375 445.268554688 262.34375 450.75 263.215820312 451.326171875 c 0
 333.348632812 497.672851562 442.201171875 503.420898438 499.826171875 506.463867188 c 0
 508.71484375 506.932617188 516.958007812 507.359375 524.9296875 507.93359375 c 0
 570.254882812 511.19921875 606.063476562 549.053710938 606.063476562 595.205078125 c 0x40
EndSplineSet
Validated: 41
EndChar

StartChar: u
Encoding: 117 117 49
Width: 766
Flags: W
HStem: 0 175<220.88 332.04>
VStem: 37.8447 188.802<601.587 715.443> 453.841 201.465<558.938 648.12>
LayerCount: 2
Fore
SplineSet
477.975585938 558.198242188 m 1
 490.296875 487.651367188 451.083984375 317.583007812 365.7109375 228.943359375 c 0
 330.94921875 192.850585938 294.934570312 175 252 175 c 0
 246.5859375 175 238.36328125 175 225.82421875 192.146484375 c 0
 167.971679688 271.250976562 167.290039062 502.358398438 196.173828125 597.15625 c 1
 214.827148438 613.208007812 226.646484375 636.984375 226.646484375 663.5 c 0
 226.646484375 711.79296875 187.439453125 751 139.146484375 751 c 0
 111.115234375 751 65.6669921875 739.6171875 37.8447265625 673.573242188 c 0
 1.1923828125 586.5703125 -12.7763671875 383.590820312 22.974609375 232.62109375 c 0
 32.857421875 190.889648438 60.5927734375 85.4921875 144.559570312 31.333984375 c 0
 175.379882812 11.4541015625 212.712890625 0 252 0 c 0
 351.346679688 0 432.938476562 46.525390625 491.749023438 107.5859375 c 0
 544.03515625 161.873046875 580.765625 227.698242188 606.6875 293.552734375 c 0
 639.15625 376.040039062 655.305664062 459.403320312 655.305664062 529.99609375 c 0
 655.305664062 616.078125 629.640625 668.103515625 585.595703125 694 c 0
 527.6640625 728.060546875 453.840820312 686.079101562 453.840820312 618.515625 c 0
 453.840820312 595.143554688 463.024414062 573.899414062 477.975585938 558.198242188 c 1
EndSplineSet
Validated: 41
EndChar

StartChar: v
Encoding: 118 118 50
Width: 788
Flags: W
LayerCount: 2
Fore
SplineSet
154.658203125 709.291992188 m 0
 83.8154296875 757.303710938 -1.40234375 713.702148438 -1.40234375 640.827148438 c 0
 -1.40234375 601.526367188 24.5634765625 568.2421875 60.26171875 557.2109375 c 1
 124.077148438 459.71484375 217.114257812 146.1796875 255.955078125 65.703125 c 0
 263.890625 49.2607421875 278.474609375 20.8466796875 312 7 c 0
 340.112304688 -4.6103515625 390.96484375 -5.916015625 424.302734375 43.939453125 c 0
 465.643554688 105.764648438 545.552734375 420.103515625 620.543945312 561.991210938 c 0
 629.284179688 578.52734375 637.420898438 590.528320312 640.940429688 594.825195312 c 0
 665.372070312 610.353515625 681.59765625 637.66015625 681.59765625 668.7265625 c 0
 681.59765625 734.286132812 611.762695312 776.420898438 553.946289062 746.477539062 c 0
 485.063476562 710.803710938 434.896484375 602.96875 344.278320312 330.720703125 c 1
 257.888671875 575.046875 211.301757812 670.90234375 154.658203125 709.291992188 c 0
EndSplineSet
Validated: 41
EndChar

StartChar: w
Encoding: 119 119 51
Width: 1088
Flags: W
HStem: 0 588.029<475.169 686>
VStem: 4.9873 174.901<373.294 680.282 685.422 751.262> 801.308 171.601<293.881 703.746>
LayerCount: 2
Fore
SplineSet
798 642 m 0
 798 633.296875 801.307617188 587.163085938 801.307617188 527.594726562 c 0
 801.307617188 468.756835938 797.859375 396.85546875 786.056640625 333.375 c 0
 777.190429688 285.682617188 752.01953125 183.932617188 697.647460938 175.786132812 c 1
 679.177734375 203.696289062 664.001953125 259.848632812 644.556640625 341.65234375 c 0
 619.837890625 445.64453125 600.404296875 526.052734375 543.66015625 566.040039062 c 0
 531.8515625 574.361328125 507.526367188 588.029296875 475.168945312 588.029296875 c 0
 443.665039062 588.029296875 389.504882812 575.362304688 354.48046875 497.39453125 c 0
 316.393554688 412.610351562 300.780273438 245.412109375 256.899414062 184.274414062 c 1
 242.107421875 210.360351562 191.963867188 318.63671875 179.888671875 680.282226562 c 0
 179.69921875 685.953125 179.5703125 690.006835938 179.40625 693.578125 c 0
 177.2734375 739.98046875 138.92578125 777 92 777 c 0
 42.248046875 777 2.2939453125 735.428710938 4.59375 685.421875 c 0
 4.654296875 684.09765625 4.8017578125 679.895507812 4.9873046875 674.34765625 c 0
 21.24609375 187.420898438 103.272460938 66.6982421875 172.62890625 22.7919921875 c 0
 244.672851562 -22.8154296875 356.50390625 -5.7763671875 421.440429688 118.940429688 c 0
 445.594726562 165.331054688 461.561523438 220.125 477.485351562 287.655273438 c 1
 494.094726562 217.981445312 509.793945312 158.178710938 534.525390625 109.052734375 c 0
 556.850585938 64.70703125 602.525390625 0 686 0 c 0
 739.973632812 0 827.19921875 17.6708984375 891.276367188 116.963867188 c 0
 990.002929688 269.953125 978.055664062 532.8046875 972.908203125 646.032226562 c 0
 970.798828125 692.456054688 932.44140625 729.5 885.5 729.5 c 0
 837.20703125 729.5 798 690.29296875 798 642 c 0
EndSplineSet
Validated: 41
EndChar

StartChar: x
Encoding: 120 120 52
Width: 728
Flags: W
VStem: 36.5264 179.941<30.5718 147.505>
LayerCount: 2
Fore
SplineSet
294.361328125 531.576171875 m 1
 255.163085938 593.446289062 198.859375 670.696289062 114.571289062 670.696289062 c 0
 86.4169921875 670.696289062 59.8916015625 661.081054688 39.1162109375 647.14453125 c 0
 15.7001953125 631.435546875 0.275390625 604.71875 0.275390625 574.428710938 c 0
 0.275390625 517.561523438 53.8408203125 475.859375 108.857421875 489.489257812 c 1
 127.90234375 468.889648438 151.852539062 431.83203125 181.572265625 377.881835938 c 1
 41.5458984375 175.541992188 36.5263671875 124.2265625 36.5263671875 97.0244140625 c 0
 36.5263671875 36.7294921875 84.3193359375 0 130 0 c 0
 183.56640625 0 224.686523438 47.8681640625 216.467773438 100.969726562 c 1
 226.45703125 122.455078125 247.145507812 158.9453125 273.375976562 200.134765625 c 1
 301.275390625 144.572265625 314.623046875 117.989257812 333.489257812 80.9921875 c 0
 347.961914062 52.6103515625 377.47265625 33.154296875 411.491210938 33.154296875 c 0
 476.81640625 33.154296875 518.961914062 102.528320312 489.493164062 160.31640625 c 0
 475.9765625 186.82421875 387.8515625 361.9140625 386.817382812 363.946289062 c 1
 410.21484375 395.544921875 465.505859375 468.963867188 519.943359375 530.240234375 c 0
 546.313476562 559.922851562 569.830078125 583.091796875 582.421875 593.1796875 c 0
 602.444335938 609.219726562 615.275390625 633.873046875 615.275390625 661.5 c 0
 615.275390625 734.572265625 530.145507812 775.499023438 473.12890625 729.8203125 c 0
 429.583984375 694.935546875 370.075195312 628.883789062 294.361328125 531.576171875 c 1
EndSplineSet
Validated: 41
EndChar

StartChar: y
Encoding: 121 121 53
Width: 812
Flags: W
HStem: 48.9971 175<258.942 374.326>
VStem: 0.5 175<387.393 718.356> 101.631 174.869<-61.1173 17.8569> 487.791 168.233<-143.666 116.064> 489.507 186.996<408.898 712.753>
LayerCount: 2
Fore
SplineSet
101.630859375 -39.177734375 m 0xb0
 92.0927734375 -214.329101562 192.12890625 -360 390 -360 c 0
 477.516601562 -360 586.377929688 -335.657226562 633.004882812 -184.356445312 c 0
 644.172851562 -148.116210938 651.194335938 -107.96484375 656.024414062 -61.6748046875 c 0xb0
 664.44921875 19.05859375 663.89453125 185.986328125 663.979492188 343.356445312 c 0
 664.008789062 397.868164062 664.126953125 451.404296875 664.505859375 497.8203125 c 1
 667.083007812 512.786132812 682.086914062 603.6796875 676.502929688 657.747070312 c 0
 675.44140625 668.033203125 672.427734375 697.215820312 648.390625 721.510742188 c 0
 600.62890625 769.786132812 509.87890625 752.146484375 495.833984375 666.055664062 c 0
 491.731445312 640.90625 490.225585938 592.635742188 489.506835938 514.358398438 c 0
 486.25390625 496.58984375 471.293945312 416.05078125 438.567382812 344.001953125 c 0
 399.76171875 258.567382812 356.212890625 223.997070312 312 223.997070312 c 0
 299.061523438 223.997070312 271.122070312 223.997070312 241.342773438 274.211914062 c 0
 175.741210938 384.830078125 175.5 602.274414062 175.5 656.49609375 c 0
 175.5 704.7890625 136.29296875 743.99609375 88 743.99609375 c 0
 44.826171875 743.99609375 0.5068359375 710.708984375 0.5 654.71875 c 0xc8
 0.48046875 504.328125 11.341796875 138.927734375 232.412109375 62.1259765625 c 0
 257.29296875 53.482421875 284.158203125 48.9970703125 312 48.9970703125 c 0
 357.283203125 48.9970703125 423.67578125 60.8701171875 487.791015625 116.064453125 c 1
 486.389648438 12.98828125 484.716796875 -71.20703125 465.73046875 -132.815429688 c 0
 460.825195312 -148.732421875 453.017578125 -167.936523438 442.407226562 -175.3671875 c 0
 425.948242188 -186.893554688 365.596679688 -190.359375 329.91796875 -174.055664062 c 0
 313.73046875 -166.659179688 304.037109375 -157.286132812 295.64453125 -143.696289062 c 0
 283.4375 -123.9296875 276.02734375 -93.041015625 276.02734375 -61.3291015625 c 0
 276.02734375 -56.9404296875 276.5 -44.17578125 276.5 -44.0029296875 c 0
 276.5 4.2900390625 237.29296875 43.4970703125 189 43.4970703125 c 0
 142.326171875 43.4970703125 104.138671875 6.8740234375 101.630859375 -39.177734375 c 0xb0
EndSplineSet
Validated: 41
EndChar

StartChar: z
Encoding: 122 122 54
Width: 778
Flags: W
HStem: 60.0762 170.777<322.792 630.113> 586.251 159.608<20.1461 252.938>
LayerCount: 2
Fore
SplineSet
35.2607421875 151.075195312 m 0
 -17.53515625 95.7392578125 17.09375 0 104 0 c 0
 123.991210938 0 137.825195312 1.74609375 240.877929688 20.865234375 c 0
 293.942382812 30.7099609375 355.736328125 42.146484375 411.1171875 50.1923828125 c 0
 441.897460938 54.6640625 504.436523438 62.78125 534.2421875 60.076171875 c 1
 592.022460938 30.73828125 661.26953125 72.88671875 661.26953125 138.147460938 c 0
 661.26953125 174.212890625 638.645507812 217.326171875 574.375 230.853515625 c 0
 530.6953125 240.047851562 463.331054688 237.39453125 315.94140625 212.25390625 c 1
 374.243164062 287.873046875 440.150390625 375.80078125 497.581054688 452.40625 c 0
 552.674804688 525.89453125 601.0078125 590.184570312 623.831054688 618.958007812 c 1
 657.9765625 646.1484375 674.522460938 694.599609375 650.2109375 737.459960938 c 0
 623.0078125 785.41796875 556.3125 797.969726562 513.737304688 758.404296875 c 1
 450.21484375 741.006835938 267.19921875 730.330078125 163.288085938 739.916992188 c 0
 143.2578125 741.765625 127.650390625 744.813476562 124.137695312 745.859375 c 0
 66.736328125 771.07421875 1.5146484375 728.892578125 1.5146484375 665.705078125 c 0
 1.5146484375 630.505859375 22.34375 600.1328125 52.3388671875 586.250976562 c 0
 90.3935546875 568.638671875 158.263671875 561.315429688 257.5703125 561.315429688 c 0
 291.889648438 561.315429688 327.606445312 562.266601562 362.666015625 564.15234375 c 1
 207.705078125 357.456054688 97.2578125 211.515625 51.40234375 164.828125 c 0
 47.2626953125 162.135742188 42.2314453125 158.380859375 35.2607421875 151.075195312 c 0
EndSplineSet
Validated: 41
EndChar

StartChar: igrave
Encoding: 147 236 65
Width: 422
Flags: W
VStem: -1 257<27.2531 145.112> 22.5 179.636<152.848 221.941 578.5 635.749>
LayerCount: 2
Fore
SplineSet
22.5 578.5 m 0x40
 22.5 576.958984375 35.1845703125 370.000976562 27.7548828125 221.94140625 c 0
 27.7216796875 221.5859375 26.548828125 199.7265625 25.404296875 186.283203125 c 0
 24.9873046875 181.390625 23.23828125 161.198242188 20.421875 145.834960938 c 1
 7.080078125 130.474609375 -1 110.422851562 -1 88.5 c 0
 -1 22.7197265625 68.716796875 -19.10546875 128.543945312 10.6484375 c 1
 186.349609375 -19.1044921875 256 23.0341796875 256 88.5 c 0x80
 256 115.188476562 244.025390625 139.1015625 225.161132812 155.157226562 c 0
 221.221679688 158.509765625 204.490234375 174.381835938 202.135742188 203.907226562 c 1
 206.23828125 275.573242188 207.189453125 415.375976562 197.348632812 583.676757812 c 0
 194.666015625 629.563476562 156.5546875 666 110 666 c 0
 61.70703125 666 22.5 626.79296875 22.5 578.5 c 0x40
EndSplineSet
Validated: 41
EndChar

StartChar: iacute
Encoding: 146 237 66
Width: 422
Flags: W
VStem: -1 257<27.2531 145.112> 22.5 179.636<152.848 221.941 578.5 635.749>
LayerCount: 2
Fore
SplineSet
22.5 578.5 m 0x40
 22.5 576.958984375 35.1845703125 370.000976562 27.7548828125 221.94140625 c 0
 27.7216796875 221.5859375 26.548828125 199.7265625 25.404296875 186.283203125 c 0
 24.9873046875 181.390625 23.23828125 161.198242188 20.421875 145.834960938 c 1
 7.080078125 130.474609375 -1 110.422851562 -1 88.5 c 0
 -1 22.7197265625 68.716796875 -19.10546875 128.543945312 10.6484375 c 1
 186.349609375 -19.1044921875 256 23.0341796875 256 88.5 c 0x80
 256 115.188476562 244.025390625 139.1015625 225.161132812 155.157226562 c 0
 221.221679688 158.509765625 204.490234375 174.381835938 202.135742188 203.907226562 c 1
 206.23828125 275.573242188 207.189453125 415.375976562 197.348632812 583.676757812 c 0
 194.666015625 629.563476562 156.5546875 666 110 666 c 0
 61.70703125 666 22.5 626.79296875 22.5 578.5 c 0x40
EndSplineSet
Validated: 41
EndChar

StartChar: icircumflex
Encoding: 148 238 67
Width: 422
Flags: W
VStem: -1 257<27.2531 145.112> 22.5 179.636<152.848 221.941 578.5 635.749>
LayerCount: 2
Fore
SplineSet
22.5 578.5 m 0x40
 22.5 576.958984375 35.1845703125 370.000976562 27.7548828125 221.94140625 c 0
 27.7216796875 221.5859375 26.548828125 199.7265625 25.404296875 186.283203125 c 0
 24.9873046875 181.390625 23.23828125 161.198242188 20.421875 145.834960938 c 1
 7.080078125 130.474609375 -1 110.422851562 -1 88.5 c 0
 -1 22.7197265625 68.716796875 -19.10546875 128.543945312 10.6484375 c 1
 186.349609375 -19.1044921875 256 23.0341796875 256 88.5 c 0x80
 256 115.188476562 244.025390625 139.1015625 225.161132812 155.157226562 c 0
 221.221679688 158.509765625 204.490234375 174.381835938 202.135742188 203.907226562 c 1
 206.23828125 275.573242188 207.189453125 415.375976562 197.348632812 583.676757812 c 0
 194.666015625 629.563476562 156.5546875 666 110 666 c 0
 61.70703125 666 22.5 626.79296875 22.5 578.5 c 0x40
EndSplineSet
Validated: 41
EndChar

StartChar: idieresis
Encoding: 149 239 68
Width: 422
Flags: W
VStem: -1 257<27.2531 145.112> 22.5 179.636<152.848 221.941 578.5 635.749>
LayerCount: 2
Fore
SplineSet
22.5 578.5 m 0x40
 22.5 576.958984375 35.1845703125 370.000976562 27.7548828125 221.94140625 c 0
 27.7216796875 221.5859375 26.548828125 199.7265625 25.404296875 186.283203125 c 0
 24.9873046875 181.390625 23.23828125 161.198242188 20.421875 145.834960938 c 1
 7.080078125 130.474609375 -1 110.422851562 -1 88.5 c 0
 -1 22.7197265625 68.716796875 -19.10546875 128.543945312 10.6484375 c 1
 186.349609375 -19.1044921875 256 23.0341796875 256 88.5 c 0x80
 256 115.188476562 244.025390625 139.1015625 225.161132812 155.157226562 c 0
 221.221679688 158.509765625 204.490234375 174.381835938 202.135742188 203.907226562 c 1
 206.23828125 275.573242188 207.189453125 415.375976562 197.348632812 583.676757812 c 0
 194.666015625 629.563476562 156.5546875 666 110 666 c 0
 61.70703125 666 22.5 626.79296875 22.5 578.5 c 0x40
EndSplineSet
Validated: 41
EndChar

StartChar: dcroat
Encoding: 259 273 69
Width: 836
Flags: W
HStem: 641.069 175<80.401 326.795 565.5 627.36> 650.221 175.27<91.749 333.507>
VStem: 0 175<210.968 328.587> 333.507 176.258<825.49 955.518>
LayerCount: 2
Fore
SplineSet
0 272.30078125 m 0x70
 0 103.467773438 145.106445312 -2.01953125 297.551757812 -2.01953125 c 0
 348.037109375 -2.01953125 399.651367188 9.0634765625 444.177734375 40.3662109375 c 0
 466.505859375 56.0634765625 486.967773438 77.5361328125 501.071289062 104.2421875 c 0
 510.993164062 123.029296875 513.13671875 134.928710938 515.594726562 223.639648438 c 0
 517.887695312 306.419921875 520.103515625 480.334960938 516.747070312 642.9375 c 1
 538.524414062 641.84375 553.983398438 641.069335938 565.5 641.069335938 c 0
 613.79296875 641.069335938 653 680.276367188 653 728.569335938 c 0
 653 776.862304688 613.79296875 816.069335938 565.5 816.069335938 c 0xb0
 559.669921875 816.069335938 510.321289062 818.478515625 509.764648438 818.505859375 c 0
 503.455078125 909.80859375 494.538085938 934.537109375 486.033203125 951.541015625 c 0
 471.671875 980.249023438 441.985351562 999.98046875 407.7265625 999.98046875 c 0
 345.041992188 999.98046875 302.868164062 935.721679688 327.102539062 878.4453125 c 0
 328.784179688 869.40625 330.633789062 859.46484375 333.506835938 825.490234375 c 1
 188.811523438 828.775390625 140.670898438 821.240234375 112.072265625 810.708007812 c 0
 78.64453125 798.397460938 54.7763671875 766.249023438 54.7763671875 728.569335938 c 0
 54.7763671875 668.249023438 114.588867188 626.185546875 171.120117188 645.942382812 c 0
 182.293945312 648.458984375 222.221679688 653.370117188 341.536132812 650.220703125 c 1
 342.520507812 606.182617188 343.088867188 559.561523438 343.32421875 513.236328125 c 1
 167.036132812 567.588867188 0 443.745117188 0 272.30078125 c 0x70
346.16015625 185.61328125 m 1
 346.217773438 185.78515625 l 1
 346.217773438 185.78515625 346.198242188 185.7265625 346.16015625 185.61328125 c 1
259.044921875 351.1015625 m 0
 291.388671875 351.1015625 306.369140625 334.65234375 342.706054688 344.756835938 c 1
 341.815429688 272.921875 340.271484375 212.34765625 338.8984375 180.850585938 c 1
 304.700195312 164.084960938 229.71484375 173.677734375 194.407226562 215.575195312 c 0
 182.608398438 229.576171875 175 246.198242188 175 272.30078125 c 0
 175 322.424804688 216.392578125 351.1015625 259.044921875 351.1015625 c 0
EndSplineSet
Validated: 41
EndChar

StartChar: Egrave
Encoding: 233 200 101
Width: 1138
Flags: W
HStem: 792.021 174.8<343.895 622.894>
LayerCount: 2
Fore
SplineSet
323.7578125 966.8203125 m 4
 266.151367188 966.8203125 255.3984375 973.513671875 237.766601562 973.513671875 c 4
 189.473632812 973.513671875 150.266601562 934.306640625 150.266601562 886.013671875 c 4
 150.266601562 859.244140625 162.314453125 835.265625 181.278320312 819.209960938 c 5
 86.173828125 664.922851562 0 305.223632812 0 149.149414062 c 4
 0 81.0361328125 15.47265625 16.0185546875 98.8505859375 0 c 4
 193.495117188 -18.18359375 472.2578125 13.017578125 618.411132812 104.520507812 c 4
 651.71875 125.374023438 683.849609375 151.885742188 706.06640625 190.299804688 c 4
 739.569335938 248.228515625 697.5625 321.513671875 630.266601562 321.513671875 c 4
 597.891601562 321.513671875 569.599609375 303.892578125 554.466796875 277.727539062 c 4
 547.6875 266.004882812 513.065429688 237.581054688 428.219726562 211.478515625 c 4
 343.9453125 185.55078125 238.904296875 171.663085938 175.692382812 170.13671875 c 5
 176.74609375 188.08984375 181.1796875 251.828125 206.431640625 365.7421875 c 5
 213.922851562 364.771484375 225.837890625 364.217773438 239.6328125 367.772460938 c 4
 414.935546875 412.942382812 471.180664062 443.55078125 583.659179688 549.247070312 c 4
 600.649414062 565.212890625 611.266601562 587.8828125 611.266601562 613.013671875 c 4
 611.266601562 661.306640625 572.059570312 700.513671875 523.766601562 700.513671875 c 4
 500.604492188 700.513671875 479.532226562 691.495117188 463.874023438 676.780273438 c 4
 386.653320312 604.215820312 353.826171875 582.590820312 257.3984375 554.092773438 c 5
 271.482421875 597.470703125 300.430664062 680.083984375 331.85546875 729.966796875 c 4
 338.479492188 740.482421875 349.124023438 762.825195312 343.89453125 792.020507812 c 5
 494.178710938 794.921875 690.766601562 828.859375 857.079101562 840.73828125 c 4
 902.4296875 843.977539062 938.266601562 881.84375 938.266601562 928.013671875 c 4
 938.266601562 978.627929688 895.291015625 1018.91992188 844.454101562 1015.2890625 c 4
 675.80078125 1003.2421875 456.03515625 966.8203125 323.7578125 966.8203125 c 4
EndSplineSet
Validated: 41
EndChar

StartChar: Eacute
Encoding: 131 201 102
Width: 1138
Flags: W
HStem: 792.021 174.8<343.895 622.894>
LayerCount: 2
Fore
SplineSet
323.7578125 966.8203125 m 4
 266.151367188 966.8203125 255.3984375 973.513671875 237.766601562 973.513671875 c 4
 189.473632812 973.513671875 150.266601562 934.306640625 150.266601562 886.013671875 c 4
 150.266601562 859.244140625 162.314453125 835.265625 181.278320312 819.209960938 c 5
 86.173828125 664.922851562 0 305.223632812 0 149.149414062 c 4
 0 81.0361328125 15.47265625 16.0185546875 98.8505859375 0 c 4
 193.495117188 -18.18359375 472.2578125 13.017578125 618.411132812 104.520507812 c 4
 651.71875 125.374023438 683.849609375 151.885742188 706.06640625 190.299804688 c 4
 739.569335938 248.228515625 697.5625 321.513671875 630.266601562 321.513671875 c 4
 597.891601562 321.513671875 569.599609375 303.892578125 554.466796875 277.727539062 c 4
 547.6875 266.004882812 513.065429688 237.581054688 428.219726562 211.478515625 c 4
 343.9453125 185.55078125 238.904296875 171.663085938 175.692382812 170.13671875 c 5
 176.74609375 188.08984375 181.1796875 251.828125 206.431640625 365.7421875 c 5
 213.922851562 364.771484375 225.837890625 364.217773438 239.6328125 367.772460938 c 4
 414.935546875 412.942382812 471.180664062 443.55078125 583.659179688 549.247070312 c 4
 600.649414062 565.212890625 611.266601562 587.8828125 611.266601562 613.013671875 c 4
 611.266601562 661.306640625 572.059570312 700.513671875 523.766601562 700.513671875 c 4
 500.604492188 700.513671875 479.532226562 691.495117188 463.874023438 676.780273438 c 4
 386.653320312 604.215820312 353.826171875 582.590820312 257.3984375 554.092773438 c 5
 271.482421875 597.470703125 300.430664062 680.083984375 331.85546875 729.966796875 c 4
 338.479492188 740.482421875 349.124023438 762.825195312 343.89453125 792.020507812 c 5
 494.178710938 794.921875 690.766601562 828.859375 857.079101562 840.73828125 c 4
 902.4296875 843.977539062 938.266601562 881.84375 938.266601562 928.013671875 c 4
 938.266601562 978.627929688 895.291015625 1018.91992188 844.454101562 1015.2890625 c 4
 675.80078125 1003.2421875 456.03515625 966.8203125 323.7578125 966.8203125 c 4
EndSplineSet
Validated: 41
EndChar

StartChar: Ecircumflex
Encoding: 230 202 103
Width: 1138
Flags: W
HStem: 792.021 174.8<343.895 622.894>
LayerCount: 2
Fore
SplineSet
323.7578125 966.8203125 m 4
 266.151367188 966.8203125 255.3984375 973.513671875 237.766601562 973.513671875 c 4
 189.473632812 973.513671875 150.266601562 934.306640625 150.266601562 886.013671875 c 4
 150.266601562 859.244140625 162.314453125 835.265625 181.278320312 819.209960938 c 5
 86.173828125 664.922851562 0 305.223632812 0 149.149414062 c 4
 0 81.0361328125 15.47265625 16.0185546875 98.8505859375 0 c 4
 193.495117188 -18.18359375 472.2578125 13.017578125 618.411132812 104.520507812 c 4
 651.71875 125.374023438 683.849609375 151.885742188 706.06640625 190.299804688 c 4
 739.569335938 248.228515625 697.5625 321.513671875 630.266601562 321.513671875 c 4
 597.891601562 321.513671875 569.599609375 303.892578125 554.466796875 277.727539062 c 4
 547.6875 266.004882812 513.065429688 237.581054688 428.219726562 211.478515625 c 4
 343.9453125 185.55078125 238.904296875 171.663085938 175.692382812 170.13671875 c 5
 176.74609375 188.08984375 181.1796875 251.828125 206.431640625 365.7421875 c 5
 213.922851562 364.771484375 225.837890625 364.217773438 239.6328125 367.772460938 c 4
 414.935546875 412.942382812 471.180664062 443.55078125 583.659179688 549.247070312 c 4
 600.649414062 565.212890625 611.266601562 587.8828125 611.266601562 613.013671875 c 4
 611.266601562 661.306640625 572.059570312 700.513671875 523.766601562 700.513671875 c 4
 500.604492188 700.513671875 479.532226562 691.495117188 463.874023438 676.780273438 c 4
 386.653320312 604.215820312 353.826171875 582.590820312 257.3984375 554.092773438 c 5
 271.482421875 597.470703125 300.430664062 680.083984375 331.85546875 729.966796875 c 4
 338.479492188 740.482421875 349.124023438 762.825195312 343.89453125 792.020507812 c 5
 494.178710938 794.921875 690.766601562 828.859375 857.079101562 840.73828125 c 4
 902.4296875 843.977539062 938.266601562 881.84375 938.266601562 928.013671875 c 4
 938.266601562 978.627929688 895.291015625 1018.91992188 844.454101562 1015.2890625 c 4
 675.80078125 1003.2421875 456.03515625 966.8203125 323.7578125 966.8203125 c 4
EndSplineSet
Validated: 41
EndChar

StartChar: Edieresis
Encoding: 232 203 104
Width: 1138
Flags: W
HStem: 792.021 174.8<343.895 622.894>
LayerCount: 2
Fore
SplineSet
323.7578125 966.8203125 m 4
 266.151367188 966.8203125 255.3984375 973.513671875 237.766601562 973.513671875 c 4
 189.473632812 973.513671875 150.266601562 934.306640625 150.266601562 886.013671875 c 4
 150.266601562 859.244140625 162.314453125 835.265625 181.278320312 819.209960938 c 5
 86.173828125 664.922851562 0 305.223632812 0 149.149414062 c 4
 0 81.0361328125 15.47265625 16.0185546875 98.8505859375 0 c 4
 193.495117188 -18.18359375 472.2578125 13.017578125 618.411132812 104.520507812 c 4
 651.71875 125.374023438 683.849609375 151.885742188 706.06640625 190.299804688 c 4
 739.569335938 248.228515625 697.5625 321.513671875 630.266601562 321.513671875 c 4
 597.891601562 321.513671875 569.599609375 303.892578125 554.466796875 277.727539062 c 4
 547.6875 266.004882812 513.065429688 237.581054688 428.219726562 211.478515625 c 4
 343.9453125 185.55078125 238.904296875 171.663085938 175.692382812 170.13671875 c 5
 176.74609375 188.08984375 181.1796875 251.828125 206.431640625 365.7421875 c 5
 213.922851562 364.771484375 225.837890625 364.217773438 239.6328125 367.772460938 c 4
 414.935546875 412.942382812 471.180664062 443.55078125 583.659179688 549.247070312 c 4
 600.649414062 565.212890625 611.266601562 587.8828125 611.266601562 613.013671875 c 4
 611.266601562 661.306640625 572.059570312 700.513671875 523.766601562 700.513671875 c 4
 500.604492188 700.513671875 479.532226562 691.495117188 463.874023438 676.780273438 c 4
 386.653320312 604.215820312 353.826171875 582.590820312 257.3984375 554.092773438 c 5
 271.482421875 597.470703125 300.430664062 680.083984375 331.85546875 729.966796875 c 4
 338.479492188 740.482421875 349.124023438 762.825195312 343.89453125 792.020507812 c 5
 494.178710938 794.921875 690.766601562 828.859375 857.079101562 840.73828125 c 4
 902.4296875 843.977539062 938.266601562 881.84375 938.266601562 928.013671875 c 4
 938.266601562 978.627929688 895.291015625 1018.91992188 844.454101562 1015.2890625 c 4
 675.80078125 1003.2421875 456.03515625 966.8203125 323.7578125 966.8203125 c 4
EndSplineSet
Validated: 41
EndChar

StartChar: uni021A
Encoding: 270 538 110
Width: 892
Flags: W
HStem: 779.555 167.221<559.588 783.476> 824.999 173.813<29.8802 371.076>
LayerCount: 2
Fore
SplineSet
415.51953125 -0.1923828125 m 0x40
 473.90234375 -0.1923828125 515.791992188 56.078125 499.534179688 111.819335938 c 0
 418 391.365234375 448.295898438 582.124023438 555.66015625 757.1484375 c 0
 559.890625 764.044921875 563.192382812 771.572265625 565.390625 779.5546875 c 1
 709.23828125 765.438476562 743.1328125 770.637695312 773.862304688 795.220703125 c 0
 791.0859375 809 808.01953125 833.405273438 808.01953125 865.307617188 c 0
 808.01953125 927.04296875 745.561523438 969.186523438 688.553710938 946.775390625 c 1x80
 571.744140625 946.775390625 188.166015625 1008.65527344 92.1201171875 998.8125 c 0
 68.142578125 996.35546875 49.8955078125 989.934570312 32.9013671875 975.869140625 c 0
 17.8544921875 963.415039062 0.01953125 939.573242188 0.01953125 906.807617188 c 0
 0.01953125 845.47265625 61.7236328125 803.34765625 118.60546875 824.999023438 c 1
 156.38671875 824.999023438 250.08203125 815.33203125 378.801757812 800.447265625 c 1
 247.9921875 556.237304688 258.670898438 312.51171875 331.504882812 62.7958984375 c 0
 342.115234375 26.41796875 375.734375 -0.1923828125 415.51953125 -0.1923828125 c 0x40
EndSplineSet
Validated: 41
EndChar

StartChar: exclam
Encoding: 33 33 114
Width: 452
Flags: W
HStem: -1.30078 173.523<27.0966 198.322>
VStem: 2 222<24.1899 146.626> 83.5 175<635.843 1064.36>
LayerCount: 2
Fore
SplineSet
239.290039062 350.52734375 m 1xa0
 222.909179688 433.081054688 258.5 780.138671875 258.5 1002.5 c 0
 258.5 1050.79296875 219.29296875 1090 171 1090 c 0
 122.70703125 1090 83.5 1050.79296875 83.5 1002.5 c 0
 83.5 748.96484375 40.5986328125 412.635742188 70.8564453125 302.62109375 c 0
 73.4912109375 293.041992188 76.8779296875 282.780273438 83.69921875 270.665039062 c 0
 98.703125 244.015625 127.264648438 226 160 226 c 0
 224.077148438 226 266.256835938 292.9375 239.290039062 350.52734375 c 1xa0
2 85.5 m 0xc0
 2 32.923828125 47.7080078125 -14.2138671875 125.393554688 -1.30078125 c 1
 177.803710938 -7.9521484375 224 32.9306640625 224 85.5 c 0
 224 142.643554688 170.68359375 186.276367188 101.201171875 172.22265625 c 1
 48.611328125 179.263671875 2 138.317382812 2 85.5 c 0xc0
EndSplineSet
Validated: 41
EndChar

StartChar: numbersign
Encoding: 35 35 115
Width: 1094
Flags: W
HStem: 320.014 174.659<25.2689 143.933>
VStem: 131.081 174.625<129.744 293.714> 145.221 174.323<147.056 295.29> 306.557 174.259<745.477 990.312> 582.139 174.51<722.074 991.294>
LayerCount: 2
Fore
SplineSet
190.856445312 485.211914062 m 1x98
 188.000976562 485.500976562 97.1591796875 494.672851562 86.8935546875 494.672851562 c 0
 38.6005859375 494.672851562 -0.6064453125 455.465820312 -0.6064453125 407.172851562 c 0
 -0.6064453125 361.49609375 34.4677734375 323.947265625 79.1298828125 320.013671875 c 0
 102.013671875 317.997070312 123.999023438 315.944335938 145.220703125 313.874023438 c 1xa8
 138.737304688 277.61328125 133.810546875 238.787109375 131.081054688 196.942382812 c 0
 127.778320312 146.301757812 167.991210938 103.672851562 218.393554688 103.672851562 c 0
 264.748046875 103.672851562 302.731445312 139.795898438 305.706054688 185.403320312 c 0xc8
 308.3203125 225.494140625 313.11328125 261.716796875 319.543945312 295.290039062 c 1xa8
 356.725585938 291.140625 392.435546875 287.166015625 427.711914062 283.58984375 c 1
 403.243164062 226.500976562 376.267578125 171.2421875 346.975585938 117.392578125 c 0
 315.486328125 59.505859375 357.576171875 -11.8271484375 423.893554688 -11.8271484375 c 0
 457.083984375 -11.8271484375 485.983398438 6.6923828125 500.811523438 33.953125 c 0
 541.883789062 109.458007812 578.823242188 187.854492188 611.141601562 269.809570312 c 1
 639.184570312 268.6328125 712.133789062 265.767578125 814.828125 269.739257812 c 0
 861.53125 271.544921875 898.893554688 310.030273438 898.893554688 357.172851562 c 0
 898.893554688 405.465820312 859.686523438 444.672851562 811.393554688 444.672851562 c 0
 806.631835938 444.672851562 746.525390625 441.686523438 670.784179688 443.073242188 c 1
 677.91796875 467.186523438 684.671875 491.608398438 691.036132812 516.350585938 c 1
 733.6796875 517.53515625 779.146484375 522.255859375 828.154296875 531.779296875 c 0
 868.440429688 539.607421875 898.893554688 575.112304688 898.893554688 617.672851562 c 0
 898.893554688 672.653320312 848.616210938 714.056640625 794.6328125 703.56640625 c 0
 771.357421875 699.043945312 749.58203125 695.922851562 728.909179688 693.928710938 c 1
 741.430664062 767.133789062 750.751953125 843.08203125 756.6484375 922.079101562 c 0
 760.450195312 973.014648438 720.120117188 1016.17285156 669.393554688 1016.17285156 c 0
 623.319335938 1016.17285156 585.513671875 980.484375 582.138671875 935.266601562 c 0
 576.029296875 853.423828125 566.083984375 775.534179688 552.55859375 701.030273438 c 1
 525.09765625 705.313476562 502.185546875 709.697265625 460.026367188 717.764648438 c 1
 477.72265625 790.782226562 483.837890625 860.286132812 480.815429688 932.392578125 c 0
 478.864257812 978.962890625 440.440429688 1016.17285156 393.393554688 1016.17285156 c 0
 345.100585938 1016.17285156 305.893554688 976.965820312 305.893554688 928.672851562 c 0
 305.893554688 924.340820312 306.556640625 914.734375 306.556640625 897.369140625 c 0
 306.556640625 839.256835938 298.876953125 790.21875 286.186523438 743.275390625 c 1
 211.815429688 749.060546875 142.96484375 746.331054688 76 738 c 0
 32.8408203125 732.630859375 -0.6064453125 695.77734375 -0.6064453125 651.172851562 c 0
 -0.6064453125 602.879882812 38.6005859375 563.672851562 86.8935546875 563.672851562 c 0
 100.3671875 563.672851562 140.774414062 571.354492188 207.563476562 571.354492188 c 0
 212.922851562 571.354492188 218.21875 571.303710938 223.45703125 571.203125 c 1
 212.631835938 544.171875 201.505859375 515.69140625 190.856445312 485.211914062 c 1x98
370.0390625 465.766601562 m 1
 374.280273438 476.823242188 374.280273438 476.823242188 403.708007812 550.279296875 c 1
 414.818359375 548.213867188 425.96875 546.080078125 437.233398438 543.920898438 c 0
 462.001953125 539.172851562 487.375 534.270507812 513.764648438 529.92578125 c 1
 506.657226562 503.98828125 499.079101562 478.459960938 491.044921875 453.310546875 c 1
 451.971679688 456.848632812 412.279296875 461.09375 370.0390625 465.766601562 c 1
EndSplineSet
Validated: 41
EndChar

StartChar: dollar
Encoding: 36 36 116
Width: 864
Flags: W
VStem: 207.56 168.881<997.397 1098.4> 218.769 175.464<302.95 433.071 636.915 770.237> 227.325 170.116<299.449 430.899>
LayerCount: 2
Fore
SplineSet
411.866210938 83.8115234375 m 1x20
 537.822265625 171.422851562 711.372070312 357.840820312 665.993164062 502.231445312 c 0
 646.608398438 563.91015625 579.190429688 579.162109375 549.7890625 585.813476562 c 0
 508.94921875 595.051757812 467.658203125 600.2421875 391.849609375 609.770507812 c 1
 389.911132812 792.623046875 389.911132812 792.623046875 389.50390625 820.462890625 c 1
 457.016601562 823.606445312 515.061523438 815 527.5 815 c 0
 575.79296875 815 615 854.20703125 615 902.5 c 0
 615 947.668945312 580.701171875 984.889648438 536.75 989.515625 c 0
 479.356445312 995.557617188 430.541992188 997.233398438 384.409179688 995.532226562 c 1
 381.87890625 1035.80078125 379.791015625 1045.1875 376.440429688 1057.50195312 c 0
 366.330078125 1094.65136719 332.333984375 1122 292 1122 c 0
 234.288085938 1122 192.473632812 1066.93261719 207.559570312 1011.49804688 c 0x80
 207.732421875 1008.20117188 209.145507812 998.40625 210.734375 964.885742188 c 1
 171.80859375 950.883789062 111.975585938 923.408203125 65.3525390625 866.474609375 c 0
 23.4892578125 815.353515625 -14.755859375 730.924804688 2.765625 598.897460938 c 0
 15.6962890625 501.4765625 133.375976562 473.486328125 218.768554688 457.791992188 c 1x40
 220.266601562 364.577148438 222.609375 265.276367188 227.325195312 181.591796875 c 0
 226.903320312 181.439453125 195.913085938 170.385742188 183.205078125 173.834960938 c 0
 182.845703125 174.314453125 182.2421875 175.21875 181.440429688 176.786132812 c 0
 166.944335938 205.100585938 137.470703125 224.5 103.500976562 224.5 c 0
 38.1171875 224.5 -4.0263671875 155.009765625 25.5615234375 97.2138671875 c 0
 41.4765625 66.1259765625 87.8291015625 -1.6650390625 189.41796875 -1.6650390625 c 0
 210.579101562 -1.6650390625 230.765625 1.2109375 250.306640625 5.935546875 c 1
 256.369140625 -11.4990234375 268.689453125 -39.9921875 300.70703125 -56.9130859375 c 0
 358.556640625 -87.4833984375 429 -45.3642578125 429 20.5029296875 c 0
 429 38.31640625 423.665039062 54.89453125 414.506835938 68.7236328125 c 0
 413.766601562 72.4208984375 412.844726562 77.55859375 411.866210938 83.8115234375 c 1x20
173.72265625 648.95703125 m 1
 170.291992188 715.369140625 189.811523438 748.7578125 215.146484375 770.237304688 c 1
 215.499023438 740.885742188 215.499023438 740.885742188 216.556640625 636.915039062 c 1
 205.115234375 639.514648438 187.23046875 643.931640625 173.72265625 648.95703125 c 1
397.44140625 299.44921875 m 1x20
 396.095703125 341.60546875 395.0625 386.708007812 394.232421875 433.071289062 c 1x40
 429.901367188 428.545898438 462.67578125 424.177734375 488.084960938 419.676757812 c 1
 471.889648438 384.94921875 438.393554688 340.217773438 397.44140625 299.44921875 c 1x20
EndSplineSet
Validated: 41
EndChar

StartChar: percent
Encoding: 37 37 117
Width: 1020
Flags: W
LayerCount: 2
Fore
SplineSet
668.208007812 234.944335938 m 0
 671.309570312 189.670898438 649.1640625 133.030273438 620.616210938 106.856445312 c 0
 609.260742188 96.4453125 602.750976562 96.0341796875 601.831054688 96.0341796875 c 0
 594.568359375 96.0341796875 577.765625 107.123046875 558.358398438 133.575195312 c 1
 556.974609375 175.329101562 598.365234375 259.953125 631.396484375 277.584960938 c 0
 634.943359375 277.741210938 638.436523438 278.108398438 641.862304688 278.674804688 c 0
 658.030273438 266.287109375 667.39453125 246.811523438 668.208007812 234.944335938 c 0
601.831054688 -78.9658203125 m 0
 749.009765625 -78.9658203125 853.173828125 95.5673828125 842.793945312 247.055664062 c 0
 838.178710938 314.4453125 803.267578125 371.58984375 756.84765625 410.682617188 c 0
 729.055664062 434.087890625 667.7734375 474.634765625 587.376953125 462.520507812 c 0
 558.775390625 458.209960938 534.690429688 440.034179688 522.198242188 415.065429688 c 1
 422.418945312 341.1015625 338.862304688 143.549804688 409.896484375 40.443359375 c 0
 459.0234375 -30.86328125 524.815429688 -78.9658203125 601.831054688 -78.9658203125 c 0
267.62890625 901.090820312 m 0
 268.995117188 900.204101562 281.849609375 891.516601562 284.842773438 876.815429688 c 1
 274.967773438 844.528320312 253.270507812 810.188476562 228.670898438 785.86328125 c 0
 222.821289062 780.079101562 204.349609375 762.51171875 184.430664062 754.344726562 c 1
 183.357421875 758.067382812 182.23046875 763.028320312 181.286132812 769.5 c 0
 184.548828125 794.649414062 200.294921875 837.680664062 217.915039062 865.146484375 c 0
 220.469726562 869.12890625 222.916992188 872.447265625 224.87109375 874.890625 c 0
 241.61328125 879.3125 256.396484375 888.576171875 267.62890625 901.090820312 c 0
454.897460938 834.842773438 m 0
 482.0859375 934.013671875 403.024414062 1086 226 1086 c 0
 189.9609375 1086 158.98046875 1064.1640625 145.580078125 1033.01269531 c 1
 136.000976562 1028.10742188 109.169921875 1014.36914062 78.9736328125 971.983398438 c 0
 53.5654296875 936.318359375 36.0126953125 896.48828125 23.53515625 858.723632812 c 0
 10.1943359375 818.349609375 3.4140625 781.176757812 7.1787109375 751.056640625 c 0
 12.3095703125 710.010742188 24.0126953125 672.260742188 47.990234375 640.12890625 c 0
 71.6748046875 608.387695312 113.670898438 576.495117188 174.734375 576.495117188 c 0
 192.543945312 576.495117188 256.823242188 577.9296875 333.853515625 644.897460938 c 0
 362.08984375 669.444335938 427.509765625 734.938476562 454.897460938 834.842773438 c 0
17.6982421875 62.3310546875 m 0
 -14.90625 4.4140625 27.1416015625 -68 94.001953125 -68 c 0
 126.739257812 -68 155.301757812 -49.982421875 170.305664062 -23.3310546875 c 0
 275.951171875 164.333007812 443.225585938 421.825195312 587.715820312 622.655273438 c 0
 649.186523438 708.09375 749.670898438 842.765625 811.515625 902.965820312 c 0
 822.461914062 913.62109375 831.055664062 920.099609375 831.685546875 920.498046875 c 0
 856.205078125 936.008789062 872.500976562 963.366210938 872.500976562 994.5 c 0
 872.500976562 1063.2890625 796.203125 1105.11914062 738.31640625 1068.50195312 c 0
 707.307617188 1048.88671875 671.180664062 1012.43457031 625.344726562 958.549804688 c 0
 460.10546875 764.295898438 176.26953125 344.0078125 17.6982421875 62.3310546875 c 0
EndSplineSet
Validated: 41
EndChar

StartChar: ampersand
Encoding: 38 38 118
Width: 988
Flags: W
HStem: 811 175<261.664 361.083>
VStem: 554.683 171.635<410.394 557.191>
LayerCount: 2
Fore
SplineSet
388.248046875 208.1796875 m 1
 322.372070312 179.500976562 253.06640625 217.709960938 215.790039062 260.495117188 c 0
 176.05859375 306.099609375 173.752929688 352.34375 176.135742188 359.752929688 c 0
 177.900390625 365.240234375 187.884765625 377.646484375 218.33203125 394.438476562 c 1
 258.6953125 340.873046875 315.380859375 274.208007812 388.248046875 208.1796875 c 1
83.8076171875 145.626953125 m 0
 198.370117188 14.1328125 388.653320312 -24.6513671875 534.572265625 94.8935546875 c 1
 586.809570312 61.0390625 642.396484375 31.8896484375 700.884765625 10.013671875 c 0
 757.696289062 -11.234375 819 30.87890625 819 92 c 0
 819 129.524414062 795.328125 161.563476562 762.115234375 173.986328125 c 0
 722.387695312 188.844726562 682.763671875 208.8359375 644.165039062 232.682617188 c 1
 679.2890625 298.0234375 706.848632812 378.521484375 726.317382812 476.354492188 c 0
 737.080078125 530.435546875 695.647460938 581 640.5 581 c 0
 598.075195312 581 562.661132812 550.741210938 554.682617188 510.645507812 c 0
 540.701171875 440.388671875 522.447265625 384.376953125 502.477539062 340.86328125 c 1
 458.111328125 381.444335938 417.430664062 425.275390625 382.173828125 468.874023438 c 1
 450.665039062 502.512695312 565.608398438 569.61328125 565.608398438 713.08984375 c 0
 565.608398438 850.166015625 456.403320312 986 322 986 c 0
 252.928710938 986 177.313476562 967.423828125 125.826171875 901.767578125 c 0
 87.7705078125 853.239257812 72.9931640625 793.026367188 69.6142578125 726.502929688 c 0
 67.1044921875 677.098632812 85.26171875 615.836914062 123.741210938 542.029296875 c 1
 95.8974609375 525.690429688 0.50390625 468.869140625 0.501953125 354.997070312 c 0
 0.501953125 275.0078125 34.4140625 202.321289062 83.8076171875 145.626953125 c 0
322 811 m 0
 357.399414062 811 406.052734375 735.383789062 386.095703125 689.046875 c 0
 373.368164062 659.495117188 323.555664062 634.428710938 282.750976562 615.837890625 c 1
 271.922851562 635.923828125 255.0078125 669.974609375 247.477539062 699.211914062 c 0
 247.430664062 699.390625 244.141601562 712.844726562 244.385742188 717.497070312 c 0
 246.73828125 763.8046875 257.290039062 785.856445312 263.604492188 793.91015625 c 0
 267.078125 798.33984375 277.006835938 811 322 811 c 0
EndSplineSet
Validated: 41
EndChar

StartChar: parenleft
Encoding: 40 40 119
Width: 660
Flags: W
LayerCount: 2
Fore
SplineSet
645.891601562 1109.87988281 m 0
 645.891601562 1169.546875 587.283203125 1211.56054688 531 1193 c 0
 381.686523438 1143.75878906 179.560546875 875.13671875 179.560546875 409.697265625 c 0
 179.560546875 305.826171875 192.275390625 -31.8291015625 352.80859375 -155.470703125 c 0
 389.97265625 -184.09375 483.25390625 -235.497070312 605.76171875 -156.400390625 c 0
 629.899414062 -140.81640625 645.891601562 -113.6796875 645.891601562 -82.8369140625 c 0
 645.891601562 -13.6962890625 568.87890625 28.08203125 511.021484375 -9.2734375 c 0
 491.397460938 -21.943359375 479.888671875 -23.4736328125 475.447265625 -23.4736328125 c 0
 450.40234375 -23.4736328125 400.918945312 41.5078125 373.340820312 190.85546875 c 0
 364.7109375 237.588867188 335.564453125 423.18359375 373.5546875 631.46875 c 0
 401.248046875 783.30078125 453.087890625 887.322265625 501.21875 950.696289062 c 0
 522.57421875 978.81640625 543.184570312 998.79296875 559.469726562 1011.171875 c 0
 572.493164062 1021.07324219 582.717773438 1025.74902344 585.783203125 1026.75976562 c 0
 620.677734375 1038.26757812 645.891601562 1071.15234375 645.891601562 1109.87988281 c 0
EndSplineSet
Validated: 41
EndChar

StartChar: parenright
Encoding: 41 41 120
Width: 798
Flags: W
HStem: -194.884 167.768<24.9986 119.894> 1024.1 173.897<28.1401 114.88>
VStem: 430.734 175<439.253 689.782>
LayerCount: 2
Fore
SplineSet
90 1198 m 0
 41.70703125 1198 2.5 1158.79296875 2.5 1110.5 c 0
 2.5 1066.94335938 34.3955078125 1030.77636719 76.083984375 1024.10253906 c 1
 130.532226562 996.034179688 273.521484375 869.948242188 409.825195312 687.250976562 c 0
 416.897460938 677.772460938 430.734375 651.938476562 430.734375 594.923828125 c 0
 430.734375 546.357421875 420.0625 484.08984375 399.708984375 418.854492188 c 0
 374.256835938 337.27734375 334.111328125 251.193359375 286.045898438 176.909179688 c 0
 254.25 127.76953125 165.163085938 2.6630859375 65.0458984375 -27.1162109375 c 0
 28.89453125 -37.869140625 2.5 -71.3759765625 2.5 -111 c 0
 2.5 -169.579101562 59.1259765625 -211.490234375 114.954101562 -194.883789062 c 0
 382.654296875 -115.2578125 605.734375 319.47265625 605.734375 594.923828125 c 0
 605.734375 664.8515625 591.84375 735.897460938 550.174804688 791.749023438 c 0
 454.020507812 920.629882812 354.07421875 1025.1875 273.368164062 1095.16796875 c 0
 163.048828125 1190.82617188 117.833984375 1198 90 1198 c 0
EndSplineSet
Validated: 41
EndChar

StartChar: asterisk
Encoding: 42 42 121
Width: 734
Flags: W
HStem: 715.821 219.678<411.09 482.571>
LayerCount: 2
Fore
SplineSet
399.15625 898.373046875 m 1
 398.069335938 963.166015625 353.862304688 999.999023438 307.50390625 999.999023438 c 0
 248.969726562 999.999023438 207.0625 943.454101562 223.590820312 887.643554688 c 1
 223.102539062 882.231445312 219.137695312 859.428710938 209.334960938 823.466796875 c 1
 194.834960938 830 158.866210938 846.810546875 141.203125 860.568359375 c 0
 84.0146484375 905.108398438 0.00390625 864.036132812 0.00390625 791.499023438 c 0
 0.00390625 763.439453125 13.240234375 738.446289062 33.8046875 722.4296875 c 0
 59.287109375 702.583007812 92.025390625 685.045898438 123.942382812 670.0859375 c 1
 99.7197265625 641.111328125 84.2587890625 607.956054688 84.2587890625 570.536132812 c 0
 84.2587890625 507.581054688 132.53515625 478.499023438 172.00390625 478.499023438 c 0
 217.885742188 478.499023438 255.56640625 513.889648438 259.21484375 558.837890625 c 1
 265.068359375 565.336914062 273.099609375 571.633789062 278.294921875 575.500976562 c 1
 283.3671875 573.703125 288.158203125 572.004882812 294.245117188 567.53125 c 1
 305.625976562 532.41796875 338.620117188 506.999023438 377.50390625 506.999023438 c 0
 425.796875 506.999023438 465.00390625 546.206054688 465.00390625 594.499023438 c 0
 465.00390625 603.729492188 462.1875 666.801757812 387.422851562 715.821289062 c 1
 489.434570312 735.737304688 529.333984375 758.046875 550.340820312 795.602539062 c 0
 584.837890625 857.27734375 542.328125 935.499023438 473.00390625 935.499023438 c 0
 443.813476562 935.499023438 417.94140625 921.173828125 402.041992188 899.17578125 c 0
 401.103515625 898.911132812 400.140625 898.643554688 399.15625 898.373046875 c 1
EndSplineSet
Validated: 41
EndChar

StartChar: plus
Encoding: 43 43 122
Width: 1032
Flags: W
HStem: 381.688 175.025<464.849 732.033>
VStem: 285.092 174.902<87.0963 381.688 566.945 909.877>
LayerCount: 2
Fore
SplineSet
464.848632812 556.712890625 m 1
 472.331054688 735.565429688 486.5078125 908.930664062 486.5078125 912.495117188 c 0
 486.5078125 960.788085938 447.30078125 999.995117188 399.0078125 999.995117188 c 0
 353.08203125 999.995117188 315.373046875 964.537109375 311.787109375 919.52734375 c 0
 304.24609375 824.891601562 295.513671875 696.370117188 290.0703125 566.9453125 c 1
 217.422851562 572.091796875 148.986328125 577.861328125 95.3720703125 582.645507812 c 0
 43.99609375 587.23046875 0.0078125 546.727539062 0.0078125 495.495117188 c 0
 0.0078125 449.852539062 35.0302734375 412.326171875 79.6435546875 408.344726562 c 0
 136.03515625 403.311523438 208.141601562 397.170898438 285.091796875 391.763671875 c 1
 282.08203125 143.065429688 301.755859375 73.3095703125 322.737304688 36.1064453125 c 0
 337.749023438 9.486328125 366.293945312 -8.5048828125 399.0078125 -8.5048828125 c 0
 465.217773438 -8.5048828125 507.313476562 62.615234375 476.046875 120.493164062 c 1
 459.20703125 166.771484375 459.471679688 331.501953125 459.994140625 381.6875 c 1
 742.702148438 369.731445312 807.733398438 391.111328125 845.426757812 424.694335938 c 0
 913.217773438 485.094726562 869.586914062 582.995117188 791.5078125 582.995117188 c 0
 769.888671875 582.995117188 750.08984375 575.137695312 734.814453125 562.124023438 c 1
 676.635742188 549.505859375 543.004882812 553.318359375 464.848632812 556.712890625 c 1
EndSplineSet
Validated: 41
EndChar

StartChar: zero
Encoding: 48 48 123
Width: 900
Flags: W
VStem: 104.599 174.401<341.549 705.934> 628.048 174.934<431.514 706.441>
LayerCount: 2
Fore
SplineSet
628.047851562 567.577148438 m 0
 631.133789062 454.33203125 546.684570312 259.447265625 451.0390625 196.763671875 c 0
 397.140625 161.439453125 370.678710938 187.317382812 352.08984375 215.484375 c 0
 291.178710938 307.780273438 279 514.227539062 279 568.278320312 c 0
 279 594.319335938 282.333007812 696.784179688 332.686523438 758.372070312 c 0
 346.543945312 775.322265625 358.776367188 782.155273438 367.748046875 784.623046875 c 0
 389.258789062 790.541992188 407.463867188 804.473632812 418.946289062 823.000976562 c 1
 531.021484375 812.63671875 568.498046875 764.87890625 584.934570312 740.083984375 c 0
 611.471679688 700.05078125 626.071289062 640.115234375 628.047851562 567.577148438 c 0
354.577148438 10.05859375 m 0
 610.688476562 -46.5400390625 809.157226562 345.78125 802.981445312 572.422851562 c 0
 800.513671875 662.99609375 784.001953125 756.4921875 730.90234375 836.596679688 c 0
 674.646484375 921.461914062 569.611328125 1000 373.514648438 1000 c 0
 335.840820312 1000 303.697265625 976.139648438 291.381835938 942.719726562 c 1
 170.06640625 889.206054688 96.5244140625 727.517578125 104.598632812 540.665039062 c 0
 110.9375 393.959960938 140.044921875 57.4677734375 354.577148438 10.05859375 c 0
EndSplineSet
Validated: 41
EndChar

StartChar: one
Encoding: 49 49 124
Width: 900
Flags: W
VStem: 380.064 174.939<23.984 450.371>
LayerCount: 2
Fore
SplineSet
262.00390625 719.47265625 m 0
 262.00390625 650.778320312 340.157226562 604.84375 404.526367188 646.931640625 c 1
 389.25 491.20703125 371.799804688 305.888671875 380.064453125 82.19140625 c 0
 381.79296875 35.416015625 420.309570312 -2.02734375 467.50390625 -2.02734375 c 0
 515.796875 -2.02734375 555.00390625 37.1796875 555.00390625 85.47265625 c 0
 555.00390625 86.5927734375 552.953125 137.19140625 552.953125 197.46484375 c 0
 552.953125 545.185546875 611.982421875 782.018554688 588.7890625 925.08203125 c 0
 579.711914062 981.249023438 518.27734375 1016.46875 464.017578125 991.040039062 c 0
 448.90234375 983.956054688 435.75 972.116210938 427.1796875 958.889648438 c 0
 426.107421875 957.235351562 352.854492188 845.561523438 312.28125 798.671875 c 1
 282.580078125 784.674804688 262.00390625 754.458007812 262.00390625 719.47265625 c 0
EndSplineSet
Validated: 41
EndChar

StartChar: two
Encoding: 50 50 125
Width: 900
Flags: W
HStem: -4.75293 171.548<637.854 804.811> 814.723 159.248<54.8415 245.358>
LayerCount: 2
Fore
SplineSet
604.676757812 603.189453125 m 0
 658.96484375 860.01171875 489.959960938 1000 246.590820312 1000 c 0
 221.165039062 1000 139.856445312 998.016601562 87.259765625 973.970703125 c 0
 57.06640625 960.16796875 36.06640625 929.690429688 36.06640625 894.346679688 c 0
 36.06640625 830.606445312 102.350585938 788.42578125 159.873046875 814.72265625 c 0
 160.140625 814.760742188 169.57421875 817.951171875 186.282226562 820.5703125 c 0
 199.2109375 822.596679688 276.212890625 833.229492188 347.55859375 811.34375 c 0
 375.116210938 802.890625 396.572265625 790.758789062 410.634765625 777.01953125 c 0
 423.534179688 764.416992188 452.890625 731.443359375 433.456054688 639.50390625 c 0
 374.895507812 362.46875 199.611328125 251.2578125 113.219726562 197.325195312 c 0
 75.6005859375 173.83984375 51.2353515625 158.629882812 38.291015625 125.265625 c 0
 14.47265625 63.87890625 61.5869140625 -0.1533203125 123.780273438 -0.1533203125 c 0
 167.737304688 -0.16015625 218.573242188 -2.3115234375 275.227539062 -4.7529296875 c 0
 410.40625 -10.578125 570.471679688 -17.3349609375 755.911132812 0.240234375 c 0
 800.296875 4.4462890625 835.068359375 41.8681640625 835.068359375 87.3466796875 c 0
 835.068359375 138.776367188 790.758789062 179.336914062 739.225585938 174.453125 c 0
 615.306640625 162.708984375 498.985351562 161.916992188 363.771484375 166.794921875 c 1
 435.346679688 233.596679688 555.025390625 368.299804688 604.676757812 603.189453125 c 0
EndSplineSet
Validated: 41
EndChar

StartChar: three
Encoding: 51 51 126
Width: 900
Flags: W
HStem: 2.65137 172.084<267.682 372.186> 768.749 220.948<202.78 279.406>
LayerCount: 2
Fore
SplineSet
533.818359375 582.505859375 m 1
 576.413085938 643.618164062 613.61328125 741.98828125 573.602539062 880.5390625 c 0
 564.545898438 911.8984375 535.453125 966.272460938 441.998046875 989.697265625 c 0
 335.015625 1016.51269531 166.508789062 995.110351562 133.440429688 880.524414062 c 0
 117.3671875 824.829101562 159.247070312 768.749023438 217.5234375 768.749023438 c 0
 251.134765625 768.749023438 280.344726562 787.741210938 294.999023438 815.5703125 c 1
 325.219726562 828.0859375 380.786132812 827.642578125 409.40625 816.821289062 c 1
 433.017578125 715.811523438 385.682617188 671.020507812 348.609375 638.772460938 c 0
 329.049804688 621.758789062 303.0234375 599.119140625 303.0234375 556.249023438 c 0
 303.0234375 530.940429688 311.948242188 472.626953125 388.788085938 439.487304688 c 0
 446.219726562 414.716796875 527.500976562 409.411132812 583.635742188 393.283203125 c 1
 530.809570312 315.8984375 394.7421875 205.907226562 330.575195312 174.735351562 c 1
 281.594726562 175.588867188 241.5234375 136.07421875 241.5234375 87.2490234375 c 0
 241.5234375 32.5224609375 293.387695312 -17.44140625 368.879882812 2.6513671875 c 0
 438.7578125 21.25 550.166992188 108.671875 618.424804688 172.067382812 c 0
 761.805664062 305.234375 789.2421875 390.890625 763.603515625 459.331054688 c 0
 736.301757812 532.208984375 656.936523438 555.5 615.84375 565.8515625 c 0
 591.122070312 572.079101562 572.2578125 575.51171875 533.818359375 582.505859375 c 1
EndSplineSet
Validated: 41
EndChar

StartChar: four
Encoding: 52 52 127
Width: 896
Flags: W
HStem: 335.343 170.07<601.37 803.284>
VStem: 422.565 173.774<139.447 283.562 496.421 712.102>
LayerCount: 2
Fore
SplineSet
617.001953125 927.573242188 m 0
 617.001953125 990.16015625 551.686523438 1037.4765625 484.345703125 1007.34960938 c 0
 462.78515625 997.705078125 440.650390625 980.422851562 411.10546875 952.104492188 c 0
 316.331054688 861.265625 130.01171875 633.456054688 77.34375 466.110351562 c 0
 66.3408203125 431.151367188 48.5634765625 362.044921875 78.85546875 300.127929688 c 0
 85.6748046875 286.190429688 102.620117188 261.060546875 139.267578125 250.44921875 c 0
 181.8828125 238.109375 245.276367188 247.499023438 422.565429688 283.5625 c 1
 429.303710938 149.897460938 450.439453125 83.5703125 474.814453125 42.7412109375 c 0
 490.090820312 17.15234375 518.057617188 0 550 0 c 0
 617.815429688 0 659.76953125 74.3291015625 625.185546875 132.258789062 c 0
 618.529296875 143.408203125 600.864257812 185.204101562 596.33984375 318.372070312 c 1
 619.591796875 322.7265625 675.854492188 333.040039062 710.518554688 335.342773438 c 1
 767.45703125 313.350585938 829.500976562 355.483398438 829.500976562 416.999023438 c 0
 829.500976562 451.4921875 807.54296875 491.604492188 759.47265625 505.413085938 c 0
 726.950195312 514.754882812 685.998046875 511.939453125 597.244140625 496.420898438 c 1
 599.694335938 570.676757812 604.016601562 646.82421875 608.016601562 716.84375 c 0
 612.6953125 798.737304688 616.979492188 871.76953125 617.001953125 927.573242188 c 0
249.560546875 428.725585938 m 1
 276.380859375 500.543945312 344.016601562 607.543945312 432.669921875 715.834960938 c 1
 428.129882812 636.326171875 423.19140625 548.206054688 421.178710938 461.918945312 c 1
 311.872070312 439.561523438 276.920898438 433.19921875 249.560546875 428.725585938 c 1
EndSplineSet
Validated: 41
EndChar

StartChar: five
Encoding: 53 53 128
Width: 900
Flags: W
HStem: 415.076 175<355.017 455.251 546.796 551.518> 825 175<391.042 719.067>
VStem: 222.198 565.402<836.672 956.217>
LayerCount: 2
Fore
SplineSet
612.041015625 825 m 0
 656.999023438 825 668.19140625 808.3359375 700.100585938 808.3359375 c 0
 748.393554688 808.3359375 787.600585938 847.54296875 787.600585938 895.8359375 c 0
 787.600585938 933.483398438 763.772460938 965.610351562 730.388671875 977.943359375 c 0
 688.30859375 993.490234375 648.508789062 1000 612.041015625 1000 c 0
 516.408203125 1000 464.962890625 962.079101562 323.294921875 982.291015625 c 0
 268.518554688 990.090820312 222.446289062 946.7578125 222.198242188 895.12890625 c 0
 221.853515625 821.068359375 175.98828125 668.2890625 175.98828125 574.934570312 c 0
 175.98828125 554.900390625 177.063476562 533.971679688 185.99609375 509.453125 c 0
 192.852539062 490.633789062 214.059570312 447.657226562 267.518554688 435.666992188 c 1
 313.693359375 417.224609375 384.006835938 415.076171875 455.250976562 415.076171875 c 0
 456.215820312 415.076171875 546.45703125 415.58203125 551.678710938 415.569335938 c 1
 491.431640625 262.547851562 366.97265625 209.17578125 245.948242188 167 c 0
 211.771484375 155.088867188 187.219726562 122.5625 187.219726562 84.34765625 c 0
 187.219726562 24.0595703125 246.971679688 -18.0009765625 303.491210938 1.6953125 c 0
 427.534179688 44.9248046875 682.584960938 133.80859375 747.572265625 465.96484375 c 0
 754.701171875 502.405273438 740.551757812 555.237304688 680.982421875 577.173828125 c 0
 645.78515625 590.134765625 597.23046875 590.575195312 546.795898438 590.575195312 c 0
 545.879882812 590.575195312 457.390625 590.076171875 455.250976562 590.076171875 c 0
 403.790039062 590.076171875 372.48046875 591.66796875 352.064453125 594.565429688 c 1
 357.1796875 651.108398438 375.541015625 724.306640625 387.983398438 801.506835938 c 1
 496.852539062 799.18359375 562.248046875 825 612.041015625 825 c 0
EndSplineSet
Validated: 41
EndChar

StartChar: six
Encoding: 54 54 129
Width: 900
Flags: W
HStem: 443.608 175<347.318 577.672> 825 175<485.872 629.625>
LayerCount: 2
Fore
SplineSet
309.013671875 406.565429688 m 1
 323.5859375 413.341796875 393.451171875 443.608398438 478.830078125 443.608398438 c 0
 511.440429688 443.608398438 571.486328125 437.362304688 584.802734375 408.3828125 c 0
 593.763671875 388.883789062 594.572265625 336.8125 537.669921875 271.5546875 c 0
 493.833007812 221.28125 435.763671875 186.919921875 401.766601562 177.754882812 c 0
 385.655273438 174.7109375 374.202148438 172.546875 356.030273438 200.85546875 c 0
 332.404296875 237.66015625 309.013671875 326.227539062 309.013671875 406.565429688 c 1
345.991210938 602.849609375 m 1
 360.572265625 643.385742188 431.415039062 825 567.764648438 825 c 0
 616.057617188 825 655.264648438 864.20703125 655.264648438 912.5 c 0
 655.264648438 960.79296875 616.057617188 1000 567.764648438 1000 c 0
 465.947265625 1000 380.518554688 952.732421875 317.170898438 888.249023438 c 0
 179.052734375 747.655273438 117.168945312 503.840820312 137.916992188 335.990234375 c 0
 147.54296875 258.119140625 174.905273438 80.6865234375 303.497070312 20.0224609375 c 0
 387.485351562 -19.5986328125 465.657226562 10.8681640625 511.2734375 33.5166015625 c 0
 597.55859375 76.357421875 690.44921875 158.053710938 735.823242188 257.63671875 c 0
 812.0546875 424.944335938 738.959960938 618.608398438 478.830078125 618.608398438 c 0
 433.759765625 618.608398438 388.806640625 612.81640625 345.991210938 602.849609375 c 1
EndSplineSet
Validated: 41
EndChar

StartChar: seven
Encoding: 55 55 130
Width: 900
Flags: W
HStem: 802.767 174.391<331.103 680.998> 825.368 174.252<39.7457 463.714>
VStem: 121.004 172.821<29.6343 117.117>
LayerCount: 2
Fore
SplineSet
109.641601562 999.620117188 m 0x60
 58.17578125 1004.37597656 14.00390625 963.83984375 14.00390625 912.494140625 c 0
 14.00390625 866.9453125 48.8828125 829.478515625 93.3662109375 825.368164062 c 0x60
 276.694335938 808.428710938 543.611328125 816.126953125 680.998046875 802.766601562 c 1
 582.8125 641.75 253.3984375 351.182617188 154.921875 185.203125 c 0
 137.055664062 155.087890625 121.00390625 120.0703125 121.00390625 91.494140625 c 0
 121.00390625 43.201171875 160.2109375 3.994140625 208.50390625 3.994140625 c 0
 250.104492188 3.994140625 284.962890625 33.087890625 293.825195312 72.021484375 c 0
 294.0703125 73.095703125 300.2421875 96.74609375 354.438476562 163.953125 c 0
 494.05859375 337.092773438 770.014648438 585.759765625 849.872070312 746.624023438 c 0
 862.818359375 772.704101562 892.080078125 836.783203125 864.428710938 898.634765625 c 0
 837.204101562 959.53515625 765.010742188 970.620117188 695.943359375 977.157226562 c 0xa0
 548.881835938 991.076171875 279.688476562 983.907226562 109.641601562 999.620117188 c 0x60
EndSplineSet
Validated: 41
EndChar

StartChar: eight
Encoding: 56 56 131
Width: 900
Flags: W
VStem: 586.514 175<207.856 357.931>
LayerCount: 2
Fore
SplineSet
434.7265625 681.276367188 m 1
 403.796875 700.633789062 370.159179688 722.038085938 350.2265625 737.868164062 c 1
 353.2109375 742.318359375 355.796875 747.057617188 357.934570312 752.033203125 c 0
 386.487304688 771.663085938 447.708007812 800.80078125 509.817382812 815.694335938 c 0
 519.573242188 818.034179688 565.03125 828.772460938 599.20703125 823.618164062 c 1
 572.919921875 794.071289062 528.573242188 757.395507812 467.91015625 708.206054688 c 0
 457.071289062 699.416992188 445.977539062 690.444335938 434.7265625 681.276367188 c 1
586.721679688 579.274414062 m 1
 700.463867188 671.411132812 790.11328125 745.465820312 790.11328125 837.994140625 c 0
 790.11328125 865.752929688 780.741210938 894.139648438 764.487304688 916.65234375 c 0
 728.725585938 966.182617188 643.807617188 1031.99902344 455.752929688 982.571289062 c 0
 406.658203125 969.66796875 360.439453125 951.483398438 321.091796875 932.067382812 c 0
 228.220703125 886.241210938 202.719726562 849.921875 193.094726562 819.395507812 c 1
 169.536132812 803.709960938 154 776.91015625 154 746.510742188 c 0
 154 663.895507812 225.51953125 607.641601562 297.903320312 560.65625 c 1
 215.600585938 478.505859375 142 379.177734375 142 263.510742188 c 0
 142 199.716796875 167.248046875 144.564453125 203.234375 104.205078125 c 0
 235.0546875 68.5185546875 273.756835938 44.080078125 312.606445312 27.234375 c 0
 361.291015625 6.1240234375 411.559570312 -3.9892578125 459 -3.9892578125 c 0
 616.1796875 -3.9892578125 761.513671875 96.099609375 761.513671875 281.241210938 c 0
 761.513671875 422.875976562 663.673828125 519.487304688 586.721679688 579.274414062 c 1
449.495117188 463.176757812 m 1
 562.866210938 383.108398438 586.513671875 327.805664062 586.513671875 281.241210938 c 0
 586.513671875 248.015625 579.459960938 205.405273438 523.025390625 182.90234375 c 0
 449.616210938 153.631835938 365.827148438 184.76171875 333.876953125 220.59375 c 0
 325.766601562 229.689453125 303.990234375 254.111328125 327.620117188 311.0859375 c 0
 346.126953125 355.70703125 386.77734375 405.311523438 449.495117188 463.176757812 c 1
EndSplineSet
Validated: 41
EndChar

StartChar: nine
Encoding: 57 57 132
Width: 900
Flags: W
LayerCount: 2
Fore
SplineSet
386.2734375 700.384765625 m 0
 364.291992188 780.00390625 505.284179688 843.392578125 550.053710938 820.426757812 c 0
 558.704101562 815.989257812 558.704101562 807.436523438 558.704101562 800.88671875 c 0
 558.704101562 777.958984375 550.946289062 729.505859375 523.780273438 655.193359375 c 1
 516.836914062 655.380859375 507.463867188 654.825195312 496.915039062 651.755859375 c 0
 485.734375 648.502929688 433.849609375 634.189453125 413.453125 642.504882812 c 0
 411.083984375 643.470703125 410.73046875 643.361328125 407.48828125 647.642578125 c 0
 402.68359375 653.990234375 394.158203125 671.826171875 386.2734375 700.384765625 c 0
138.01171875 92.9912109375 m 0
 138.01171875 25.119140625 212.455078125 -16.828125 270.3828125 17.873046875 c 0
 300.469726562 35.8955078125 429.112304688 113.549804688 568.500976562 346.444335938 c 0
 597.616210938 395.090820312 693.953125 564.368164062 725.194335938 723.120117188 c 0
 738.268554688 789.55859375 742.365234375 860.5625 692.907226562 924.115234375 c 0
 558.719726562 1096.54589844 208.833007812 952.327148438 208.833007812 717.48828125 c 0
 208.833007812 696.306640625 211.729492188 674.891601562 217.560546875 653.76953125 c 0
 231.5625 603.0546875 270.849609375 462.9921875 435.0546875 465.057617188 c 1
 397.438476562 398.497070312 298.626953125 238.787109375 180.640625 168.109375 c 0
 155.114257812 152.818359375 138.01171875 124.88671875 138.01171875 92.9912109375 c 0
EndSplineSet
Validated: 41
EndChar

StartChar: at
Encoding: 64 64 133
Width: 1498
Flags: W
HStem: 608.471 209.3<635.479 744.64> 959.271 175<386.522 682.494>
VStem: 1.0752 174.925<386.818 685.572> 283.496 328.465<400.374 532.503> 743.697 174.742<523.64 608.471> 1108 175<521.541 788.271>
LayerCount: 2
Fore
SplineSet
637.298828125 400.015625 m 1
 636.810546875 401.180664062 611.9609375 463.3046875 611.9609375 523.76171875 c 0
 611.9609375 549.206054688 616.697265625 563.912109375 621.12890625 572.513671875 c 0
 624.705078125 579.454101562 633.337890625 596.209960938 676.0859375 604.494140625 c 0
 690.670898438 607.3203125 712.576171875 609.693359375 744.639648438 608.470703125 c 1
 744.2265625 601.798828125 743.905273438 594.578125 743.697265625 586.818359375 c 0
 735.97265625 561.97265625 717.709960938 518.693359375 693.903320312 477.497070312 c 0
 678.536132812 450.905273438 657.073242188 419.075195312 637.298828125 400.015625 c 1
923.15234375 712.985351562 m 0
 923.15234375 776.243164062 874.893554688 817.770507812 821.99609375 817.770507812 c 0
 725.04296875 817.770507812 466.89453125 809.94140625 343.973632812 605.435546875 c 0
 288.282226562 512.780273438 283.49609375 413.799804688 283.49609375 411.770507812 c 0
 283.49609375 363.477539062 322.703125 324.270507812 370.99609375 324.270507812 c 0
 412.243164062 324.270507812 446.86328125 352.873046875 456.0859375 391.30859375 c 1
 472.9375 327.783203125 498.314453125 275.143554688 539.900390625 242.736328125 c 0
 584.883789062 207.681640625 682.669921875 175.990234375 789.973632812 308.06640625 c 1
 799.85546875 286.034179688 836.358398438 207.2109375 920.7109375 174.6015625 c 0
 944.2421875 165.504882812 969.158203125 160.268554688 994.739257812 160.268554688 c 0
 1084.21386719 160.268554688 1145.59375 222.149414062 1182.29882812 284.5 c 0
 1260.53222656 417.39453125 1283 631.1171875 1283 788.270507812 c 0
 1283 922.836914062 1118.11816406 997.88671875 964.48046875 1045.50683594 c 0
 861.250976562 1077.50292969 748.901367188 1100.86816406 655.419921875 1115.72460938 c 0
 580.12890625 1127.69042969 519.4765625 1134.27050781 478.06640625 1134.27050781 c 0
 202.854492188 1134.27050781 -3.52734375 818.928710938 1.0751953125 524.37890625 c 0
 3.5732421875 364.46875 85.818359375 142.512695312 239.763671875 8.154296875 c 0
 373.102539062 -108.21875 586.415039062 -179.033203125 865.192382812 -20.326171875 c 0
 891.642578125 -5.267578125 909.49609375 23.1826171875 909.49609375 55.7705078125 c 0
 909.49609375 122.810546875 836.72265625 164.842773438 778.799804688 131.8671875 c 0
 603.694335938 32.1806640625 464.501953125 44.24609375 354.747070312 140.036132812 c 0
 238.084960938 241.854492188 176 421.641601562 176 534 c 0
 176 735.7734375 314.961914062 959.270507812 478.06640625 959.270507812 c 0
 497.38671875 959.270507812 546.59765625 955.04296875 605.155273438 946.373046875 c 0
 751.083984375 924.76953125 930.163085938 882.708984375 1036.94824219 831.03515625 c 0
 1051.46875 824.008789062 1091.5234375 803.522460938 1107.04980469 784.3203125 c 1
 1108 788.270507812 l 1
 1108 727.978515625 1103.49707031 546.759765625 1052.61816406 417.631835938 c 0
 1046.83398438 402.954101562 1026.08984375 353.71875 1002.34863281 338.15625 c 0
 998.155273438 335.407226562 995.189453125 333.463867188 983.72265625 337.896484375 c 0
 951.223632812 350.459960938 919.319335938 437.795898438 918.439453125 561.205078125 c 1
 923.221679688 580.58203125 925.49609375 594.89453125 925.49609375 611.770507812 c 0
 925.49609375 628.4921875 925.303710938 650.065429688 915.3359375 670.33984375 c 1
 920.6796875 684.333007812 923.15234375 697.797851562 923.15234375 712.985351562 c 0
EndSplineSet
Validated: 41
EndChar

StartChar: A
Encoding: 65 65 134
Width: 909
Flags: W
HStem: 65.6611 934.368<465.913 630.519>
VStem: 2.08691 170.863<26.1918 171.276> 554.195 157.872<85.9717 296.735>
LayerCount: 2
Fore
SplineSet
698.69921875 98.3408203125 m 0
 731.162109375 138.651367188 743.131835938 203.530273438 712.067382812 371.064453125 c 1
 718.837890625 396.424804688 714.130859375 425.09375 696.287109375 447.744140625 c 1
 680.229492188 519.458007812 635.797851562 701.684570312 549.16796875 941.572265625 c 0
 538.70703125 970.59375 508.831054688 1000.02929688 465.913085938 1000.02929688 c 0
 435.150390625 1000.02929688 401.309570312 982.461914062 385.6328125 948.833984375 c 0
 293.43359375 750.875 192.512695312 607.639648438 111.079101562 431.010742188 c 1
 54.4345703125 416.721679688 27.173828125 351.223632812 57.6083984375 300.943359375 c 1
 36.4306640625 242.1640625 17.61328125 178.72265625 2.0869140625 108.643554688 c 0
 -9.9951171875 54.109375 31.5732421875 2.1611328125 87.5185546875 2.1611328125 c 0
 129.29296875 2.1611328125 164.26953125 31.5 172.950195312 70.6787109375 c 0
 189.166992188 143.873046875 208.9765625 208.227539062 231.747070312 267.775390625 c 1
 546.982421875 298.025390625 l 1
 551.1640625 270.822265625 557.391601562 222.955078125 554.1953125 195.956054688 c 1
 521.626953125 138.041015625 563.674804688 65.6611328125 630.518554688 65.6611328125 c 0
 658.065429688 65.6611328125 682.655273438 78.41796875 698.69921875 98.3408203125 c 0
511.079101562 470.39453125 m 1
 316.549804688 451.727539062 l 1
 340.7734375 497.490234375 366.635742188 542.977539062 393.749023438 590.665039062 c 0
 411.845703125 622.493164062 430.454101562 655.20703125 449.315429688 689.400390625 c 1
 473.151367188 612.955078125 494.190429688 538.391601562 511.079101562 470.39453125 c 1
EndSplineSet
Validated: 41
EndChar

StartChar: C
Encoding: 67 67 135
Width: 1024
Flags: W
HStem: -7 175<340.343 645.446>
LayerCount: 2
Fore
SplineSet
660.46875 927.342773438 m 0
 660.46875 980.015625 614.099609375 1020.92480469 561.61328125 1014.11132812 c 0
 110.879882812 955.596679688 -110.455078125 484.205078125 61.4326171875 174.9296875 c 0
 127.296875 56.419921875 338.799804688 -7 510 -7 c 0
 600.5546875 -7 732.435546875 10.837890625 810.296875 102.884765625 c 0
 858.19921875 159.514648438 817.590820312 246.84375 743.46875 246.84375 c 0
 716.685546875 246.84375 692.696289062 234.784179688 676.640625 215.802734375 c 0
 650.956054688 185.439453125 586.08984375 168 510 168 c 0
 404.399414062 168 284.984375 201.456054688 231.021484375 243.202148438 c 0
 220.07421875 251.671875 215.227539062 258.458007812 214.504882812 259.7578125 c 0
 102.588867188 461.127929688 256.7734375 798.051757812 584.32421875 840.57421875 c 0
 627.259765625 846.1484375 660.46875 882.8984375 660.46875 927.342773438 c 0
EndSplineSet
Validated: 41
EndChar

StartChar: L
Encoding: 76 76 136
Width: 862
Flags: W
HStem: 57.1064 174.894<292.389 653.855>
LayerCount: 2
Fore
SplineSet
592 232 m 0
 587.897460938 232 383.788085938 223.709960938 183.534179688 193.453125 c 1
 194.147460938 340.377929688 218.358398438 724.276367188 195.528320312 875.736328125 c 0
 188.677734375 921.18359375 178.5859375 941.37890625 168.547851562 956.012695312 c 0
 158.061523438 971.299804688 131.173828125 1000 87.5 1000 c 0
 39.20703125 1000 0 960.79296875 0 912.5 c 0
 0 890.510742188 8.12890625 870.405273438 21.5419921875 855.02734375 c 1
 40.1494140625 745.142578125 25.30859375 392.625 0.4208984375 96.234375 c 0
 -4.5712890625 36.6708984375 49.7109375 -10.5732421875 107.7109375 2.3447265625 c 0
 119.549804688 4.9697265625 291.3828125 42.138671875 596.3515625 57.1064453125 c 0
 642.625976562 59.3779296875 679.5 97.6669921875 679.5 144.5 c 0
 679.5 192.79296875 640.29296875 232 592 232 c 0
EndSplineSet
Validated: 41
EndChar

StartChar: S
Encoding: 83 83 137
Width: 690
Flags: W
LayerCount: 2
Fore
SplineSet
407.533203125 836.620117188 m 1
 465.315429688 807.260742188 534.583007812 849.408203125 534.583007812 914.6796875 c 0
 534.583007812 942.052734375 521.986328125 966.5078125 502.278320312 982.557617188 c 0
 413.508789062 1054.84863281 261.661132812 981.459960938 174 904 c 0
 146.081054688 879.331054688 64.140625 802.409179688 64.140625 698.44921875 c 0
 64.140625 632.567382812 97.08984375 532.4765625 274.646484375 471.412109375 c 0
 281.615234375 469.014648438 342.337890625 447.603515625 355.110351562 424.92578125 c 0
 360.545898438 415.275390625 345.00390625 380.404296875 299.754882812 334.958007812 c 0
 244.837890625 279.803710938 153.068359375 215.543945312 45.9423828125 155.588867188 c 0
 19.1865234375 140.614257812 1.0830078125 111.994140625 1.0830078125 79.1787109375 c 0
 1.0830078125 12.4130859375 73.310546875 -29.6435546875 131.223632812 2.7685546875 c 0
 487.37109375 202.092773438 531.3046875 343.138671875 531.3046875 420.682617188 c 0
 531.3046875 458.479492188 519.53125 516.860351562 459.375976562 568.444335938 c 0
 424.844726562 598.055664062 382.328125 619.473632812 331.51953125 636.947265625 c 0
 318.586914062 641.395507812 255.65234375 664.174804688 241.173828125 690.993164062 c 0
 227.421875 716.466796875 292.138671875 790.681640625 371.12109375 825.077148438 c 0
 378.237304688 828.176757812 394.220703125 834.6640625 407.533203125 836.620117188 c 1
EndSplineSet
Validated: 41
EndChar

StartChar: cent
Encoding: 162 162 138
Width: 978
Flags: W
VStem: 3.5 175<286.663 549.08> 321.5 174.807<-77.8579 6.86295 189.505 517.74>
LayerCount: 2
Fore
SplineSet
323.008789062 10.4541015625 m 1
 321.5 -14.076171875 321.5 -14.076171875 321.5 -15.998046875 c 0
 321.5 -64.291015625 360.70703125 -103.498046875 409 -103.498046875 c 0
 455.325195312 -103.498046875 493.291015625 -67.419921875 496.306640625 -21.8525390625 c 0
 496.87890625 -13.2138671875 497.421875 -4.6552734375 497.935546875 3.826171875 c 1
 554.208984375 10.4326171875 707.903320312 38.814453125 797.518554688 155.883789062 c 0
 841.369140625 213.166015625 800.2109375 296.5 728 296.5 c 0
 699.67578125 296.5 674.477539062 283.012695312 658.481445312 262.116210938 c 0
 634.462890625 230.741210938 582.642578125 196.875 504.232421875 181.924804688 c 1
 505.27734375 395.625976562 478.03515625 561.286132812 412.03125 747.983398438 c 1
 456.766601562 771.904296875 508.672851562 795.46875 567.733398438 819.337890625 c 0
 599.830078125 832.309570312 622.5 863.778320312 622.5 900.5 c 0
 622.5 962.587890625 559.377929688 1004.74316406 502.266601562 981.662109375 c 0
 446.66015625 959.189453125 394.809570312 936.439453125 346.956054688 911.889648438 c 1
 338.874023438 930.482421875 330.456054688 949.384765625 321.696289062 968.647460938 c 0
 307.927734375 998.92578125 277.405273438 1020 242 1020 c 0
 178.333984375 1020 136.153320312 953.858398438 162.303710938 896.352539062 c 0
 174.760742188 868.958984375 186.3828125 842.578125 197.215820312 817.028320312 c 1
 61.8740234375 708.25 3.5 571.68359375 3.5 395.5 c 0
 3.5 177.282226562 145.236328125 46.5595703125 323.008789062 10.4541015625 c 1
263.486328125 640.775390625 m 1
 316.498046875 474.853515625 329.2578125 338.450195312 329.2578125 189.504882812 c 1
 247.731445312 214.374023438 178.5 271.8828125 178.5 395.5 c 0
 178.5 512.810546875 211.724609375 585.423828125 263.486328125 640.775390625 c 1
EndSplineSet
Validated: 41
EndChar

StartChar: sterling
Encoding: 163 163 139
Width: 1020
Flags: W
HStem: 448.516 175.871<87.1017 327.422 544.488 674.99>
VStem: 371.668 172.82<333.716 446.64>
LayerCount: 2
Fore
SplineSet
742.731445312 1036.75292969 m 0
 362.004882812 1246.02832031 121.15234375 1051.67285156 121.15234375 862.190429688 c 0
 121.15234375 808.401367188 141.659179688 746.791992188 217.586914062 703.03515625 c 0
 255.65625 681.095703125 296.362304688 669.044921875 315.092773438 654.223632812 c 1
 319.387695312 644.661132812 323.504882812 634.6953125 327.421875 624.38671875 c 1
 258.590820312 626.38671875 193.254882812 631.075195312 140.124023438 636.177734375 c 0
 88.5537109375 641.129882812 44.1728515625 600.553710938 44.1728515625 549.081054688 c 0
 44.1728515625 503.639648438 78.8876953125 466.2421875 123.221679688 461.984375 c 0
 191.538085938 455.424804688 277.940429688 449.514648438 368.93359375 448.515625 c 1
 373.323242188 408.483398438 374.231445312 369.935546875 371.66796875 332.828125 c 1
 310.030273438 341.65625 137.7578125 359.46875 36 232 c 0
 -20.673828125 161.002929688 -11.896484375 68.970703125 77.2197265625 12.25 c 0
 158.18359375 -39.2822265625 313.640625 -62.3115234375 385.139648438 -27.173828125 c 0
 393.938476562 -22.849609375 404.0625 -16.8046875 414.493164062 -6.5166015625 c 0
 451.342773438 29.83203125 478.982421875 72.6982421875 499.23046875 118.440429688 c 1
 581.081054688 87.86328125 661.551757812 45.51171875 720.702148438 6.4501953125 c 0
 778.518554688 -31.73046875 856.331054688 9.9853515625 856.331054688 79.5185546875 c 0
 856.331054688 110.037109375 840.672851562 136.926757812 816.959960938 152.586914062 c 0
 742.002929688 202.0859375 645.58984375 252.296875 543.44140625 288.620117188 c 1
 548.013671875 329.466796875 550.622070312 385.904296875 544.48828125 453.731445312 c 1
 654.814453125 462.3671875 739.462890625 480.752929688 803.728515625 508.765625 c 0
 834.674804688 522.254882812 856.331054688 553.127929688 856.331054688 589.018554688 c 0
 856.331054688 652.102539062 791.309570312 694.28125 733.93359375 669.271484375 c 0
 698.6953125 653.912109375 631.983398438 634.626953125 511.4453125 626.870117188 c 1
 499.46875 667.159179688 484.767578125 705.596679688 467.659179688 741.188476562 c 0
 464.477539062 747.823242188 448.278320312 777.64453125 402.190429688 806.626953125 c 0
 359.97265625 833.17578125 313.170898438 846.37890625 296.200195312 860.525390625 c 1
 294.03125 895.34375 334.276367188 952.118164062 435.040039062 952.118164062 c 0
 489.415039062 952.118164062 564.74609375 934.883789062 658.618164062 883.284179688 c 0
 716.514648438 851.459960938 788.174804688 893.537109375 788.174804688 960.018554688 c 0
 788.174804688 993.072265625 769.807617188 1021.86914062 742.731445312 1036.75292969 c 0
303.83984375 131.314453125 m 1
 288.379882812 130.444335938 243.481445312 132.39453125 201.505859375 146.595703125 c 1
 222.240234375 157.762695312 259.944335938 168.665039062 325.307617188 162.026367188 c 1
 318.729492188 150.766601562 311.557617188 140.5234375 303.83984375 131.314453125 c 1
EndSplineSet
Validated: 41
EndChar

StartChar: exclamdown
Encoding: 193 161 140
Width: 580
Flags: W
HStem: -74.9902 807.472<138.177 283.527> 789.481 210.5<138.64 253.225>
VStem: 112.987 176.124<551.132 705.339 828.301 973.033>
LayerCount: 2
Fore
SplineSet
184.817382812 -74.990234375 m 0
 186.028320312 -74.990234375 284.763671875 -78.017578125 305.881835938 -78.017578125 c 0
 368.994140625 -78.017578125 410.420898438 -14.794921875 388.575195312 42.103515625 c 0
 342.122070312 163.321289062 361.234375 370.463867188 298.538085938 620.21484375 c 0
 296.407226562 628.703125 292.735351562 637.125976562 287.859375 644.981445312 c 1
 287.859375 693.274414062 248.65234375 732.481445312 200.359375 732.481445312 c 0
 152.06640625 732.481445312 112.859375 693.274414062 112.859375 644.981445312 c 0
 112.859375 426.400390625 25.2060546875 272.760742188 0.4013671875 2.9560546875 c 0
 -4.2470703125 -47.2314453125 34.3837890625 -93.8056640625 88.544921875 -93.8056640625 c 0
 102.001953125 -93.8056640625 115.514648438 -90.73046875 127.765625 -84.6474609375 c 0
 142.366210938 -77.41015625 154.209960938 -74.990234375 184.817382812 -74.990234375 c 0
289.111328125 902.165039062 m 0
 289.111328125 970.608398438 240.734375 999.981445312 200.359375 999.981445312 c 0
 153.668945312 999.981445312 115.470703125 963.33203125 112.987304688 917.255859375 c 1
 82.8408203125 856.432617188 127.219726562 789.481445312 190.859375 789.481445312 c 0
 223.510742188 789.481445312 252.009765625 807.405273438 267.044921875 833.94140625 c 0
 277.283203125 848.077148438 289.111328125 871.127929688 289.111328125 902.165039062 c 0
EndSplineSet
Validated: 41
EndChar

StartChar: infinity
Encoding: 176 8734 141
Width: 1330
Flags: W
HStem: 134.116 175<190.229 293.222>
VStem: 0 175<316.049 494.28> 960.013 175.045<460.217 633.46>
LayerCount: 2
Fore
SplineSet
793.75 677.749023438 m 0
 794.013671875 677.833984375 828.986328125 688.982421875 843.212890625 686.4609375 c 0
 891.900390625 677.831054688 945.322265625 632.076171875 960.012695312 600.184570312 c 1
 959.291015625 552.849609375 949.803710938 500.421875 932.797851562 456.032226562 c 0
 911.428710938 400.25390625 869.099609375 328.7265625 794.370117188 338.919921875 c 0
 751.915039062 344.711914062 716.360351562 363.426757812 677.513671875 396.522460938 c 1
 673.629882812 410.547851562 666.338867188 423.1640625 656.587890625 433.419921875 c 0
 638.926757812 451.997070312 621.66796875 469.416992188 604.780273438 485.728515625 c 1
 639.140625 560.653320312 664.397460938 615.727539062 683.92578125 632.543945312 c 0
 694.067382812 636.782226562 704.252929688 641.310546875 714.630859375 645.912109375 c 0
 741.1484375 657.669921875 769.255859375 669.931640625 793.75 677.749023438 c 0
209.555664062 134.116210938 m 0
 322.2109375 134.116210938 426.024414062 186.126953125 511.965820312 312.5 c 1
 569.633789062 253.083007812 652.231445312 181.670898438 770.538085938 165.533203125 c 0
 805.708007812 160.735351562 908.9375 152.002929688 1002.61816406 244.458984375 c 0
 1045.52539062 286.8046875 1075.38867188 338.977539062 1096.28125 393.510742188 c 0
 1122.44824219 461.814453125 1135.05761719 535.416992188 1135.05761719 605.993164062 c 0
 1135.05761719 689.366210938 1054.58789062 777.532226562 972.693359375 822.965820312 c 0
 945.26171875 838.18359375 893.76171875 861.797851562 838.295898438 861.797851562 c 0
 771.783203125 861.797851562 706.334960938 833.692382812 643.833007812 805.977539062 c 0
 632.819335938 801.09375 622.991210938 796.75 615.12109375 793.48828125 c 0
 546.978515625 765.249023438 507.166992188 692.1328125 468.28125 608.030273438 c 1
 453.18359375 619.920898438 438.413085938 631.553710938 412.8671875 634.1640625 c 1
 352.5234375 667.7578125 294.21484375 686.649414062 236.625 686.649414062 c 0
 92.5546875 686.649414062 0 564.889648438 0 408 c 0
 0 368.314453125 7.2685546875 257.92578125 83.064453125 185.768554688 c 0
 114.7109375 155.640625 159.150390625 134.116210938 209.555664062 134.116210938 c 0
387.0625 442.364257812 m 1
 324.512695312 335.999023438 268.434570312 309.116210938 209.555664062 309.116210938 c 0
 200.30078125 309.116210938 175 347.967773438 175 408 c 0
 175 438.297851562 184.086914062 497.172851562 218.553710938 508.966796875 c 0
 242.9765625 517.32421875 283.651367188 505.334960938 324.865234375 482.840820312 c 0
 343.451171875 472.696289062 364.223632812 459.346679688 387.0625 442.364257812 c 1
EndSplineSet
Validated: 41
EndChar

StartChar: Euro
Encoding: 219 8364 142
Width: 1128
Flags: W
HStem: 326.902 173.759<26.03 87.5156 140.938 145.309 430.217 616.875> 339.638 169.012<322.571 553.919> 556.921 174.997<28.6953 87.5156 471.252 661.317> 825 175<552.645 786.295>
LayerCount: 2
Fore
SplineSet
140.9375 495.416992188 m 1x70
 109.2890625 496.82421875 102.349609375 500.661132812 87.515625 500.661132812 c 0
 39.22265625 500.661132812 0.015625 461.454101562 0.015625 413.161132812 c 0
 0.015625 369.897460938 31.482421875 333.924804688 72.7587890625 326.90234375 c 0xb0
 97.7724609375 322.646484375 122.279296875 320.674804688 146.118164062 320.162109375 c 1
 151.833984375 290.255859375 178.060546875 156.303710938 294.146484375 66.634765625 c 0
 433.291015625 -40.845703125 656.1953125 -44.6435546875 874.690429688 169.123046875 c 0
 890.930664062 185.012695312 901.015625 207.16796875 901.015625 231.661132812 c 0
 901.015625 279.954101562 861.80859375 319.161132812 813.515625 319.161132812 c 0
 789.715820312 319.161132812 768.122070312 309.638671875 752.340820312 294.19921875 c 0
 656.827148438 200.751953125 570.802734375 169.514648438 507.565429688 169.514648438 c 0
 467.955078125 169.514648438 387.553710938 182.89453125 340.418945312 283.004882812 c 0
 333.291992188 298.139648438 327.251953125 314.84375 322.571289062 332.958007812 c 1
 358.107421875 336.696289062 392.534179688 339.637695312 426.609375 339.637695312 c 0
 504.365234375 339.637695312 531.697265625 325.661132812 555.015625 325.661132812 c 0
 603.30859375 325.661132812 642.515625 364.868164062 642.515625 413.161132812 c 0
 642.515625 454.649414062 613.579101562 489.431640625 574.803710938 498.41015625 c 0
 481.7109375 519.965820312 397.040039062 516.326171875 319.921875 508.649414062 c 1
 324.19921875 531.497070312 329.702148438 552.624023438 336.229492188 572.19140625 c 1
 419.395507812 582.077148438 490.228515625 587.319335938 580.306640625 563.141601562 c 0
 635.677734375 548.280273438 690.515625 590.076171875 690.515625 647.661132812 c 0
 690.515625 688.100585938 663.022460938 722.169921875 625.724609375 732.180664062 c 0
 569.532226562 747.262695312 517.377929688 753.783203125 468.98046875 755.178710938 c 1
 496.856445312 774.829101562 578.97265625 825 690.85546875 825 c 0
 701.498046875 825 755.376953125 824.127929688 784.896484375 806.958007812 c 1
 798.455078125 776.174804688 829.243164062 754.661132812 865.015625 754.661132812 c 0
 923.255859375 754.661132812 965.129882812 810.674804688 949.123046875 866.352539062 c 0
 924.798828125 950.958984375 823.564453125 1000 690.85546875 1000 c 0
 520.913085938 1000 331.900390625 919.99609375 224.40234375 744.643554688 c 0
 222.456054688 741.46875 220.536132812 738.262695312 218.64453125 735.025390625 c 0
 196.78515625 733.123046875 175.147460938 731.91796875 153.169921875 731.91796875 c 0
 115.362304688 731.91796875 97.8193359375 735.161132812 87.515625 735.161132812 c 0
 39.22265625 735.161132812 0.015625 695.954101562 0.015625 647.661132812 c 0
 0.015625 602.360351562 34.515625 565.053710938 78.6513671875 560.60546875 c 0
 103.772460938 558.073242188 127.911132812 556.982421875 151.09375 556.920898438 c 1
 147.374023438 539.374023438 143.63671875 518.333007812 140.9375 495.416992188 c 1x70
EndSplineSet
Validated: 41
EndChar

StartChar: asciicircum
Encoding: 94 94 143
Width: 852
Flags: W
LayerCount: 2
Fore
SplineSet
0.0234375 694.09765625 m 0
 0.0234375 630.798828125 65.45703125 588.619140625 122.881835938 614.046875 c 0
 153.516601562 627.612304688 226.997070312 668.4296875 338.25 783.0546875 c 1
 349.22265625 773.7265625 360.798828125 764.313476562 372.795898438 754.807617188 c 0
 433.345703125 706.831054688 502.577148438 658.657226562 540.794921875 634.809570312 c 0
 598.696289062 598.678710938 674.5234375 640.540039062 674.5234375 709.09765625 c 0
 674.5234375 740.423828125 658.025390625 767.926757812 633.251953125 783.385742188 c 0
 578.081054688 817.8125 448.310546875 912.05078125 415.134765625 950.76953125 c 1
 383.861328125 1013.15722656 297.321289062 1016.78222656 260.587890625 958.765625 c 0
 246.357421875 938.82421875 166.387695312 851.598632812 93.79296875 799.453125 c 0
 76.826171875 787.264648438 61.427734375 778.25 52.1650390625 774.1484375 c 0
 21.46484375 760.553710938 0.0234375 729.809570312 0.0234375 694.09765625 c 0
EndSplineSet
Validated: 41
EndChar

StartChar: ordfeminine
Encoding: 187 170 144
Width: 792
Flags: W
LayerCount: 2
Fore
SplineSet
287.112304688 723.829101562 m 1
 287.112304688 739.75390625 298.2578125 767.294921875 342.649414062 790.962890625 c 1
 341.256835938 787.348632812 324.619140625 744.961914062 305.702148438 732.952148438 c 0
 297.59375 727.8046875 291.350585938 725.171875 287.112304688 723.829101562 c 1
360.08984375 944.600585938 m 1
 337.064453125 961.294921875 314.189453125 961.370117188 305.096679688 961.370117188 c 0
 198.96484375 961.370117188 89.6240234375 855.563476562 39 771.658203125 c 0
 20.646484375 741.239257812 5.4580078125 708.59765625 0.6708984375 669.844726562 c 0
 -5.7919921875 617.520507812 35.0615234375 571.52734375 87.5078125 571.52734375 c 0
 114.88671875 571.52734375 139.344726562 584.12890625 155.39453125 603.84375 c 1
 206.821289062 544.8046875 299.92578125 522.00390625 399.313476562 585.102539062 c 0
 414.599609375 594.806640625 425.541992188 605.040039062 425.732421875 604.771484375 c 0
 442.748046875 580.862304688 467.608398438 555.336914062 504.431640625 541.841796875 c 0
 561.161132812 521.05078125 622.0078125 563.150390625 622.0078125 624.02734375 c 0
 622.0078125 659.655273438 600.66796875 690.338867188 570.083984375 703.981445312 c 1
 565.129882812 710.2734375 544.375976562 741.063476562 532.22265625 827.399414062 c 1
 543.259765625 901.943359375 532.99609375 962.458007812 484.611328125 989.090820312 c 0
 440.225585938 1013.52148438 381.408203125 995.826171875 360.08984375 944.600585938 c 1
EndSplineSet
Validated: 41
EndChar

StartChar: ordmasculine
Encoding: 188 186 145
Width: 640
Flags: W
LayerCount: 2
Fore
SplineSet
54.994140625 733.137695312 m 1
 52.599609375 619.348632812 133.44921875 548.384765625 227.013671875 548.384765625 c 0
 328.510742188 548.384765625 421.810546875 626.688476562 456.606445312 747.697265625 c 0
 468.26953125 788.258789062 474.698242188 840.65625 455.552734375 891.010742188 c 0
 444.961914062 918.868164062 426.563476562 944.291015625 402.776367188 962.797851562 c 0
 318.560546875 1028.31933594 173.08203125 1011.27246094 28.466796875 878.955078125 c 0
 -19.2470703125 835.298828125 -4.486328125 756.981445312 54.994140625 733.137695312 c 1
254.8203125 818.740234375 m 1
 261.9765625 821.079101562 279.795898438 826.268554688 292.622070312 824.634765625 c 1
 293.12109375 816.869140625 291.3515625 806.373046875 288.393554688 796.0859375 c 0
 271.985351562 739.022460938 241.190429688 725.880859375 230.077148438 723.73828125 c 1
 229.530273438 731.284179688 230.198242188 751.985351562 246.768554688 787.318359375 c 0
 251.291992188 796.963867188 254.106445312 807.568359375 254.8203125 818.740234375 c 1
EndSplineSet
Validated: 41
EndChar

StartChar: bullet
Encoding: 165 8226 146
Width: 618
Flags: W
HStem: 290 356.564<98.3665 305.361>
VStem: 2.58887 402.559<392.045 559.755>
LayerCount: 2
Fore
SplineSet
405.147460938 487.513671875 m 0
 405.147460938 630.283203125 247.57421875 699.633789062 123.177734375 646.564453125 c 0
 96.6689453125 635.255859375 56.9296875 612.0390625 35.2080078125 569.041015625 c 1
 15.3203125 552.995117188 2.5888671875 528.426757812 2.5888671875 500.908203125 c 0
 2.5888671875 375.69140625 83.9765625 290 198 290 c 0
 312.286132812 290 405.147460938 361.561523438 405.147460938 487.513671875 c 0
EndSplineSet
Validated: 41
EndChar

StartChar: paragraph
Encoding: 166 182 147
Width: 888
Flags: W
HStem: 829.479 172.521<432.241 518.314> 833.399 179.028<433.615 519.605>
VStem: 236.287 155.855<58.5731 440.418> 498.733 179.332<23.1873 291.846> 516.334 174.104<425.609 778.536>
LayerCount: 2
Fore
SplineSet
694.961914062 900.07421875 m 1x68
 710.946289062 958.233398438 665.3828125 1015.08398438 605.384765625 1012.42773438 c 2x68
 373 1002 l 1
 316.630859375 1032.89941406 159.436523438 1008.30371094 70.310546875 935.249023438 c 0
 56.748046875 924.131835938 -11.921875 867.364257812 0.1142578125 774.3125 c 0
 7.849609375 714.521484375 30.828125 657.971679688 69.76171875 612.103515625 c 0
 107.891601562 567.182617188 160.227539062 535.033203125 220.783203125 521.10546875 c 1
 203.807617188 213.670898438 210.553710938 131.305664062 236.287109375 84.833984375 c 0
 251.208007812 57.888671875 279.93359375 39.62890625 312.889648438 39.62890625 c 0
 377.00390625 39.62890625 419.18359375 106.638671875 392.142578125 164.236328125 c 1
 379.051757812 222.252929688 391.631835938 447.447265625 400.411132812 595.958007812 c 1
 417.995117188 612.951171875 426.875976562 634.7265625 427.380859375 657.603515625 c 0
 428.813476562 723.118164062 439.788085938 767.791015625 432.241210938 829.479492188 c 1xa8
 461.518554688 830.79296875 492.09375 832.165039062 519.60546875 833.399414062 c 1
 519.224609375 816.5390625 518.326171875 798.200195312 516.333984375 778.536132812 c 0x68
 500.861328125 625.791992188 470.657226562 276.412109375 498.733398438 108.108398438 c 0
 509.6796875 42.4931640625 528.032226562 8.751953125 553.603515625 -14.1123046875 c 0
 569.08203125 -27.9521484375 589.509765625 -36.37109375 611.887695312 -36.37109375 c 0
 686.458984375 -36.37109375 726.919921875 51.9052734375 678.065429688 108.34765625 c 1x70
 663.413085938 149.791992188 662.237304688 258.016601562 662.237304688 293.565429688 c 0
 662.237304688 440.776367188 677.254882812 630.591796875 690.4375 760.721679688 c 0
 697.428710938 829.743164062 693.486328125 857.3828125 694.961914062 900.07421875 c 1x68
EndSplineSet
Validated: 41
EndChar

StartChar: plusminus
Encoding: 177 177 148
Width: 1200
HStem: 109.04 174.961<80.7321 142 277.85 608.164> 133.054 204.947<884.199 984.954> 422.03 176.565<218.711 305.861 458.322 462.84> 500.668 153.895<903.84 1010.88>
VStem: 471.788 171.712<320.141 424.659 613.437 900.253>
LayerCount: 2
Fore
SplineSet
1027.62304688 247.876953125 m 4x48
 1027.62304688 304.743164062 983.25390625 338.000976562 940 338.000976562 c 4x48
 905.594726562 338.000976562 875.80078125 318.100585938 861.509765625 289.192382812 c 5
 834.41015625 281.473632812 771.060546875 270.673828125 612.966796875 270.673828125 c 4
 510.717773438 270.673828125 394.307617188 274.987304688 284.474609375 279.083007812 c 4
 160.5703125 283.703125 143.42578125 284.000976562 142 284.000976562 c 4
 93.70703125 284.000976562 54.5 244.793945312 54.5 196.500976562 c 4
 54.5 149.090820312 92.287109375 110.4375 139.360351562 109.040039062 c 4x88
 182.705078125 107.752929688 229.467773438 106.010742188 277.849609375 104.206054688 c 4
 598.953125 92.2314453125 836.685546875 85.7666015625 943.791992188 133.053710938 c 4
 955.305664062 138.13671875 994.439453125 155.4140625 1015.27441406 196.336914062 c 4
 1023.08691406 211.682617188 1027.62304688 229.791015625 1027.62304688 247.876953125 c 4x48
643.5 382.000976562 m 4
 643.5 401.844726562 638.141601562 406.852539062 633.388671875 437.177734375 c 5
 818.544921875 453.196289062 933.688476562 474.328125 981.876953125 500.66796875 c 4
 1009.05175781 515.522460938 1027.5 544.374023438 1027.5 577.500976562 c 4
 1027.5 643.689453125 956.421875 685.788085938 898.544921875 654.5625 c 4x18
 884.001953125 648.065429688 812.98046875 629.329101562 638.512695312 613.365234375 c 5
 646.001953125 682.25 654.681640625 762.516601562 642.694335938 850.413085938 c 4
 636.875976562 893.079101562 600.251953125 926 556 926 c 4
 507.70703125 926 468.5 886.79296875 468.5 838.5 c 4
 468.5 824.78125 473.620117188 806.434570312 473.620117188 759.405273438 c 4
 473.620117188 717.416015625 469.100585938 674.400390625 464.185546875 629.159179688 c 4
 463.1796875 619.896484375 462.154296875 610.540039062 461.165039062 601.079101562 c 5
 409.071289062 598.5859375 310.94140625 594.900390625 226.935546875 598.595703125 c 5
 214.270507812 649.686523438 159.092773438 678.370117188 109.870117188 658.904296875 c 4
 77.541015625 646.119140625 38.72265625 628.861328125 16.7734375 593.880859375 c 4
 -12.3212890625 547.51171875 2.10546875 491.447265625 43.7158203125 461.358398438 c 4
 75.435546875 438.421875 128.997070312 422.030273438 305.861328125 422.030273438 c 4x28
 353.586914062 422.030273438 405.36328125 423.322265625 458.322265625 425.697265625 c 5
 461.030273438 403.55859375 465.334960938 380.999023438 471.788085938 358.176757812 c 4
 482.172851562 321.447265625 515.96484375 294.500976562 556 294.500976562 c 4
 604.29296875 294.500976562 643.5 333.708007812 643.5 382.000976562 c 4
EndSplineSet
Validated: 41
EndChar

StartChar: hyphen
Encoding: 45 45 149
Width: 788
Flags: W
LayerCount: 2
Fore
SplineSet
474.294921875 578.3203125 m 1
 390.15234375 572.596679688 180.65234375 581 124.077148438 588.284179688 c 1
 124.783203125 587.169921875 l 1
 67.1708984375 614.375 0 572.197265625 0 508 c 0
 0 469.127929688 23.033203125 447.243164062 32.6142578125 439.37109375 c 0
 57.9951171875 418.515625 87.5634765625 413.938476562 171.836914062 408.541992188 c 0
 175.321289062 408.318359375 455.0703125 391.958984375 520.951171875 408.61328125 c 0
 565.157226562 419.7890625 591.5 455.900390625 591.5 496 c 0
 591.5 556.709960938 530.96484375 598.797851562 474.294921875 578.3203125 c 1
EndSplineSet
Validated: 41
EndChar

StartChar: underscore
Encoding: 95 95 150
Width: 1132
Flags: W
HStem: 2.06836 175.211<35.4381 499.826> 38 173.122<491.396 918.61>
LayerCount: 2
Fore
SplineSet
762 38 m 0x40
 818.669921875 38 851.756835938 36.1923828125 857.032226562 36.1923828125 c 0
 905.325195312 36.1923828125 944.532226562 75.3994140625 944.532226562 123.692382812 c 0
 944.532226562 170.798828125 907.2265625 209.260742188 860.573242188 211.122070312 c 0x40
 672.189453125 218.635742188 474.185546875 202.228515625 316.567382812 188.997070312 c 0
 221.080078125 180.981445312 156.393554688 176.017578125 126.026367188 177.279296875 c 1
 68.31640625 205.626953125 0.0322265625 163.461914062 0.0322265625 98.6923828125 c 0
 0.0322265625 86.86328125 3.271484375 45.3994140625 46.5966796875 19.8447265625 c 0
 73.6552734375 3.8857421875 103.583007812 2.068359375 136.407226562 2.068359375 c 0x80
 251.169921875 2.068359375 508.762695312 38 762 38 c 0x40
EndSplineSet
Validated: 41
EndChar

StartChar: grave
Encoding: 96 96 151
Width: 1200
HStem: 690.606 309.368<131.91 157.218>
LayerCount: 2
Fore
SplineSet
194.5 690.606445312 m 0
 264.446289062 690.606445312 306.090820312 769.262695312 267.040039062 827.025390625 c 0
 263.829101562 831.775390625 258.572265625 839.88671875 252.446289062 849.369140625 c 0
 188.973632812 947.6171875 152.912109375 999.974609375 90.953125 999.974609375 c 0
 42.2294921875 999.974609375 0 961.600585938 0 911.106445312 c 0
 0 875.0390625 21.8701171875 844.0390625 53.060546875 830.655273438 c 1
 64.458984375 816.39453125 74.9375 801.655273438 105.346679688 754.586914062 c 0
 111.521484375 745.02734375 116.983398438 736.547851562 121.959960938 729.1875 c 0
 137.692382812 705.916992188 164.322265625 690.606445312 194.5 690.606445312 c 0
EndSplineSet
Validated: 41
EndChar

StartChar: asciitilde
Encoding: 126 126 152
Width: 1312
Flags: W
VStem: 3.69629 167.727<265.565 371.072>
LayerCount: 2
Fore
SplineSet
1122.43457031 486.793945312 m 0
 1166.76367188 567.274414062 1114.29785156 635.545898438 1051.05566406 635.545898438 c 0
 1008.72363281 635.545898438 973.373046875 605.419921875 965.291015625 565.456054688 c 0
 963.85546875 563.37890625 962.021484375 560.774414062 959.82421875 557.750976562 c 0
 872.190429688 490.571289062 829.368164062 496.776367188 773.483398438 524.91015625 c 0
 734.3515625 544.610351562 692.884765625 574.478515625 610.119140625 634.091796875 c 0
 418.607421875 772.033203125 103.541992188 690.205078125 3.6962890625 355.571289062 c 0
 -12.9658203125 299.728515625 28.94921875 243.045898438 87.5595703125 243.045898438 c 0
 127.157226562 243.045898438 160.646484375 269.40625 171.422851562 305.520507812 c 0
 193.125976562 378.260742188 226.565429688 428.697265625 263.038085938 462.556640625 c 0
 342.012695312 535.874023438 443.534179688 538.432617188 508 492 c 0
 613.462890625 416.037109375 643.48046875 394.416015625 694.963867188 368.498046875 c 0
 834.805664062 298.096679688 950.637695312 326.420898438 1079.24804688 429.053710938 c 0
 1088.07128906 436.651367188 1088.07128906 436.651367188 1100.82421875 454.12890625 c 0
 1106.453125 461.841796875 1114.25 471.935546875 1122.43457031 486.793945312 c 0
EndSplineSet
Validated: 41
EndChar

StartChar: section
Encoding: 164 167 153
Width: 654
Flags: W
HStem: 974.881 20G<276.406 326.88> 974.881 20G<276.406 326.88> 977.268 167.153<311.158 449.318>
VStem: 11.2363 271.706<503.799 683.768>
LayerCount: 2
Fore
SplineSet
309.551757812 994.880859375 m 0x90
 344.208007812 994.880859375 353.465820312 977.267578125 387.458007812 977.267578125 c 0
 435.750976562 977.267578125 474.958007812 1016.47460938 474.958007812 1064.76757812 c 0
 474.958007812 1100.13671875 453.927734375 1130.63183594 423.700195312 1144.42089844 c 0x30
 267.981445312 1215.45703125 109.635742188 1129.96875 42 986 c 0
 -20.05078125 853.919921875 10.716796875 705.619140625 138.022460938 634.8671875 c 0
 176.08203125 613.716796875 228.768554688 611.026367188 288.224609375 594.458984375 c 1
 285.666992188 587.672851562 252.955078125 501.758789062 222.927734375 466.985351562 c 1
 194.462890625 452.541015625 174.936523438 422.985351562 174.936523438 388.905273438 c 0
 174.936523438 315.600585938 270.750976562 252.444335938 357.270507812 354.822265625 c 0
 406.986328125 413.650390625 455.094726562 528.026367188 472.202148438 594.420898438 c 0
 477.504882812 615.00390625 491.430664062 698.52734375 384.786132812 745.760742188 c 0
 329.614257812 770.196289062 254.87109375 779.598632812 219.899414062 789.637695312 c 1
 211.068359375 794.895507812 186.025390625 809.926757812 186.025390625 852.092773438 c 0
 186.025390625 915.716796875 243.260742188 994.880859375 309.551757812 994.880859375 c 0x90
282.942382812 683.767578125 m 0
 282.942382812 752.703125 206.346679688 794.512695312 148.470703125 757.586914062 c 0
 101.265625 727.469726562 11.236328125 650.766601562 11.236328125 503.798828125 c 0
 11.236328125 461.819335938 18.607421875 424.138671875 29.7705078125 392.044921875 c 0
 52.78515625 325.876953125 114.7734375 293.079101562 172.776367188 262.389648438 c 0
 207.873046875 243.819335938 232.107421875 230.08984375 242.793945312 218.268554688 c 1
 242.220703125 203.109375 232.71484375 171.87109375 207.961914062 130.583984375 c 0
 177.754882812 80.2001953125 130.92578125 26.7197265625 89.859375 -4.6826171875 c 0
 68.9423828125 -20.677734375 55.439453125 -45.8896484375 55.439453125 -74.2294921875 c 0
 55.439453125 -146.420898438 138.731445312 -187.583007812 196.01953125 -143.776367188 c 0
 259.203125 -95.4619140625 316.451171875 -28.7900390625 358.165039062 40.78515625 c 0
 480.37890625 244.631835938 383.103515625 331.611328125 342.387695312 363.594726562 c 0
 288.430664062 405.978515625 220.801757812 429.330078125 193.618164062 454.064453125 c 1
 185.5859375 480.377929688 181.365234375 520.569335938 195.825195312 555.950195312 c 0
 203.921875 575.760742188 216.611328125 593.485351562 242.4140625 609.948242188 c 0
 266.7734375 625.490234375 282.942382812 652.755859375 282.942382812 683.767578125 c 0
EndSplineSet
Validated: 37
EndChar

StartChar: quotesingle
Encoding: 39 39 154
Width: 370
Flags: W
HStem: 685.987 314<38.8227 150.382>
VStem: 2.04199 173.98<711.627 911.861>
LayerCount: 2
Fore
SplineSet
174.96875 791.336914062 m 0
 174.96875 826.50390625 187.518554688 900.068359375 187.518554688 912.487304688 c 0
 187.518554688 960.780273438 148.311523438 999.987304688 100.018554688 999.987304688 c 0
 56.4453125 999.987304688 20.2685546875 968.069335938 13.6142578125 926.357421875 c 0
 5.6015625 876.139648438 -4.45703125 802.35546875 2.0419921875 760.100585938 c 0
 8.4931640625 718.15234375 44.78125 685.987304688 88.5224609375 685.987304688 c 0
 136.815429688 685.987304688 176.022460938 725.194335938 176.022460938 773.487304688 c 0
 176.022460938 782.909179688 174.96875 782.977539062 174.96875 791.336914062 c 0
EndSplineSet
Validated: 41
EndChar

StartChar: comma
Encoding: 44 44 155
Width: 528
Flags: W
LayerCount: 2
Fore
SplineSet
27.9765625 -148.450195312 m 0
 27.9765625 -196.743164062 67.18359375 -235.950195312 115.4765625 -235.950195312 c 0
 139.502929688 -235.950195312 161.28125 -226.245117188 177.100585938 -210.544921875 c 0
 250.282226562 -137.913085938 339.825195312 -21.9501953125 339.825195312 110.600585938 c 0
 339.825195312 148.51953125 332.23828125 187.682617188 315.33203125 225.327148438 c 0
 301.766601562 255.530273438 263.583007812 308 162 308 c 0
 152.111328125 308 103.653320312 307.352539062 77.8662109375 295.037109375 c 0
 7.45703125 261.4140625 -30.560546875 124.907226562 29.66015625 45.033203125 c 0
 45.71875 23.734375 80.552734375 -5.7568359375 124.013671875 -1.5380859375 c 1
 104.125976562 -31.9931640625 78.7578125 -61.638671875 53.8525390625 -86.35546875 c 0
 37.8759765625 -102.211914062 27.9765625 -124.184570312 27.9765625 -148.450195312 c 0
EndSplineSet
Validated: 41
EndChar

StartChar: period
Encoding: 46 46 156
Width: 534
Flags: W
HStem: 29.8057 326.194<59.2046 273.28>
VStem: -2.66113 373.549<97.8788 252.085>
LayerCount: 2
Fore
SplineSet
90.1513671875 29.8056640625 m 0
 204.178710938 -47.9091796875 370.887695312 19.5458984375 370.887695312 156.828125 c 0
 370.887695312 247.2890625 296.192382812 344.0859375 210 356 c 0
 163.404296875 362.44140625 102.032226562 361.411132812 49.205078125 323.616210938 c 0
 40.240234375 317.162109375 -2.6611328125 281.888671875 -2.6611328125 197.938476562 c 0
 -2.6611328125 167.408203125 2.904296875 135.978515625 17.7939453125 104.986328125 c 0
 29.623046875 80.3642578125 48.708984375 54.3896484375 78.28515625 35.984375 c 0
 82.05859375 33.6357421875 86.0234375 31.56640625 90.1513671875 29.8056640625 c 0
EndSplineSet
Validated: 41
EndChar

StartChar: slash
Encoding: 47 47 157
Width: 702
Flags: W
VStem: -1.5 175<14.6434 166.179>
LayerCount: 2
Fore
SplineSet
527.26953125 902.80078125 m 0
 539.875 957.50390625 498.258789062 1010 442 1010 c 0
 400.48046875 1010 365.67578125 981.018554688 356.73046875 942.19921875 c 0
 347.427734375 901.831054688 262.663085938 664.043945312 240.82421875 617.765625 c 0
 158.250976562 442.787109375 40.3134765625 282.465820312 7.5419921875 147.079101562 c 0
 2.037109375 124.336914062 -1.5009765625 101.001953125 -1.5 76.5009765625 c 0
 -1.4990234375 28.208984375 37.7080078125 -10.9970703125 86 -10.9970703125 c 0
 134.29296875 -10.9970703125 173.5 28.2109375 173.5 76.5029296875 c 0
 173.498046875 164.431640625 309.89453125 354.029296875 399.181640625 543.236328125 c 0
 426.790039062 601.739257812 513.546875 843.249023438 527.26953125 902.80078125 c 0
EndSplineSet
Validated: 41
EndChar

StartChar: quotedbl
Encoding: 34 34 158
Width: 1200
HStem: 653.48 346.5<293.608 409.574> 689.98 287<28.6132 151.757>
VStem: 3.79785 171.202<714.154 868.308 889.48 952.515> 261.419 173.979<679.121 828.255> 276.165 157.467<831.128 981.939>
LayerCount: 2
Fore
SplineSet
435.3984375 740.98046875 m 0xb0
 435.3984375 756.106445312 427.203125 791.27734375 427.203125 830.0703125 c 0
 427.203125 852.725585938 431.268554688 869.427734375 433.631835938 874.28515625 c 0
 461.694335938 931.97265625 419.526367188 999.98046875 354.8984375 999.98046875 c 0
 320.296875 999.98046875 290.359375 979.852539062 276.165039062 950.67578125 c 0xa8
 245.8671875 888.39453125 248.077148438 814.3125 261.418945312 727.58984375 c 0
 267.872070312 685.643554688 304.159179688 653.48046875 347.8984375 653.48046875 c 0
 396.19140625 653.48046875 435.3984375 692.6875 435.3984375 740.98046875 c 0xb0
175 807.625976562 m 0
 175 829.151367188 182.336914062 858.57421875 176.6171875 901.206054688 c 0
 170.880859375 943.962890625 134.213867188 976.98046875 89.8974609375 976.98046875 c 0
 41.6044921875 976.98046875 2.3974609375 937.7734375 2.3974609375 889.48046875 c 0
 2.3974609375 879.42578125 3.7978515625 877.3046875 3.7978515625 868.307617188 c 0
 3.7978515625 863.434570312 3.298828125 857.227539062 2.3603515625 847.565429688 c 0
 0.38671875 827.245117188 -2.2578125 800.025390625 3.470703125 763.747070312 c 0
 10.068359375 721.96875 46.2763671875 689.98046875 89.8974609375 689.98046875 c 0x60
 138.190429688 689.98046875 177.397460938 729.1875 177.397460938 777.48046875 c 0
 177.397460938 790.2421875 175 793.575195312 175 807.625976562 c 0
EndSplineSet
Validated: 41
EndChar

StartChar: colon
Encoding: 58 58 159
Width: 480
Flags: W
VStem: 19.4854 297.756<606.288 765.103>
LayerCount: 2
Fore
SplineSet
40.896484375 187.467773438 m 1
 60.9521484375 163.979492188 131.424804688 91.5537109375 214.4296875 123.323242188 c 0
 246.880859375 135.744140625 268.53515625 160.666992188 287.735351562 192.48046875 c 0
 302.423828125 216.8203125 358.051757812 318.125 319.756835938 398.998046875 c 0
 311.953125 415.48046875 289.676757812 451.6484375 240.423828125 464.072265625 c 0
 128.98828125 492.182617188 70.5400390625 437.326171875 17.0625 363.453125 c 0
 10.0576171875 353.77734375 -6.1640625 326.337890625 3.322265625 290.056640625 c 1
 -0.67578125 272.709960938 -6.240234375 224.837890625 40.896484375 187.467773438 c 1
317.241210938 678.865234375 m 0
 317.241210938 820.284179688 152.090820312 888.647460938 62 794 c 0
 33.0712890625 763.608398438 19.4853515625 722.549804688 19.4853515625 698.22265625 c 0
 19.4853515625 686.66796875 21.7294921875 675.633789062 25.8056640625 665.532226562 c 1
 24.86328125 641.04296875 32.54296875 608.720703125 69.20703125 581.452148438 c 0
 106.473632812 555.918945312 143.873046875 535.48046875 188.725585938 535.48046875 c 0
 263.5078125 535.48046875 317.241210938 596.959960938 317.241210938 678.865234375 c 0
EndSplineSet
Validated: 41
EndChar

StartChar: semicolon
Encoding: 59 59 160
Width: 482
Flags: W
HStem: 522.421 373.579<82.6936 219.931>
VStem: 2.28906 286.639<326.029 423.533>
LayerCount: 2
Fore
SplineSet
229.904296875 476.381835938 m 0
 131.688476562 531.858398438 2.2890625 451.439453125 2.2890625 348.234375 c 0
 2.2890625 270.2265625 81.12890625 213.1328125 143.96875 236.265625 c 1
 142.862304688 225.26953125 139.841796875 203.59765625 132.354492188 187.133789062 c 1
 112.81640625 171.081054688 100.346679688 146.735351562 100.346679688 119.5 c 0
 100.346679688 71.20703125 139.553710938 32 187.846679688 32 c 0
 304.225585938 32 359.668945312 253.994140625 288.927734375 411.505859375 c 0
 276.87109375 438.346679688 256.178710938 461.541015625 229.904296875 476.381835938 c 0
12.7099609375 731.217773438 m 1
 9.556640625 721.309570312 2.09375 697.86328125 8.52734375 670.505859375 c 0
 15.8466796875 611.127929688 73.8017578125 522.420898438 152.190429688 522.420898438 c 0
 179.759765625 522.420898438 207.811523438 532.18359375 241.590820312 567.704101562 c 0
 296.389648438 625.327148438 355.715820312 734.76953125 299.744140625 818.001953125 c 0
 269.327148438 863.236328125 216.233398438 896 156 896 c 0
 62.20703125 896 -1.974609375 814.234375 12.7099609375 731.217773438 c 1
EndSplineSet
Validated: 41
EndChar

StartChar: less
Encoding: 60 60 161
Width: 1200
LayerCount: 2
Fore
SplineSet
656.60546875 764.967773438 m 0
 693.296875 828.9921875 648.760742188 902 582 902 c 0
 547.787109375 902 518.133789062 882.321289062 503.750976562 853.674804688 c 1
 485.936523438 838.01953125 470.071289062 825.181640625 374.661132812 756.291015625 c 0
 295.262695312 698.959960938 276.609375 684.927734375 217.225585938 640.221679688 c 0
 156.108398438 594.2109375 97.0810546875 549.807617188 70.5634765625 536.462890625 c 1
 18.5341796875 522.788085938 -9.8408203125 466.116210938 11.1328125 416.2578125 c 0
 17.37109375 401.426757812 28.90234375 386.765625 43.560546875 376.952148438 c 0
 233.989257812 249.318359375 510.978515625 194.240234375 616.180664062 80.201171875 c 0
 632.172851562 62.865234375 655.078125 52 680.5 52 c 0
 728.79296875 52 768 91.20703125 768 139.5 c 0
 768 162.370117188 759.20703125 183.203125 744.819335938 198.798828125 c 0
 661.0625 289.590820312 532.240234375 342.883789062 395.204101562 399.28125 c 0
 349.767578125 417.981445312 304.9765625 436.60546875 263.141601562 455.978515625 c 1
 264.50390625 456.987304688 379.90625 543.5625 398.849609375 557.529296875 c 0
 424.836914062 576.689453125 451.392578125 595.866210938 476.948242188 614.318359375 c 0
 594.614257812 699.280273438 636.979492188 730.720703125 656.60546875 764.967773438 c 0
EndSplineSet
Validated: 41
EndChar

StartChar: equal
Encoding: 61 61 162
Width: 966
Flags: W
HStem: 277.5 175<405.43 793.36> 543 175<30.1401 458.102>
LayerCount: 2
Fore
SplineSet
712.4375 695.372070312 m 1
 609.862304688 686.958007812 234.306640625 718 92 718 c 0
 43.70703125 718 4.5 678.79296875 4.5 630.5 c 0
 4.5 582.20703125 43.70703125 543 92 543 c 0
 230.858398438 543 620.66796875 510.04296875 730.2890625 521.201171875 c 0
 750.34765625 523.243164062 772.009765625 527.241210938 792.017578125 541.21484375 c 0
 814.669921875 557.03515625 829.5 583.299804688 829.5 613 c 0
 829.5 673.64453125 769.084960938 715.73046875 712.4375 695.372070312 c 1
731.5 452.5 m 0
 531.341796875 452.5 258.627929688 403.453125 165.030273438 409.836914062 c 1
 107.58984375 452.415039062 25.5 411.112304688 25.5 339.5 c 0
 25.5 327.680664062 29.654296875 248.254882812 140.676757812 236.245117188 c 0
 257.6640625 223.591796875 532.756835938 277.5 731.5 277.5 c 0
 779.79296875 277.5 819 316.70703125 819 365 c 0
 819 413.29296875 779.79296875 452.5 731.5 452.5 c 0
EndSplineSet
Validated: 41
EndChar

StartChar: greater
Encoding: 62 62 163
Width: 878
Flags: W
HStem: 379.146 171.807<637.086 725.307>
LayerCount: 2
Fore
SplineSet
125.94140625 925.442382812 m 0
 68.7900390625 948.793945312 5.3994140625 906.633789062 5.3994140625 844.405273438 c 0
 5.3994140625 807.80078125 27.9248046875 776.416992188 59.857421875 763.368164062 c 1
 97.09375 742.89453125 206.565429688 637.80078125 314.767578125 566.338867188 c 0
 366.038085938 532.477539062 402.848632812 499.151367188 455.163085938 460.815429688 c 1
 319.60546875 384.90625 204.409179688 294.708007812 60 236 c 0
 27.9912109375 222.987304688 5.3994140625 191.563476562 5.3994140625 154.905273438 c 0
 5.3994140625 92.7421875 68.6650390625 50.5830078125 125.798828125 73.810546875 c 0
 347.467773438 163.928710938 488.055664062 304.786132812 693.201171875 379.145507812 c 0
 756.716796875 402.19921875 773.294921875 487.997070312 718.002929688 531.872070312 c 0
 703.520507812 543.364257812 684.650390625 550.309570312 666.182617188 550.952148438 c 0
 623.631835938 552.419921875 575.958984375 587.67578125 508.427734375 640.538085938 c 0
 479.2265625 663.397460938 447.178710938 688.598632812 411.03125 712.471679688 c 0
 295.349609375 788.874023438 193.348632812 897.899414062 125.94140625 925.442382812 c 0
EndSplineSet
Validated: 41
EndChar

